<svg xmlns="http://www.w3.org/2000/svg" xmlns:xlink="http://www.w3.org/1999/xlink" version="1.1">
<metadata>
Created by FontForge 20190801 at Mon Sep 16 20:41:22 2019
 By Unknown
Copyright \(c\) 2015 by Lucas Descroix. All rights reserved.
</metadata>
<defs>
<font id="FerroForgeBase-Italic" horiz-adv-x="0">
  <font-face font-family="FerroForje-Italic#12" font-weight="400" font-style="italic" font-stretch="normal" units-per-em="1000" panose-1="0 0 5 0 0 0 0 0 0 0" ascent="750" descent="-250" x-height="509" cap-height="650" bbox="-422 -287 1125 992.216" underline-thickness="50" underline-position="-100" slope="-10" unicode-range="U+000D-FB02"/>
<missing-glyph horiz-adv-x="617"/>
    <glyph glyph-name="fi" unicode="fi" horiz-adv-x="615" d="M 589.375,618.7499999999999 L 538.125,618.7499999999999 L 486.875,618.7499999999999 L 486.875,734.5833333333333 L 435.625,734.5833333333333 L 384.375,734.5833333333333 L 333.125,734.5833333333333 L 281.875,734.5833333333333 L 230.625,734.5833333333333 L 230.625,618.7499999999999 L 230.625,502.91666666666663 L 179.375,502.91666666666663 L 281.875,502.91666666666663 L 333.125,502.91666666666663 L 333.125,387.08333333333326 L 281.875,387.08333333333326 L 230.625,387.08333333333326 L 179.375,387.08333333333326 L 179.375,271.25 L 128.125,155.41666666666669 L 128.125,39.583333333333314 L 128.125,-76.25 L 76.875,-76.25 L 76.875,-192.08333333333334 L 25.625,-192.08333333333334 L 25.625,-76.25 L 25.625,39.583333333333314 L 76.875,39.583333333333314 L 76.875,155.41666666666669 L 76.875,271.25 L 76.875,387.08333333333326 L 128.125,387.08333333333326 L 25.625,387.08333333333326 L 76.875,502.91666666666663 L 128.125,502.91666666666663 L 128.125,618.7499999999999 L 179.375,618.7499999999999 L 179.375,734.5833333333333 L 281.875,850.4166666666667 L 333.125,850.4166666666667 L 384.375,850.4166666666667 L 435.625,850.4166666666667 L 538.125,734.5833333333333 L 589.375,734.5833333333333 L 589.375,618.7499999999999zM 486.875,39.583333333333314 L 486.875,155.41666666666669 L 538.125,155.41666666666669 L 538.125,39.583333333333314 L 486.875,-76.25 L 435.625,39.583333333333314 L 384.375,39.583333333333314 L 384.375,155.41666666666669 L 435.625,155.41666666666669 L 435.625,271.25 L 435.625,387.08333333333326 L 486.875,387.08333333333326 L 384.375,387.08333333333326 L 333.125,387.08333333333326 L 435.625,502.91666666666663 L 486.875,502.91666666666663 L 538.125,502.91666666666663 L 538.125,387.08333333333326 L 538.125,271.25 L 486.875,271.25 L 486.875,39.583333333333314zz"/>
    <glyph glyph-name="fl" unicode="fl" horiz-adv-x="577" d="M 504.87500000000006,155.41666666666669 L 552.9583333333334,155.41666666666669 L 504.87500000000006,39.583333333333314 L 456.7916666666667,39.583333333333314 L 408.70833333333337,39.583333333333314 L 360.62500000000006,39.583333333333314 L 360.62500000000006,155.41666666666669 L 360.62500000000006,271.25 L 408.70833333333337,387.08333333333326 L 408.70833333333337,502.91666666666663 L 408.70833333333337,618.7499999999999 L 456.7916666666667,618.7499999999999 L 456.7916666666667,734.5833333333333 L 408.70833333333337,734.5833333333333 L 360.62500000000006,734.5833333333333 L 312.5416666666667,734.5833333333333 L 264.45833333333337,734.5833333333333 L 216.375,734.5833333333333 L 216.375,618.7499999999999 L 216.375,502.91666666666663 L 168.29166666666666,502.91666666666663 L 264.45833333333337,502.91666666666663 L 312.5416666666667,502.91666666666663 L 312.5416666666667,387.08333333333326 L 264.45833333333337,387.08333333333326 L 216.375,387.08333333333326 L 168.29166666666666,387.08333333333326 L 168.29166666666666,271.25 L 168.29166666666666,155.41666666666669 L 120.20833333333334,155.41666666666669 L 120.20833333333334,39.583333333333314 L 120.20833333333334,-76.25 L 72.125,-76.25 L 72.125,-192.08333333333334 L 24.041666666666668,-192.08333333333334 L 24.041666666666668,-76.25 L 24.041666666666668,39.583333333333314 L 72.125,155.41666666666669 L 72.125,271.25 L 72.125,387.08333333333326 L 120.20833333333334,387.08333333333326 L 24.041666666666668,387.08333333333326 L 24.041666666666668,502.91666666666663 L 72.125,502.91666666666663 L 120.20833333333334,502.91666666666663 L 120.20833333333334,618.7499999999999 L 168.29166666666666,618.7499999999999 L 168.29166666666666,734.5833333333333 L 264.45833333333337,850.4166666666667 L 312.5416666666667,850.4166666666667 L 360.62500000000006,850.4166666666667 L 408.70833333333337,850.4166666666667 L 504.87500000000006,734.5833333333333 L 552.9583333333334,734.5833333333333 L 552.9583333333334,618.7499999999999 L 504.87500000000006,618.7499999999999 L 504.87500000000006,502.91666666666663 L 504.87500000000006,387.08333333333326 L 456.7916666666667,387.08333333333326 L 456.7916666666667,271.25 L 456.7916666666667,155.41666666666669 L 408.70833333333337,155.41666666666669 L 504.87500000000006,155.41666666666669zz"/>
    <glyph glyph-name=".notdef" horiz-adv-x="617"/>
    <glyph glyph-name="NULL" horiz-adv-x="4"/>
    <glyph glyph-name="NULL" horiz-adv-x="4"/>
    <glyph glyph-name="CR" unicode="&#13;" horiz-adv-x="617"/>
    <glyph glyph-name="space" unicode=" " horiz-adv-x="210"/>
    <glyph glyph-name="A" unicode="A" horiz-adv-x="726" d="M 574.75,39.583333333333314 L 635.25,39.583333333333314 L 695.75,39.583333333333314 L 514.25,39.583333333333314 L 453.75,39.583333333333314 L 393.25,39.583333333333314 L 514.25,155.41666666666669 L 453.75,155.41666666666669 L 453.75,271.25 L 393.25,271.25 L 332.75,271.25 L 272.25,271.25 L 211.75,271.25 L 211.75,155.41666666666669 L 151.25,155.41666666666669 L 90.75,39.583333333333314 L 151.25,39.583333333333314 L 211.75,39.583333333333314 L 30.25,39.583333333333314 L 90.75,155.41666666666669 L 151.25,271.25 L 211.75,387.08333333333326 L 272.25,387.08333333333326 L 272.25,502.91666666666663 L 332.75,502.91666666666663 L 332.75,618.7499999999999 L 393.25,618.7499999999999 L 393.25,734.5833333333333 L 453.75,734.5833333333333 L 453.75,618.7499999999999 L 514.25,618.7499999999999 L 514.25,502.91666666666663 L 514.25,387.08333333333326 L 514.25,271.25 L 574.75,271.25 L 574.75,155.41666666666669 L 574.75,39.583333333333314zM 211.75,271.25 L 272.25,271.25 L 332.75,271.25 L 393.25,271.25 L 453.75,271.25 L 453.75,387.08333333333326 L 393.25,502.91666666666663 L 393.25,618.7499999999999 L 332.75,502.91666666666663 L 332.75,387.08333333333326 L 272.25,387.08333333333326 L 211.75,271.25zz"/>
    <glyph glyph-name="B" unicode="B" horiz-adv-x="602" d="M 376.24999999999994,387.08333333333326 L 426.41666666666663,387.08333333333326 L 426.41666666666663,271.25 L 476.5833333333333,271.25 L 526.75,271.25 L 526.75,155.41666666666669 L 476.5833333333333,155.41666666666669 L 476.5833333333333,39.583333333333314 L 426.41666666666663,39.583333333333314 L 376.24999999999994,39.583333333333314 L 326.0833333333333,39.583333333333314 L 275.91666666666663,39.583333333333314 L 225.75,39.583333333333314 L 175.58333333333334,39.583333333333314 L 125.41666666666666,39.583333333333314 L 75.25,39.583333333333314 L 25.083333333333332,39.583333333333314 L 75.25,155.41666666666669 L 125.41666666666666,155.41666666666669 L 125.41666666666666,271.25 L 125.41666666666666,387.08333333333326 L 125.41666666666666,502.91666666666663 L 175.58333333333334,502.91666666666663 L 175.58333333333334,618.7499999999999 L 125.41666666666666,618.7499999999999 L 75.25,618.7499999999999 L 225.75,618.7499999999999 L 275.91666666666663,618.7499999999999 L 326.0833333333333,618.7499999999999 L 376.24999999999994,618.7499999999999 L 426.41666666666663,618.7499999999999 L 476.5833333333333,618.7499999999999 L 526.75,618.7499999999999 L 526.75,502.91666666666663 L 526.75,387.08333333333326 L 476.5833333333333,387.08333333333326 L 376.24999999999994,387.08333333333326zM 275.91666666666663,618.7499999999999 L 275.91666666666663,502.91666666666663 L 225.75,502.91666666666663 L 225.75,387.08333333333326 L 275.91666666666663,387.08333333333326 L 326.0833333333333,387.08333333333326 L 376.24999999999994,387.08333333333326 L 426.41666666666663,387.08333333333326 L 426.41666666666663,502.91666666666663 L 426.41666666666663,618.7499999999999 L 376.24999999999994,618.7499999999999 L 326.0833333333333,618.7499999999999 L 275.91666666666663,618.7499999999999zM 326.0833333333333,39.583333333333314 L 376.24999999999994,39.583333333333314 L 376.24999999999994,155.41666666666669 L 426.41666666666663,155.41666666666669 L 426.41666666666663,271.25 L 376.24999999999994,271.25 L 326.0833333333333,271.25 L 275.91666666666663,271.25 L 225.75,271.25 L 175.58333333333334,271.25 L 175.58333333333334,155.41666666666669 L 175.58333333333334,39.583333333333314 L 225.75,39.583333333333314 L 275.91666666666663,39.583333333333314 L 326.0833333333333,39.583333333333314zz"/>
    <glyph glyph-name="C" unicode="C" horiz-adv-x="666" d="M 416.25,618.7499999999999 L 471.75,618.7499999999999 L 527.25,618.7499999999999 L 582.75,618.7499999999999 L 582.75,502.91666666666663 L 582.75,387.08333333333326 L 527.25,387.08333333333326 L 527.25,502.91666666666663 L 360.75,618.7499999999999 L 305.25,618.7499999999999 L 249.75,618.7499999999999 L 249.75,502.91666666666663 L 194.25,502.91666666666663 L 194.25,387.08333333333326 L 138.75,387.08333333333326 L 138.75,271.25 L 138.75,155.41666666666669 L 194.25,155.41666666666669 L 194.25,39.583333333333314 L 249.75,39.583333333333314 L 305.25,39.583333333333314 L 360.75,39.583333333333314 L 416.25,39.583333333333314 L 471.75,39.583333333333314 L 471.75,155.41666666666669 L 527.25,155.41666666666669 L 582.75,155.41666666666669 L 527.25,39.583333333333314 L 138.75,39.583333333333314 L 83.25,39.583333333333314 L 83.25,155.41666666666669 L 27.75,155.41666666666669 L 27.75,271.25 L 27.75,387.08333333333326 L 83.25,387.08333333333326 L 83.25,502.91666666666663 L 138.75,502.91666666666663 L 194.25,618.7499999999999 L 416.25,618.7499999999999zz"/>
    <glyph glyph-name="D" unicode="D" horiz-adv-x="691" d="M 316.70833333333337,618.7499999999999 L 374.2916666666667,618.7499999999999 L 431.87500000000006,618.7499999999999 L 489.45833333333337,618.7499999999999 L 547.0416666666666,618.7499999999999 L 604.625,502.91666666666663 L 662.2083333333334,387.08333333333326 L 662.2083333333334,271.25 L 604.625,271.25 L 604.625,155.41666666666669 L 547.0416666666666,155.41666666666669 L 489.45833333333337,155.41666666666669 L 489.45833333333337,39.583333333333314 L 431.87500000000006,39.583333333333314 L 374.2916666666667,39.583333333333314 L 316.70833333333337,39.583333333333314 L 259.125,39.583333333333314 L 201.54166666666666,39.583333333333314 L 143.95833333333334,39.583333333333314 L 86.375,39.583333333333314 L 28.791666666666668,39.583333333333314 L 86.375,155.41666666666669 L 86.375,271.25 L 143.95833333333334,271.25 L 143.95833333333334,387.08333333333326 L 143.95833333333334,502.91666666666663 L 143.95833333333334,618.7499999999999 L 201.54166666666666,618.7499999999999 L 86.375,618.7499999999999 L 259.125,618.7499999999999 L 316.70833333333337,618.7499999999999zM 316.70833333333337,39.583333333333314 L 374.2916666666667,39.583333333333314 L 431.87500000000006,39.583333333333314 L 431.87500000000006,155.41666666666669 L 489.45833333333337,155.41666666666669 L 489.45833333333337,271.25 L 547.0416666666666,271.25 L 547.0416666666666,387.08333333333326 L 547.0416666666666,502.91666666666663 L 489.45833333333337,502.91666666666663 L 489.45833333333337,618.7499999999999 L 431.87500000000006,618.7499999999999 L 374.2916666666667,618.7499999999999 L 316.70833333333337,618.7499999999999 L 259.125,618.7499999999999 L 259.125,502.91666666666663 L 259.125,387.08333333333326 L 201.54166666666666,387.08333333333326 L 201.54166666666666,271.25 L 201.54166666666666,155.41666666666669 L 143.95833333333334,155.41666666666669 L 143.95833333333334,39.583333333333314 L 201.54166666666666,39.583333333333314 L 259.125,39.583333333333314 L 316.70833333333337,39.583333333333314zz"/>
    <glyph glyph-name="E" unicode="E" horiz-adv-x="625" d="M 494.7916666666667,618.7499999999999 L 442.70833333333337,618.7499999999999 L 390.62500000000006,618.7499999999999 L 338.5416666666667,618.7499999999999 L 286.45833333333337,618.7499999999999 L 546.875,618.7499999999999 L 598.9583333333334,618.7499999999999 L 546.875,502.91666666666663 L 494.7916666666667,502.91666666666663 L 494.7916666666667,618.7499999999999zM 442.70833333333337,39.583333333333314 L 494.7916666666667,39.583333333333314 L 494.7916666666667,155.41666666666669 L 546.875,155.41666666666669 L 546.875,39.583333333333314 L 390.62500000000006,39.583333333333314 L 338.5416666666667,39.583333333333314 L 286.45833333333337,39.583333333333314 L 234.375,39.583333333333314 L 182.29166666666666,39.583333333333314 L 130.20833333333334,39.583333333333314 L 78.125,39.583333333333314 L 26.041666666666668,39.583333333333314 L 78.125,155.41666666666669 L 130.20833333333334,155.41666666666669 L 130.20833333333334,271.25 L 130.20833333333334,387.08333333333326 L 130.20833333333334,502.91666666666663 L 182.29166666666666,502.91666666666663 L 182.29166666666666,618.7499999999999 L 130.20833333333334,618.7499999999999 L 78.125,618.7499999999999 L 234.375,618.7499999999999 L 286.45833333333337,618.7499999999999 L 234.375,502.91666666666663 L 234.375,387.08333333333326 L 286.45833333333337,387.08333333333326 L 338.5416666666667,387.08333333333326 L 390.62500000000006,387.08333333333326 L 442.70833333333337,387.08333333333326 L 442.70833333333337,502.91666666666663 L 442.70833333333337,271.25 L 390.62500000000006,271.25 L 338.5416666666667,271.25 L 286.45833333333337,271.25 L 234.375,271.25 L 182.29166666666666,271.25 L 182.29166666666666,155.41666666666669 L 442.70833333333337,39.583333333333314zz"/>
    <glyph glyph-name="F" unicode="F" horiz-adv-x="601" d="M 275.45833333333337,618.7499999999999 L 325.5416666666667,618.7499999999999 L 375.62500000000006,618.7499999999999 L 425.70833333333337,618.7499999999999 L 475.7916666666667,618.7499999999999 L 525.875,618.7499999999999 L 575.9583333333334,618.7499999999999 L 575.9583333333334,502.91666666666663 L 525.875,502.91666666666663 L 275.45833333333337,618.7499999999999zM 275.45833333333337,618.7499999999999 L 275.45833333333337,502.91666666666663 L 225.375,502.91666666666663 L 225.375,387.08333333333326 L 275.45833333333337,387.08333333333326 L 325.5416666666667,387.08333333333326 L 375.62500000000006,387.08333333333326 L 425.70833333333337,387.08333333333326 L 475.7916666666667,387.08333333333326 L 425.70833333333337,271.25 L 425.70833333333337,155.41666666666669 L 375.62500000000006,155.41666666666669 L 375.62500000000006,271.25 L 325.5416666666667,271.25 L 275.45833333333337,271.25 L 225.375,271.25 L 175.29166666666666,271.25 L 175.29166666666666,155.41666666666669 L 175.29166666666666,39.583333333333314 L 225.375,39.583333333333314 L 275.45833333333337,39.583333333333314 L 125.20833333333334,39.583333333333314 L 75.125,39.583333333333314 L 25.041666666666668,39.583333333333314 L 75.125,155.41666666666669 L 125.20833333333334,155.41666666666669 L 125.20833333333334,271.25 L 125.20833333333334,387.08333333333326 L 125.20833333333334,502.91666666666663 L 175.29166666666666,502.91666666666663 L 175.29166666666666,618.7499999999999 L 125.20833333333334,618.7499999999999 L 75.125,618.7499999999999 L 225.375,618.7499999999999 L 275.45833333333337,618.7499999999999zz"/>
    <glyph glyph-name="G" unicode="G" horiz-adv-x="642" d="M 615.25,271.25 L 561.75,271.25 L 561.75,155.41666666666669 L 561.75,39.583333333333314 L 508.25,39.583333333333314 L 454.75,39.583333333333314 L 401.25,39.583333333333314 L 347.75,39.583333333333314 L 294.25,39.583333333333314 L 240.75,39.583333333333314 L 187.25,39.583333333333314 L 133.75,39.583333333333314 L 80.25,39.583333333333314 L 80.25,155.41666666666669 L 26.75,155.41666666666669 L 26.75,271.25 L 26.75,387.08333333333326 L 80.25,387.08333333333326 L 80.25,502.91666666666663 L 133.75,502.91666666666663 L 187.25,502.91666666666663 L 187.25,618.7499999999999 L 240.75,618.7499999999999 L 294.25,618.7499999999999 L 347.75,618.7499999999999 L 401.25,618.7499999999999 L 454.75,618.7499999999999 L 508.25,618.7499999999999 L 561.75,618.7499999999999 L 615.25,618.7499999999999 L 615.25,502.91666666666663 L 561.75,502.91666666666663 L 561.75,387.08333333333326 L 508.25,502.91666666666663 L 240.75,502.91666666666663 L 187.25,387.08333333333326 L 133.75,387.08333333333326 L 133.75,271.25 L 133.75,155.41666666666669 L 187.25,155.41666666666669 L 454.75,155.41666666666669 L 454.75,271.25 L 401.25,271.25 L 347.75,271.25 L 508.25,271.25 L 615.25,271.25zz"/>
    <glyph glyph-name="H" unicode="H" horiz-adv-x="755" d="M 723.5416666666666,618.7499999999999 L 660.625,618.7499999999999 L 660.625,502.91666666666663 L 660.625,387.08333333333326 L 597.7083333333334,387.08333333333326 L 597.7083333333334,271.25 L 597.7083333333334,155.41666666666669 L 597.7083333333334,39.583333333333314 L 534.7916666666666,39.583333333333314 L 660.625,39.583333333333314 L 471.87499999999994,39.583333333333314 L 408.9583333333333,39.583333333333314 L 471.87499999999994,155.41666666666669 L 534.7916666666666,155.41666666666669 L 534.7916666666666,271.25 L 471.87499999999994,271.25 L 408.9583333333333,271.25 L 346.04166666666663,271.25 L 283.125,271.25 L 220.20833333333334,271.25 L 220.20833333333334,155.41666666666669 L 157.29166666666666,155.41666666666669 L 157.29166666666666,39.583333333333314 L 220.20833333333334,39.583333333333314 L 94.375,39.583333333333314 L 31.458333333333332,39.583333333333314 L 94.375,155.41666666666669 L 94.375,271.25 L 157.29166666666666,271.25 L 157.29166666666666,387.08333333333326 L 157.29166666666666,502.91666666666663 L 157.29166666666666,618.7499999999999 L 94.375,618.7499999999999 L 220.20833333333334,618.7499999999999 L 283.125,618.7499999999999 L 346.04166666666663,618.7499999999999 L 283.125,502.91666666666663 L 220.20833333333334,502.91666666666663 L 220.20833333333334,387.08333333333326 L 283.125,387.08333333333326 L 346.04166666666663,387.08333333333326 L 408.9583333333333,387.08333333333326 L 471.87499999999994,387.08333333333326 L 534.7916666666666,387.08333333333326 L 534.7916666666666,502.91666666666663 L 597.7083333333334,502.91666666666663 L 597.7083333333334,618.7499999999999 L 534.7916666666666,618.7499999999999 L 471.87499999999994,618.7499999999999 L 723.5416666666666,618.7499999999999zz"/>
    <glyph glyph-name="I" unicode="I" horiz-adv-x="351" d="M 336.375,618.7499999999999 L 307.125,618.7499999999999 L 277.875,618.7499999999999 L 248.625,618.7499999999999 L 248.625,502.91666666666663 L 219.375,502.91666666666663 L 219.375,387.08333333333326 L 219.375,271.25 L 190.125,271.25 L 190.125,155.41666666666669 L 160.875,155.41666666666669 L 160.875,39.583333333333314 L 190.125,39.583333333333314 L 219.375,39.583333333333314 L 248.625,39.583333333333314 L 131.625,39.583333333333314 L 102.375,39.583333333333314 L 73.125,39.583333333333314 L 43.875,39.583333333333314 L 14.625,39.583333333333314 L 73.125,155.41666666666669 L 102.375,155.41666666666669 L 102.375,271.25 L 131.625,271.25 L 131.625,387.08333333333326 L 160.875,387.08333333333326 L 160.875,502.91666666666663 L 160.875,618.7499999999999 L 131.625,618.7499999999999 L 102.375,618.7499999999999 L 73.125,618.7499999999999 L 190.125,618.7499999999999 L 219.375,618.7499999999999 L 336.375,618.7499999999999zz"/>
    <glyph glyph-name="J" unicode="J" horiz-adv-x="380" d="M 364.1666666666667,618.7499999999999 L 332.5,618.7499999999999 L 300.8333333333333,618.7499999999999 L 269.1666666666667,618.7499999999999 L 269.1666666666667,502.91666666666663 L 237.50000000000003,502.91666666666663 L 237.50000000000003,387.08333333333326 L 237.50000000000003,271.25 L 205.83333333333334,271.25 L 205.83333333333334,155.41666666666669 L 205.83333333333334,39.583333333333314 L 174.16666666666669,39.583333333333314 L 142.5,39.583333333333314 L 142.5,-76.25 L 110.83333333333333,-76.25 L 79.16666666666667,-76.25 L 47.5,-76.25 L 47.5,-192.08333333333334 L 15.833333333333334,-192.08333333333334 L 15.833333333333334,-76.25 L 79.16666666666667,39.583333333333314 L 110.83333333333333,39.583333333333314 L 110.83333333333333,155.41666666666669 L 110.83333333333333,271.25 L 142.5,271.25 L 142.5,387.08333333333326 L 174.16666666666669,387.08333333333326 L 174.16666666666669,502.91666666666663 L 174.16666666666669,618.7499999999999 L 205.83333333333334,618.7499999999999 L 142.5,618.7499999999999 L 110.83333333333333,618.7499999999999 L 237.50000000000003,618.7499999999999 L 364.1666666666667,618.7499999999999zz"/>
    <glyph glyph-name="K" unicode="K" horiz-adv-x="663" d="M 635.375,618.7499999999999 L 580.125,618.7499999999999 L 580.125,502.91666666666663 L 524.875,502.91666666666663 L 469.625,502.91666666666663 L 414.375,502.91666666666663 L 414.375,387.08333333333326 L 359.125,387.08333333333326 L 303.875,387.08333333333326 L 303.875,271.25 L 359.125,271.25 L 414.375,271.25 L 414.375,155.41666666666669 L 469.625,155.41666666666669 L 469.625,39.583333333333314 L 524.875,39.583333333333314 L 580.125,39.583333333333314 L 635.375,39.583333333333314 L 414.375,39.583333333333314 L 359.125,39.583333333333314 L 359.125,155.41666666666669 L 303.875,155.41666666666669 L 248.625,271.25 L 193.375,271.25 L 193.375,155.41666666666669 L 193.375,39.583333333333314 L 138.125,39.583333333333314 L 248.625,39.583333333333314 L 82.875,39.583333333333314 L 27.625,39.583333333333314 L 82.875,155.41666666666669 L 82.875,271.25 L 138.125,271.25 L 138.125,387.08333333333326 L 138.125,502.91666666666663 L 193.375,502.91666666666663 L 193.375,618.7499999999999 L 138.125,618.7499999999999 L 82.875,618.7499999999999 L 248.625,618.7499999999999 L 303.875,618.7499999999999 L 359.125,618.7499999999999 L 248.625,502.91666666666663 L 248.625,387.08333333333326 L 193.375,387.08333333333326 L 359.125,502.91666666666663 L 524.875,618.7499999999999 L 469.625,618.7499999999999 L 635.375,618.7499999999999zz"/>
    <glyph glyph-name="L" unicode="L" horiz-adv-x="623" d="M 545.125,155.41666666666669 L 545.125,39.583333333333314 L 493.2083333333333,39.583333333333314 L 441.29166666666663,39.583333333333314 L 389.37499999999994,39.583333333333314 L 337.4583333333333,39.583333333333314 L 285.54166666666663,39.583333333333314 L 233.625,39.583333333333314 L 181.70833333333334,39.583333333333314 L 129.79166666666666,39.583333333333314 L 77.875,39.583333333333314 L 25.958333333333332,39.583333333333314 L 77.875,155.41666666666669 L 129.79166666666666,155.41666666666669 L 129.79166666666666,271.25 L 129.79166666666666,387.08333333333326 L 129.79166666666666,502.91666666666663 L 181.70833333333334,502.91666666666663 L 181.70833333333334,618.7499999999999 L 129.79166666666666,618.7499999999999 L 77.875,618.7499999999999 L 233.625,618.7499999999999 L 285.54166666666663,618.7499999999999 L 337.4583333333333,618.7499999999999 L 233.625,502.91666666666663 L 233.625,387.08333333333326 L 233.625,271.25 L 181.70833333333334,271.25 L 181.70833333333334,155.41666666666669 L 493.2083333333333,155.41666666666669 L 545.125,155.41666666666669zz"/>
    <glyph glyph-name="M" unicode="M" horiz-adv-x="975" d="M 771.875,39.583333333333314 L 853.125,39.583333333333314 L 690.625,39.583333333333314 L 609.375,39.583333333333314 L 690.625,155.41666666666669 L 690.625,271.25 L 771.875,271.25 L 771.875,387.08333333333326 L 771.875,502.91666666666663 L 771.875,618.7499999999999 L 690.625,502.91666666666663 L 690.625,387.08333333333326 L 609.375,387.08333333333326 L 609.375,271.25 L 528.125,271.25 L 528.125,155.41666666666669 L 446.875,155.41666666666669 L 446.875,39.583333333333314 L 365.625,39.583333333333314 L 365.625,155.41666666666669 L 365.625,271.25 L 284.375,271.25 L 284.375,387.08333333333326 L 284.375,502.91666666666663 L 203.125,502.91666666666663 L 203.125,387.08333333333326 L 203.125,271.25 L 203.125,155.41666666666669 L 121.875,155.41666666666669 L 121.875,39.583333333333314 L 203.125,39.583333333333314 L 284.375,39.583333333333314 L 40.625,39.583333333333314 L 121.875,271.25 L 121.875,387.08333333333326 L 203.125,618.7499999999999 L 121.875,618.7499999999999 L 284.375,618.7499999999999 L 365.625,618.7499999999999 L 365.625,502.91666666666663 L 365.625,387.08333333333326 L 446.875,271.25 L 690.625,618.7499999999999 L 853.125,618.7499999999999 L 853.125,502.91666666666663 L 853.125,387.08333333333326 L 853.125,271.25 L 853.125,155.41666666666669 L 771.875,155.41666666666669 L 771.875,39.583333333333314zz"/>
    <glyph glyph-name="N" unicode="N" horiz-adv-x="761" d="M 729.2916666666666,618.7499999999999 L 665.875,618.7499999999999 L 665.875,502.91666666666663 L 665.875,387.08333333333326 L 665.875,271.25 L 602.4583333333334,271.25 L 602.4583333333334,155.41666666666669 L 602.4583333333334,39.583333333333314 L 665.875,39.583333333333314 L 539.0416666666666,39.583333333333314 L 475.62499999999994,39.583333333333314 L 475.62499999999994,155.41666666666669 L 412.2083333333333,155.41666666666669 L 412.2083333333333,271.25 L 348.79166666666663,271.25 L 348.79166666666663,387.08333333333326 L 285.375,387.08333333333326 L 285.375,502.91666666666663 L 221.95833333333334,502.91666666666663 L 221.95833333333334,387.08333333333326 L 158.54166666666666,387.08333333333326 L 158.54166666666666,271.25 L 158.54166666666666,155.41666666666669 L 158.54166666666666,39.583333333333314 L 221.95833333333334,39.583333333333314 L 285.375,39.583333333333314 L 95.125,39.583333333333314 L 31.708333333333332,39.583333333333314 L 95.125,155.41666666666669 L 95.125,271.25 L 158.54166666666666,502.91666666666663 L 158.54166666666666,618.7499999999999 L 95.125,618.7499999999999 L 221.95833333333334,618.7499999999999 L 285.375,618.7499999999999 L 348.79166666666663,502.91666666666663 L 412.2083333333333,387.08333333333326 L 475.62499999999994,387.08333333333326 L 475.62499999999994,271.25 L 539.0416666666666,271.25 L 539.0416666666666,155.41666666666669 L 602.4583333333334,387.08333333333326 L 602.4583333333334,502.91666666666663 L 602.4583333333334,618.7499999999999 L 539.0416666666666,618.7499999999999 L 729.2916666666666,618.7499999999999zz"/>
    <glyph glyph-name="O" unicode="O" horiz-adv-x="718" d="M 269.25,39.583333333333314 L 209.41666666666666,39.583333333333314 L 149.58333333333334,39.583333333333314 L 89.75,39.583333333333314 L 89.75,155.41666666666669 L 29.916666666666668,155.41666666666669 L 29.916666666666668,271.25 L 29.916666666666668,387.08333333333326 L 89.75,387.08333333333326 L 89.75,502.91666666666663 L 149.58333333333334,502.91666666666663 L 149.58333333333334,618.7499999999999 L 209.41666666666666,618.7499999999999 L 269.25,618.7499999999999 L 329.08333333333337,618.7499999999999 L 388.9166666666667,618.7499999999999 L 448.75000000000006,618.7499999999999 L 508.58333333333337,618.7499999999999 L 568.4166666666666,618.7499999999999 L 628.25,618.7499999999999 L 628.25,502.91666666666663 L 688.0833333333334,502.91666666666663 L 688.0833333333334,387.08333333333326 L 688.0833333333334,271.25 L 628.25,271.25 L 628.25,155.41666666666669 L 568.4166666666666,155.41666666666669 L 568.4166666666666,39.583333333333314 L 508.58333333333337,39.583333333333314 L 448.75000000000006,39.583333333333314 L 388.9166666666667,39.583333333333314 L 329.08333333333337,39.583333333333314 L 269.25,39.583333333333314zM 388.9166666666667,39.583333333333314 L 448.75000000000006,39.583333333333314 L 448.75000000000006,155.41666666666669 L 508.58333333333337,155.41666666666669 L 508.58333333333337,271.25 L 568.4166666666666,271.25 L 568.4166666666666,387.08333333333326 L 568.4166666666666,502.91666666666663 L 508.58333333333337,502.91666666666663 L 508.58333333333337,618.7499999999999 L 448.75000000000006,618.7499999999999 L 388.9166666666667,618.7499999999999 L 329.08333333333337,618.7499999999999 L 269.25,618.7499999999999 L 269.25,502.91666666666663 L 209.41666666666666,502.91666666666663 L 149.58333333333334,387.08333333333326 L 149.58333333333334,271.25 L 149.58333333333334,155.41666666666669 L 149.58333333333334,39.583333333333314 L 209.41666666666666,39.583333333333314 L 269.25,39.583333333333314 L 329.08333333333337,39.583333333333314 L 388.9166666666667,39.583333333333314zz"/>
    <glyph glyph-name="P" unicode="P" horiz-adv-x="613" d="M 383.12500000000006,618.7499999999999 L 434.20833333333337,618.7499999999999 L 485.2916666666667,618.7499999999999 L 536.375,618.7499999999999 L 587.4583333333334,618.7499999999999 L 587.4583333333334,502.91666666666663 L 587.4583333333334,387.08333333333326 L 536.375,387.08333333333326 L 485.2916666666667,387.08333333333326 L 485.2916666666667,271.25 L 434.20833333333337,271.25 L 383.12500000000006,271.25 L 332.0416666666667,271.25 L 280.95833333333337,271.25 L 434.20833333333337,387.08333333333326 L 485.2916666666667,502.91666666666663 L 332.0416666666667,618.7499999999999 L 280.95833333333337,618.7499999999999 L 229.875,618.7499999999999 L 229.875,502.91666666666663 L 229.875,387.08333333333326 L 229.875,271.25 L 178.79166666666666,271.25 L 178.79166666666666,155.41666666666669 L 178.79166666666666,39.583333333333314 L 229.875,39.583333333333314 L 280.95833333333337,39.583333333333314 L 127.70833333333334,39.583333333333314 L 76.625,39.583333333333314 L 25.541666666666668,39.583333333333314 L 76.625,155.41666666666669 L 127.70833333333334,155.41666666666669 L 127.70833333333334,271.25 L 127.70833333333334,387.08333333333326 L 127.70833333333334,502.91666666666663 L 178.79166666666666,502.91666666666663 L 178.79166666666666,618.7499999999999 L 127.70833333333334,618.7499999999999 L 76.625,618.7499999999999 L 383.12500000000006,618.7499999999999zz"/>
    <glyph glyph-name="Q" unicode="Q" horiz-adv-x="718" d="M 508.58333333333337,-192.08333333333334 L 568.4166666666666,-192.08333333333334 L 568.4166666666666,-76.25 L 448.75000000000006,-192.08333333333334 L 388.9166666666667,-192.08333333333334 L 329.08333333333337,-192.08333333333334 L 329.08333333333337,-76.25 L 269.25,-76.25 L 209.41666666666666,-76.25 L 209.41666666666666,39.583333333333314 L 149.58333333333334,39.583333333333314 L 89.75,39.583333333333314 L 89.75,155.41666666666669 L 29.916666666666668,155.41666666666669 L 29.916666666666668,271.25 L 29.916666666666668,387.08333333333326 L 89.75,387.08333333333326 L 89.75,502.91666666666663 L 149.58333333333334,502.91666666666663 L 149.58333333333334,618.7499999999999 L 209.41666666666666,618.7499999999999 L 269.25,618.7499999999999 L 329.08333333333337,618.7499999999999 L 388.9166666666667,618.7499999999999 L 448.75000000000006,618.7499999999999 L 508.58333333333337,618.7499999999999 L 568.4166666666666,618.7499999999999 L 628.25,618.7499999999999 L 628.25,502.91666666666663 L 688.0833333333334,502.91666666666663 L 688.0833333333334,387.08333333333326 L 688.0833333333334,271.25 L 628.25,271.25 L 628.25,155.41666666666669 L 568.4166666666666,155.41666666666669 L 568.4166666666666,39.583333333333314 L 508.58333333333337,39.583333333333314 L 448.75000000000006,39.583333333333314 L 388.9166666666667,39.583333333333314 L 329.08333333333337,39.583333333333314 L 269.25,39.583333333333314 L 388.9166666666667,-76.25 L 448.75000000000006,-76.25 L 508.58333333333337,-192.08333333333334zM 149.58333333333334,271.25 L 149.58333333333334,155.41666666666669 L 149.58333333333334,39.583333333333314 L 209.41666666666666,39.583333333333314 L 269.25,39.583333333333314 L 329.08333333333337,39.583333333333314 L 388.9166666666667,39.583333333333314 L 448.75000000000006,39.583333333333314 L 448.75000000000006,155.41666666666669 L 508.58333333333337,155.41666666666669 L 508.58333333333337,271.25 L 568.4166666666666,271.25 L 568.4166666666666,387.08333333333326 L 568.4166666666666,502.91666666666663 L 508.58333333333337,502.91666666666663 L 508.58333333333337,618.7499999999999 L 448.75000000000006,618.7499999999999 L 388.9166666666667,618.7499999999999 L 329.08333333333337,618.7499999999999 L 269.25,618.7499999999999 L 269.25,502.91666666666663 L 209.41666666666666,502.91666666666663 L 149.58333333333334,387.08333333333326 L 149.58333333333334,271.25zz"/>
    <glyph glyph-name="R" unicode="R" horiz-adv-x="687" d="M 429.375,271.25 L 429.375,155.41666666666669 L 486.625,155.41666666666669 L 486.625,39.583333333333314 L 543.875,39.583333333333314 L 601.125,39.583333333333314 L 658.375,39.583333333333314 L 429.375,39.583333333333314 L 372.125,155.41666666666669 L 372.125,271.25 L 314.875,271.25 L 257.625,271.25 L 200.375,271.25 L 200.375,155.41666666666669 L 143.125,155.41666666666669 L 143.125,39.583333333333314 L 200.375,39.583333333333314 L 257.625,39.583333333333314 L 85.875,39.583333333333314 L 28.625,39.583333333333314 L 85.875,155.41666666666669 L 85.875,271.25 L 143.125,271.25 L 143.125,387.08333333333326 L 143.125,502.91666666666663 L 143.125,618.7499999999999 L 200.375,618.7499999999999 L 85.875,618.7499999999999 L 257.625,618.7499999999999 L 314.875,618.7499999999999 L 372.125,618.7499999999999 L 429.375,618.7499999999999 L 486.625,618.7499999999999 L 543.875,618.7499999999999 L 543.875,502.91666666666663 L 601.125,502.91666666666663 L 543.875,387.08333333333326 L 486.625,387.08333333333326 L 429.375,387.08333333333326 L 429.375,271.25zM 200.375,271.25 L 257.625,271.25 L 314.875,271.25 L 372.125,387.08333333333326 L 429.375,387.08333333333326 L 486.625,387.08333333333326 L 486.625,502.91666666666663 L 486.625,618.7499999999999 L 429.375,618.7499999999999 L 372.125,618.7499999999999 L 314.875,618.7499999999999 L 257.625,618.7499999999999 L 257.625,502.91666666666663 L 257.625,387.08333333333326 L 200.375,387.08333333333326 L 200.375,271.25zz"/>
    <glyph glyph-name="S" unicode="S" horiz-adv-x="531" d="M 199.125,39.583333333333314 L 154.875,39.583333333333314 L 110.625,39.583333333333314 L 66.375,39.583333333333314 L 22.125,39.583333333333314 L 22.125,155.41666666666669 L 66.375,155.41666666666669 L 110.625,155.41666666666669 L 243.375,39.583333333333314 L 287.625,39.583333333333314 L 331.875,39.583333333333314 L 376.125,39.583333333333314 L 376.125,155.41666666666669 L 376.125,271.25 L 331.875,271.25 L 287.625,271.25 L 243.375,271.25 L 199.125,271.25 L 199.125,387.08333333333326 L 154.875,387.08333333333326 L 110.625,387.08333333333326 L 110.625,502.91666666666663 L 154.875,502.91666666666663 L 154.875,618.7499999999999 L 199.125,618.7499999999999 L 243.375,618.7499999999999 L 287.625,618.7499999999999 L 331.875,618.7499999999999 L 376.125,618.7499999999999 L 420.375,618.7499999999999 L 464.625,618.7499999999999 L 508.875,618.7499999999999 L 508.875,502.91666666666663 L 464.625,502.91666666666663 L 420.375,502.91666666666663 L 199.125,502.91666666666663 L 243.375,387.08333333333326 L 287.625,387.08333333333326 L 331.875,387.08333333333326 L 376.125,387.08333333333326 L 420.375,271.25 L 464.625,271.25 L 464.625,155.41666666666669 L 420.375,155.41666666666669 L 420.375,39.583333333333314 L 199.125,39.583333333333314zz"/>
    <glyph glyph-name="T" unicode="T" horiz-adv-x="619" d="M 335.2916666666667,618.7499999999999 L 386.87500000000006,618.7499999999999 L 438.45833333333337,618.7499999999999 L 490.0416666666667,618.7499999999999 L 541.625,618.7499999999999 L 593.2083333333334,618.7499999999999 L 593.2083333333334,502.91666666666663 L 541.625,502.91666666666663 L 386.87500000000006,502.91666666666663 L 335.2916666666667,387.08333333333326 L 335.2916666666667,271.25 L 335.2916666666667,155.41666666666669 L 283.70833333333337,155.41666666666669 L 283.70833333333337,39.583333333333314 L 335.2916666666667,39.583333333333314 L 386.87500000000006,39.583333333333314 L 232.125,39.583333333333314 L 180.54166666666666,39.583333333333314 L 128.95833333333334,39.583333333333314 L 232.125,155.41666666666669 L 232.125,271.25 L 232.125,387.08333333333326 L 283.70833333333337,387.08333333333326 L 283.70833333333337,502.91666666666663 L 283.70833333333337,618.7499999999999 L 232.125,618.7499999999999 L 180.54166666666666,618.7499999999999 L 128.95833333333334,618.7499999999999 L 128.95833333333334,502.91666666666663 L 77.375,502.91666666666663 L 25.791666666666668,502.91666666666663 L 77.375,618.7499999999999 L 335.2916666666667,618.7499999999999zz"/>
    <glyph glyph-name="U" unicode="U" horiz-adv-x="806" d="M 570.9166666666667,618.7499999999999 L 638.0833333333334,618.7499999999999 L 705.2500000000001,618.7499999999999 L 772.4166666666667,618.7499999999999 L 705.2500000000001,502.91666666666663 L 638.0833333333334,502.91666666666663 L 638.0833333333334,387.08333333333326 L 638.0833333333334,271.25 L 638.0833333333334,155.41666666666669 L 570.9166666666667,155.41666666666669 L 570.9166666666667,39.583333333333314 L 503.75,39.583333333333314 L 436.5833333333333,39.583333333333314 L 369.4166666666667,39.583333333333314 L 302.25,39.583333333333314 L 235.08333333333334,39.583333333333314 L 167.91666666666669,39.583333333333314 L 100.75,39.583333333333314 L 100.75,155.41666666666669 L 100.75,271.25 L 100.75,387.08333333333326 L 167.91666666666669,387.08333333333326 L 167.91666666666669,502.91666666666663 L 167.91666666666669,618.7499999999999 L 100.75,618.7499999999999 L 235.08333333333334,618.7499999999999 L 302.25,618.7499999999999 L 369.4166666666667,618.7499999999999 L 235.08333333333334,502.91666666666663 L 235.08333333333334,387.08333333333326 L 235.08333333333334,271.25 L 167.91666666666669,271.25 L 167.91666666666669,155.41666666666669 L 235.08333333333334,155.41666666666669 L 503.75,155.41666666666669 L 570.9166666666667,271.25 L 570.9166666666667,387.08333333333326 L 570.9166666666667,618.7499999999999zz"/>
    <glyph glyph-name="V" unicode="V" horiz-adv-x="709" d="M 679.4583333333334,618.7499999999999 L 620.375,618.7499999999999 L 620.375,502.91666666666663 L 561.2916666666666,502.91666666666663 L 561.2916666666666,387.08333333333326 L 502.20833333333337,387.08333333333326 L 502.20833333333337,271.25 L 443.12500000000006,271.25 L 443.12500000000006,155.41666666666669 L 384.0416666666667,155.41666666666669 L 384.0416666666667,39.583333333333314 L 324.95833333333337,39.583333333333314 L 265.875,39.583333333333314 L 206.79166666666666,39.583333333333314 L 206.79166666666666,155.41666666666669 L 206.79166666666666,271.25 L 206.79166666666666,387.08333333333326 L 147.70833333333334,387.08333333333326 L 147.70833333333334,502.91666666666663 L 147.70833333333334,618.7499999999999 L 88.625,618.7499999999999 L 29.541666666666668,618.7499999999999 L 206.79166666666666,618.7499999999999 L 265.875,618.7499999999999 L 324.95833333333337,618.7499999999999 L 206.79166666666666,502.91666666666663 L 265.875,502.91666666666663 L 265.875,387.08333333333326 L 265.875,271.25 L 265.875,155.41666666666669 L 324.95833333333337,155.41666666666669 L 384.0416666666667,271.25 L 443.12500000000006,387.08333333333326 L 502.20833333333337,502.91666666666663 L 561.2916666666666,618.7499999999999 L 502.20833333333337,618.7499999999999 L 679.4583333333334,618.7499999999999zz"/>
    <glyph glyph-name="a" unicode="a" horiz-adv-x="541" d="M 473.37500000000006,155.41666666666669 L 473.37500000000006,39.583333333333314 L 518.4583333333334,39.583333333333314 L 428.2916666666667,39.583333333333314 L 383.20833333333337,39.583333333333314 L 338.12500000000006,39.583333333333314 L 293.0416666666667,39.583333333333314 L 293.0416666666667,155.41666666666669 L 338.12500000000006,155.41666666666669 L 338.12500000000006,271.25 L 383.20833333333337,271.25 L 383.20833333333337,387.08333333333326 L 293.0416666666667,271.25 L 247.95833333333334,155.41666666666669 L 247.95833333333334,39.583333333333314 L 202.875,39.583333333333314 L 157.79166666666666,39.583333333333314 L 112.70833333333334,39.583333333333314 L 67.625,39.583333333333314 L 22.541666666666668,39.583333333333314 L 22.541666666666668,155.41666666666669 L 67.625,271.25 L 67.625,387.08333333333326 L 112.70833333333334,387.08333333333326 L 157.79166666666666,387.08333333333326 L 157.79166666666666,502.91666666666663 L 202.875,502.91666666666663 L 247.95833333333334,502.91666666666663 L 293.0416666666667,502.91666666666663 L 338.12500000000006,502.91666666666663 L 383.20833333333337,502.91666666666663 L 428.2916666666667,502.91666666666663 L 473.37500000000006,502.91666666666663 L 428.2916666666667,387.08333333333326 L 428.2916666666667,271.25 L 383.20833333333337,155.41666666666669 L 473.37500000000006,155.41666666666669zM 202.875,39.583333333333314 L 202.875,155.41666666666669 L 247.95833333333334,155.41666666666669 L 293.0416666666667,155.41666666666669 L 293.0416666666667,271.25 L 338.12500000000006,271.25 L 338.12500000000006,387.08333333333326 L 383.20833333333337,387.08333333333326 L 338.12500000000006,502.91666666666663 L 293.0416666666667,502.91666666666663 L 247.95833333333334,502.91666666666663 L 247.95833333333334,387.08333333333326 L 202.875,387.08333333333326 L 157.79166666666666,387.08333333333326 L 157.79166666666666,271.25 L 112.70833333333334,271.25 L 112.70833333333334,155.41666666666669 L 112.70833333333334,39.583333333333314 L 157.79166666666666,39.583333333333314 L 202.875,39.583333333333314zz"/>
    <glyph glyph-name="b" unicode="b" horiz-adv-x="529" d="M 330.62500000000006,502.91666666666663 L 374.70833333333337,502.91666666666663 L 418.7916666666667,502.91666666666663 L 462.87500000000006,502.91666666666663 L 462.87500000000006,387.08333333333326 L 506.95833333333337,387.08333333333326 L 506.95833333333337,271.25 L 462.87500000000006,271.25 L 462.87500000000006,155.41666666666669 L 418.7916666666667,155.41666666666669 L 374.70833333333337,155.41666666666669 L 374.70833333333337,39.583333333333314 L 330.62500000000006,39.583333333333314 L 286.5416666666667,39.583333333333314 L 242.45833333333334,39.583333333333314 L 198.375,39.583333333333314 L 154.29166666666666,39.583333333333314 L 110.20833333333334,39.583333333333314 L 66.125,39.583333333333314 L 66.125,155.41666666666669 L 66.125,271.25 L 110.20833333333334,271.25 L 110.20833333333334,387.08333333333326 L 110.20833333333334,502.91666666666663 L 154.29166666666666,502.91666666666663 L 154.29166666666666,618.7499999999999 L 110.20833333333334,618.7499999999999 L 66.125,618.7499999999999 L 66.125,734.5833333333333 L 110.20833333333334,734.5833333333333 L 154.29166666666666,734.5833333333333 L 198.375,734.5833333333333 L 242.45833333333334,734.5833333333333 L 242.45833333333334,618.7499999999999 L 198.375,618.7499999999999 L 198.375,502.91666666666663 L 198.375,387.08333333333326 L 154.29166666666666,387.08333333333326 L 154.29166666666666,271.25 L 154.29166666666666,155.41666666666669 L 198.375,155.41666666666669 L 198.375,271.25 L 242.45833333333334,271.25 L 242.45833333333334,387.08333333333326 L 286.5416666666667,387.08333333333326 L 286.5416666666667,502.91666666666663 L 330.62500000000006,502.91666666666663zM 286.5416666666667,39.583333333333314 L 330.62500000000006,39.583333333333314 L 330.62500000000006,155.41666666666669 L 374.70833333333337,155.41666666666669 L 374.70833333333337,271.25 L 418.7916666666667,271.25 L 418.7916666666667,387.08333333333326 L 374.70833333333337,387.08333333333326 L 330.62500000000006,387.08333333333326 L 286.5416666666667,387.08333333333326 L 286.5416666666667,271.25 L 242.45833333333334,271.25 L 198.375,271.25 L 198.375,155.41666666666669 L 154.29166666666666,155.41666666666669 L 154.29166666666666,39.583333333333314 L 198.375,39.583333333333314 L 242.45833333333334,39.583333333333314 L 286.5416666666667,39.583333333333314zz"/>
    <glyph glyph-name="c" unicode="c" horiz-adv-x="403" d="M 218.29166666666666,502.91666666666663 L 218.29166666666666,387.08333333333326 L 184.70833333333334,387.08333333333326 L 151.125,387.08333333333326 L 151.125,271.25 L 117.54166666666667,271.25 L 117.54166666666667,155.41666666666669 L 117.54166666666667,39.583333333333314 L 151.125,39.583333333333314 L 184.70833333333334,39.583333333333314 L 218.29166666666666,39.583333333333314 L 251.875,39.583333333333314 L 285.45833333333337,39.583333333333314 L 319.0416666666667,39.583333333333314 L 83.95833333333334,39.583333333333314 L 50.375,39.583333333333314 L 50.375,155.41666666666669 L 16.791666666666668,155.41666666666669 L 50.375,271.25 L 83.95833333333334,271.25 L 83.95833333333334,387.08333333333326 L 117.54166666666667,387.08333333333326 L 151.125,502.91666666666663 L 184.70833333333334,502.91666666666663 L 251.875,502.91666666666663 L 285.45833333333337,502.91666666666663 L 319.0416666666667,502.91666666666663 L 352.62500000000006,502.91666666666663 L 386.20833333333337,502.91666666666663 L 386.20833333333337,387.08333333333326 L 352.62500000000006,387.08333333333326 L 319.0416666666667,387.08333333333326 L 218.29166666666666,502.91666666666663zz"/>
    <glyph glyph-name="d" unicode="d" horiz-adv-x="550" d="M 481.25000000000006,155.41666666666669 L 481.25000000000006,39.583333333333314 L 527.0833333333334,39.583333333333314 L 435.4166666666667,39.583333333333314 L 389.58333333333337,39.583333333333314 L 343.75000000000006,39.583333333333314 L 297.9166666666667,39.583333333333314 L 297.9166666666667,155.41666666666669 L 343.75000000000006,155.41666666666669 L 343.75000000000006,271.25 L 389.58333333333337,271.25 L 389.58333333333337,387.08333333333326 L 297.9166666666667,271.25 L 252.08333333333334,155.41666666666669 L 252.08333333333334,39.583333333333314 L 206.25,39.583333333333314 L 160.41666666666666,39.583333333333314 L 114.58333333333334,39.583333333333314 L 68.75,39.583333333333314 L 22.916666666666668,39.583333333333314 L 22.916666666666668,155.41666666666669 L 22.916666666666668,271.25 L 68.75,271.25 L 68.75,387.08333333333326 L 114.58333333333334,387.08333333333326 L 160.41666666666666,387.08333333333326 L 160.41666666666666,502.91666666666663 L 206.25,502.91666666666663 L 252.08333333333334,502.91666666666663 L 297.9166666666667,502.91666666666663 L 343.75000000000006,502.91666666666663 L 389.58333333333337,502.91666666666663 L 389.58333333333337,618.7499999999999 L 435.4166666666667,618.7499999999999 L 343.75000000000006,618.7499999999999 L 297.9166666666667,618.7499999999999 L 297.9166666666667,734.5833333333333 L 343.75000000000006,734.5833333333333 L 389.58333333333337,734.5833333333333 L 435.4166666666667,734.5833333333333 L 481.25000000000006,734.5833333333333 L 481.25000000000006,618.7499999999999 L 481.25000000000006,502.91666666666663 L 435.4166666666667,502.91666666666663 L 435.4166666666667,387.08333333333326 L 435.4166666666667,271.25 L 435.4166666666667,155.41666666666669 L 389.58333333333337,155.41666666666669 L 481.25000000000006,155.41666666666669zM 206.25,39.583333333333314 L 206.25,155.41666666666669 L 252.08333333333334,155.41666666666669 L 252.08333333333334,271.25 L 297.9166666666667,271.25 L 343.75000000000006,271.25 L 343.75000000000006,387.08333333333326 L 389.58333333333337,387.08333333333326 L 343.75000000000006,502.91666666666663 L 297.9166666666667,502.91666666666663 L 252.08333333333334,502.91666666666663 L 206.25,502.91666666666663 L 206.25,387.08333333333326 L 160.41666666666666,387.08333333333326 L 160.41666666666666,271.25 L 114.58333333333334,271.25 L 114.58333333333334,155.41666666666669 L 114.58333333333334,39.583333333333314 L 160.41666666666666,39.583333333333314 L 206.25,39.583333333333314zz"/>
    <glyph glyph-name="e" unicode="e" horiz-adv-x="413" d="M 395.79166666666663,387.08333333333326 L 361.37499999999994,387.08333333333326 L 361.37499999999994,271.25 L 326.9583333333333,271.25 L 292.54166666666663,271.25 L 258.125,271.25 L 223.70833333333334,271.25 L 189.29166666666666,271.25 L 154.875,155.41666666666669 L 120.45833333333333,155.41666666666669 L 120.45833333333333,39.583333333333314 L 154.875,39.583333333333314 L 189.29166666666666,39.583333333333314 L 223.70833333333334,39.583333333333314 L 258.125,39.583333333333314 L 292.54166666666663,39.583333333333314 L 326.9583333333333,39.583333333333314 L 86.04166666666666,39.583333333333314 L 51.625,39.583333333333314 L 51.625,155.41666666666669 L 17.208333333333332,155.41666666666669 L 51.625,271.25 L 86.04166666666666,271.25 L 86.04166666666666,387.08333333333326 L 120.45833333333333,387.08333333333326 L 154.875,387.08333333333326 L 154.875,502.91666666666663 L 189.29166666666666,502.91666666666663 L 223.70833333333334,502.91666666666663 L 258.125,502.91666666666663 L 292.54166666666663,502.91666666666663 L 326.9583333333333,502.91666666666663 L 361.37499999999994,502.91666666666663 L 395.79166666666663,502.91666666666663 L 395.79166666666663,387.08333333333326zM 223.70833333333334,502.91666666666663 L 223.70833333333334,387.08333333333326 L 189.29166666666666,387.08333333333326 L 154.875,387.08333333333326 L 120.45833333333333,387.08333333333326 L 120.45833333333333,271.25 L 154.875,271.25 L 189.29166666666666,271.25 L 223.70833333333334,271.25 L 258.125,271.25 L 292.54166666666663,387.08333333333326 L 326.9583333333333,387.08333333333326 L 292.54166666666663,502.91666666666663 L 258.125,502.91666666666663 L 223.70833333333334,502.91666666666663zz"/>
    <glyph glyph-name="f" unicode="f" horiz-adv-x="327" d="M 313.375,734.5833333333333 L 286.125,734.5833333333333 L 258.875,734.5833333333333 L 258.875,618.7499999999999 L 231.625,618.7499999999999 L 231.625,502.91666666666663 L 258.875,502.91666666666663 L 286.125,502.91666666666663 L 313.375,502.91666666666663 L 204.375,502.91666666666663 L 204.375,387.08333333333326 L 204.375,271.25 L 177.125,271.25 L 177.125,155.41666666666669 L 177.125,39.583333333333314 L 149.875,39.583333333333314 L 149.875,-76.25 L 122.625,-76.25 L 122.625,-192.08333333333334 L 95.375,-192.08333333333334 L 68.125,-192.08333333333334 L 40.875,-192.08333333333334 L 68.125,-76.25 L 68.125,39.583333333333314 L 95.375,39.583333333333314 L 95.375,155.41666666666669 L 122.625,155.41666666666669 L 122.625,271.25 L 122.625,387.08333333333326 L 149.875,387.08333333333326 L 149.875,502.91666666666663 L 122.625,502.91666666666663 L 95.375,502.91666666666663 L 68.125,502.91666666666663 L 40.875,502.91666666666663 L 177.125,502.91666666666663 L 177.125,618.7499999999999 L 204.375,618.7499999999999 L 204.375,734.5833333333333 L 231.625,734.5833333333333 L 313.375,734.5833333333333zz"/>
    <glyph glyph-name="g" unicode="g" horiz-adv-x="456" d="M 437.0,502.91666666666663 L 437.0,387.08333333333326 L 399.0,502.91666666666663 L 361.0,502.91666666666663 L 361.0,387.08333333333326 L 399.0,387.08333333333326 L 399.0,271.25 L 361.0,271.25 L 323.0,271.25 L 323.0,155.41666666666669 L 285.0,155.41666666666669 L 247.0,155.41666666666669 L 209.0,155.41666666666669 L 171.0,155.41666666666669 L 133.0,155.41666666666669 L 95.0,155.41666666666669 L 133.0,39.583333333333314 L 171.0,39.583333333333314 L 209.0,39.583333333333314 L 247.0,39.583333333333314 L 285.0,39.583333333333314 L 285.0,-76.25 L 323.0,-76.25 L 323.0,-192.08333333333334 L 285.0,-192.08333333333334 L 247.0,-192.08333333333334 L 209.0,-192.08333333333334 L 171.0,-192.08333333333334 L 133.0,-192.08333333333334 L 95.0,-192.08333333333334 L 57.0,-192.08333333333334 L 19.0,-192.08333333333334 L 19.0,-76.25 L 247.0,-76.25 L 209.0,-76.25 L 171.0,-76.25 L 95.0,39.583333333333314 L 57.0,39.583333333333314 L 57.0,155.41666666666669 L 95.0,271.25 L 57.0,271.25 L 57.0,387.08333333333326 L 95.0,387.08333333333326 L 133.0,387.08333333333326 L 133.0,502.91666666666663 L 171.0,502.91666666666663 L 209.0,502.91666666666663 L 247.0,502.91666666666663 L 285.0,502.91666666666663 L 323.0,502.91666666666663 L 437.0,502.91666666666663zM 247.0,155.41666666666669 L 247.0,271.25 L 285.0,271.25 L 323.0,271.25 L 323.0,387.08333333333326 L 285.0,387.08333333333326 L 285.0,502.91666666666663 L 247.0,502.91666666666663 L 209.0,502.91666666666663 L 209.0,387.08333333333326 L 171.0,387.08333333333326 L 133.0,387.08333333333326 L 133.0,271.25 L 171.0,271.25 L 171.0,155.41666666666669 L 209.0,155.41666666666669 L 247.0,155.41666666666669zz"/>
    <glyph glyph-name="h" unicode="h" horiz-adv-x="540" d="M 472.5,155.41666666666669 L 472.5,39.583333333333314 L 517.5,39.583333333333314 L 427.5,39.583333333333314 L 382.5,39.583333333333314 L 337.5,39.583333333333314 L 292.5,39.583333333333314 L 337.5,155.41666666666669 L 337.5,271.25 L 382.5,271.25 L 382.5,387.08333333333326 L 337.5,387.08333333333326 L 292.5,387.08333333333326 L 247.5,387.08333333333326 L 247.5,271.25 L 202.5,271.25 L 202.5,155.41666666666669 L 157.5,155.41666666666669 L 157.5,39.583333333333314 L 112.5,39.583333333333314 L 67.5,39.583333333333314 L 22.5,39.583333333333314 L 67.5,155.41666666666669 L 67.5,271.25 L 112.5,271.25 L 112.5,387.08333333333326 L 112.5,502.91666666666663 L 157.5,502.91666666666663 L 157.5,618.7499999999999 L 112.5,618.7499999999999 L 67.5,618.7499999999999 L 67.5,734.5833333333333 L 112.5,734.5833333333333 L 157.5,734.5833333333333 L 202.5,734.5833333333333 L 247.5,734.5833333333333 L 247.5,618.7499999999999 L 202.5,618.7499999999999 L 202.5,502.91666666666663 L 202.5,387.08333333333326 L 157.5,387.08333333333326 L 157.5,271.25 L 112.5,155.41666666666669 L 292.5,502.91666666666663 L 337.5,502.91666666666663 L 382.5,502.91666666666663 L 427.5,502.91666666666663 L 427.5,387.08333333333326 L 472.5,387.08333333333326 L 427.5,271.25 L 427.5,155.41666666666669 L 382.5,155.41666666666669 L 472.5,155.41666666666669zz"/>
    <glyph glyph-name="i" unicode="i" horiz-adv-x="322" d="M 254.91666666666666,734.5833333333333 L 281.75,734.5833333333333 L 308.5833333333333,734.5833333333333 L 308.5833333333333,618.7499999999999 L 281.75,618.7499999999999 L 254.91666666666666,618.7499999999999 L 228.08333333333331,618.7499999999999 L 201.24999999999997,618.7499999999999 L 174.41666666666666,618.7499999999999 L 174.41666666666666,734.5833333333333 L 201.24999999999997,734.5833333333333 L 228.08333333333331,734.5833333333333 L 254.91666666666666,734.5833333333333zM 281.75,155.41666666666669 L 281.75,39.583333333333314 L 254.91666666666666,39.583333333333314 L 228.08333333333331,39.583333333333314 L 201.24999999999997,39.583333333333314 L 174.41666666666666,39.583333333333314 L 147.58333333333331,39.583333333333314 L 120.75,39.583333333333314 L 93.91666666666667,39.583333333333314 L 67.08333333333333,39.583333333333314 L 93.91666666666667,155.41666666666669 L 120.75,155.41666666666669 L 120.75,271.25 L 147.58333333333331,271.25 L 147.58333333333331,387.08333333333326 L 120.75,387.08333333333326 L 93.91666666666667,387.08333333333326 L 67.08333333333333,387.08333333333326 L 40.25,387.08333333333326 L 67.08333333333333,502.91666666666663 L 93.91666666666667,502.91666666666663 L 120.75,502.91666666666663 L 147.58333333333331,502.91666666666663 L 174.41666666666666,502.91666666666663 L 201.24999999999997,502.91666666666663 L 228.08333333333331,502.91666666666663 L 254.91666666666666,502.91666666666663 L 228.08333333333331,387.08333333333326 L 201.24999999999997,387.08333333333326 L 201.24999999999997,271.25 L 201.24999999999997,155.41666666666669 L 174.41666666666666,155.41666666666669 L 254.91666666666666,155.41666666666669 L 281.75,155.41666666666669zz"/>
    <glyph glyph-name="j" unicode="j" horiz-adv-x="295" d="M 258.125,734.5833333333333 L 282.7083333333333,734.5833333333333 L 282.7083333333333,618.7499999999999 L 258.125,618.7499999999999 L 233.54166666666666,618.7499999999999 L 208.95833333333331,618.7499999999999 L 184.37499999999997,618.7499999999999 L 159.79166666666666,734.5833333333333 L 184.37499999999997,734.5833333333333 L 208.95833333333331,734.5833333333333 L 233.54166666666666,734.5833333333333 L 258.125,734.5833333333333zM 159.79166666666666,387.08333333333326 L 135.20833333333331,387.08333333333326 L 110.625,387.08333333333326 L 86.04166666666667,387.08333333333326 L 61.45833333333333,387.08333333333326 L 36.875,387.08333333333326 L 61.45833333333333,502.91666666666663 L 86.04166666666667,502.91666666666663 L 110.625,502.91666666666663 L 135.20833333333331,502.91666666666663 L 159.79166666666666,502.91666666666663 L 184.37499999999997,502.91666666666663 L 208.95833333333331,502.91666666666663 L 233.54166666666666,502.91666666666663 L 233.54166666666666,387.08333333333326 L 208.95833333333331,387.08333333333326 L 208.95833333333331,271.25 L 184.37499999999997,271.25 L 184.37499999999997,155.41666666666669 L 159.79166666666666,155.41666666666669 L 159.79166666666666,39.583333333333314 L 135.20833333333331,39.583333333333314 L 135.20833333333331,-76.25 L 110.625,-76.25 L 110.625,-192.08333333333334 L 86.04166666666667,-192.08333333333334 L 61.45833333333333,-192.08333333333334 L 36.875,-192.08333333333334 L 12.291666666666666,-192.08333333333334 L 12.291666666666666,-76.25 L 61.45833333333333,-76.25 L 86.04166666666667,-76.25 L 86.04166666666667,39.583333333333314 L 86.04166666666667,155.41666666666669 L 110.625,155.41666666666669 L 110.625,271.25 L 135.20833333333331,271.25 L 159.79166666666666,387.08333333333326zz"/>
    <glyph glyph-name="l" unicode="l" horiz-adv-x="284" d="M 130.16666666666669,39.583333333333314 L 153.83333333333334,39.583333333333314 L 177.50000000000003,39.583333333333314 L 201.16666666666669,39.583333333333314 L 224.83333333333334,39.583333333333314 L 224.83333333333334,155.41666666666669 L 248.50000000000003,39.583333333333314 L 106.5,39.583333333333314 L 82.83333333333333,39.583333333333314 L 59.16666666666667,39.583333333333314 L 35.5,39.583333333333314 L 59.16666666666667,155.41666666666669 L 82.83333333333333,155.41666666666669 L 82.83333333333333,271.25 L 106.5,271.25 L 106.5,387.08333333333326 L 130.16666666666669,502.91666666666663 L 130.16666666666669,618.7499999999999 L 153.83333333333334,618.7499999999999 L 106.5,618.7499999999999 L 82.83333333333333,618.7499999999999 L 59.16666666666667,618.7499999999999 L 59.16666666666667,734.5833333333333 L 82.83333333333333,734.5833333333333 L 106.5,734.5833333333333 L 130.16666666666669,734.5833333333333 L 153.83333333333334,734.5833333333333 L 177.50000000000003,734.5833333333333 L 201.16666666666669,734.5833333333333 L 224.83333333333334,734.5833333333333 L 248.50000000000003,734.5833333333333 L 224.83333333333334,618.7499999999999 L 201.16666666666669,502.91666666666663 L 201.16666666666669,387.08333333333326 L 177.50000000000003,387.08333333333326 L 177.50000000000003,271.25 L 153.83333333333334,271.25 L 153.83333333333334,155.41666666666669 L 130.16666666666669,155.41666666666669 L 130.16666666666669,39.583333333333314zz"/>
    <glyph glyph-name="m" unicode="m" horiz-adv-x="846" d="M 810.75,155.41666666666669 L 810.75,39.583333333333314 L 740.25,39.583333333333314 L 669.75,39.583333333333314 L 599.25,39.583333333333314 L 599.25,155.41666666666669 L 669.75,155.41666666666669 L 669.75,271.25 L 669.75,387.08333333333326 L 599.25,387.08333333333326 L 599.25,271.25 L 528.75,271.25 L 528.75,155.41666666666669 L 458.25,155.41666666666669 L 458.25,39.583333333333314 L 387.75,39.583333333333314 L 317.25,39.583333333333314 L 387.75,155.41666666666669 L 387.75,271.25 L 387.75,387.08333333333326 L 317.25,387.08333333333326 L 317.25,271.25 L 246.75,271.25 L 246.75,155.41666666666669 L 176.25,155.41666666666669 L 176.25,39.583333333333314 L 105.75,39.583333333333314 L 105.75,155.41666666666669 L 105.75,271.25 L 105.75,387.08333333333326 L 176.25,387.08333333333326 L 35.25,387.08333333333326 L 35.25,502.91666666666663 L 105.75,502.91666666666663 L 176.25,502.91666666666663 L 246.75,502.91666666666663 L 246.75,387.08333333333326 L 176.25,271.25 L 317.25,502.91666666666663 L 387.75,502.91666666666663 L 458.25,502.91666666666663 L 458.25,387.08333333333326 L 458.25,271.25 L 528.75,387.08333333333326 L 599.25,502.91666666666663 L 669.75,502.91666666666663 L 740.25,502.91666666666663 L 740.25,387.08333333333326 L 740.25,271.25 L 740.25,155.41666666666669 L 810.75,155.41666666666669zz"/>
    <glyph glyph-name="n" unicode="n" horiz-adv-x="576" d="M 504.0,155.41666666666669 L 504.0,39.583333333333314 L 552.0,39.583333333333314 L 456.0,39.583333333333314 L 408.0,39.583333333333314 L 360.0,39.583333333333314 L 312.0,39.583333333333314 L 360.0,155.41666666666669 L 360.0,271.25 L 408.0,271.25 L 408.0,387.08333333333326 L 360.0,387.08333333333326 L 312.0,387.08333333333326 L 312.0,271.25 L 264.0,271.25 L 264.0,155.41666666666669 L 216.0,155.41666666666669 L 168.0,39.583333333333314 L 120.0,39.583333333333314 L 72.0,39.583333333333314 L 120.0,155.41666666666669 L 120.0,271.25 L 120.0,387.08333333333326 L 168.0,387.08333333333326 L 72.0,387.08333333333326 L 24.0,387.08333333333326 L 72.0,502.91666666666663 L 120.0,502.91666666666663 L 168.0,502.91666666666663 L 216.0,502.91666666666663 L 264.0,502.91666666666663 L 216.0,387.08333333333326 L 216.0,271.25 L 168.0,271.25 L 168.0,155.41666666666669 L 264.0,387.08333333333326 L 312.0,502.91666666666663 L 360.0,502.91666666666663 L 408.0,502.91666666666663 L 456.0,502.91666666666663 L 504.0,502.91666666666663 L 504.0,387.08333333333326 L 504.0,271.25 L 456.0,271.25 L 456.0,155.41666666666669 L 408.0,155.41666666666669 L 504.0,155.41666666666669zz"/>
    <glyph glyph-name="o" unicode="o" horiz-adv-x="476" d="M 178.5,39.583333333333314 L 138.83333333333334,39.583333333333314 L 99.16666666666666,39.583333333333314 L 59.5,39.583333333333314 L 59.5,155.41666666666669 L 19.833333333333332,155.41666666666669 L 19.833333333333332,271.25 L 59.5,271.25 L 59.5,387.08333333333326 L 99.16666666666666,387.08333333333326 L 138.83333333333334,387.08333333333326 L 138.83333333333334,502.91666666666663 L 178.5,502.91666666666663 L 218.16666666666666,502.91666666666663 L 257.8333333333333,502.91666666666663 L 297.49999999999994,502.91666666666663 L 337.16666666666663,502.91666666666663 L 376.8333333333333,502.91666666666663 L 416.49999999999994,387.08333333333326 L 416.49999999999994,271.25 L 416.49999999999994,155.41666666666669 L 376.8333333333333,155.41666666666669 L 376.8333333333333,39.583333333333314 L 337.16666666666663,39.583333333333314 L 297.49999999999994,39.583333333333314 L 257.8333333333333,39.583333333333314 L 218.16666666666666,39.583333333333314 L 178.5,39.583333333333314zM 218.16666666666666,39.583333333333314 L 257.8333333333333,39.583333333333314 L 297.49999999999994,39.583333333333314 L 297.49999999999994,155.41666666666669 L 337.16666666666663,155.41666666666669 L 337.16666666666663,271.25 L 337.16666666666663,387.08333333333326 L 297.49999999999994,387.08333333333326 L 297.49999999999994,502.91666666666663 L 257.8333333333333,502.91666666666663 L 218.16666666666666,502.91666666666663 L 218.16666666666666,387.08333333333326 L 178.5,387.08333333333326 L 138.83333333333334,387.08333333333326 L 138.83333333333334,271.25 L 138.83333333333334,155.41666666666669 L 138.83333333333334,39.583333333333314 L 178.5,39.583333333333314 L 218.16666666666666,39.583333333333314zz"/>
    <glyph glyph-name="p" unicode="p" horiz-adv-x="498" d="M 311.25,502.91666666666663 L 352.75,502.91666666666663 L 394.25,502.91666666666663 L 435.75,502.91666666666663 L 435.75,387.08333333333326 L 477.25,387.08333333333326 L 477.25,271.25 L 435.75,271.25 L 435.75,155.41666666666669 L 394.25,155.41666666666669 L 352.75,155.41666666666669 L 352.75,39.583333333333314 L 311.25,39.583333333333314 L 269.75,39.583333333333314 L 228.25,39.583333333333314 L 186.75,39.583333333333314 L 145.25,39.583333333333314 L 103.75,39.583333333333314 L 103.75,-76.25 L 103.75,-192.08333333333334 L 62.25,-192.08333333333334 L 20.75,-192.08333333333334 L 20.75,-76.25 L 62.25,-76.25 L 62.25,39.583333333333314 L 62.25,155.41666666666669 L 103.75,155.41666666666669 L 103.75,271.25 L 62.25,271.25 L 20.75,271.25 L 20.75,155.41666666666669 L 103.75,387.08333333333326 L 145.25,387.08333333333326 L 145.25,502.91666666666663 L 145.25,618.7499999999999 L 186.75,618.7499999999999 L 228.25,618.7499999999999 L 228.25,502.91666666666663 L 186.75,502.91666666666663 L 186.75,387.08333333333326 L 228.25,387.08333333333326 L 269.75,502.91666666666663 L 311.25,502.91666666666663zM 269.75,39.583333333333314 L 311.25,39.583333333333314 L 311.25,155.41666666666669 L 352.75,155.41666666666669 L 352.75,271.25 L 394.25,271.25 L 394.25,387.08333333333326 L 352.75,387.08333333333326 L 311.25,387.08333333333326 L 269.75,387.08333333333326 L 228.25,387.08333333333326 L 186.75,387.08333333333326 L 186.75,271.25 L 145.25,271.25 L 145.25,155.41666666666669 L 145.25,39.583333333333314 L 186.75,39.583333333333314 L 228.25,39.583333333333314 L 269.75,39.583333333333314zz"/>
    <glyph glyph-name="q" unicode="q" horiz-adv-x="500" d="M 437.49999999999994,502.91666666666663 L 437.49999999999994,387.08333333333326 L 437.49999999999994,271.25 L 395.8333333333333,271.25 L 395.8333333333333,155.41666666666669 L 354.16666666666663,155.41666666666669 L 354.16666666666663,39.583333333333314 L 354.16666666666663,-76.25 L 312.49999999999994,-76.25 L 312.49999999999994,-192.08333333333334 L 354.16666666666663,-192.08333333333334 L 395.8333333333333,-192.08333333333334 L 270.8333333333333,-192.08333333333334 L 229.16666666666666,-192.08333333333334 L 187.5,-192.08333333333334 L 145.83333333333334,-192.08333333333334 L 270.8333333333333,-76.25 L 270.8333333333333,39.583333333333314 L 312.49999999999994,39.583333333333314 L 312.49999999999994,155.41666666666669 L 312.49999999999994,271.25 L 354.16666666666663,271.25 L 354.16666666666663,387.08333333333326 L 270.8333333333333,155.41666666666669 L 229.16666666666666,39.583333333333314 L 187.5,39.583333333333314 L 145.83333333333334,39.583333333333314 L 104.16666666666666,39.583333333333314 L 62.5,39.583333333333314 L 20.833333333333332,39.583333333333314 L 20.833333333333332,155.41666666666669 L 20.833333333333332,271.25 L 62.5,271.25 L 104.16666666666666,387.08333333333326 L 145.83333333333334,387.08333333333326 L 187.5,387.08333333333326 L 187.5,502.91666666666663 L 229.16666666666666,502.91666666666663 L 270.8333333333333,502.91666666666663 L 312.49999999999994,502.91666666666663 L 354.16666666666663,502.91666666666663 L 395.8333333333333,502.91666666666663 L 437.49999999999994,502.91666666666663zM 187.5,39.583333333333314 L 187.5,155.41666666666669 L 229.16666666666666,155.41666666666669 L 270.8333333333333,155.41666666666669 L 270.8333333333333,271.25 L 312.49999999999994,271.25 L 312.49999999999994,387.08333333333326 L 354.16666666666663,387.08333333333326 L 395.8333333333333,387.08333333333326 L 312.49999999999994,502.91666666666663 L 270.8333333333333,502.91666666666663 L 229.16666666666666,502.91666666666663 L 229.16666666666666,387.08333333333326 L 187.5,387.08333333333326 L 145.83333333333334,387.08333333333326 L 145.83333333333334,271.25 L 104.16666666666666,271.25 L 104.16666666666666,155.41666666666669 L 145.83333333333334,155.41666666666669 L 145.83333333333334,39.583333333333314 L 187.5,39.583333333333314zz"/>
    <glyph glyph-name="r" unicode="r" horiz-adv-x="439" d="M 347.5416666666667,502.91666666666663 L 384.12500000000006,502.91666666666663 L 420.70833333333337,502.91666666666663 L 420.70833333333337,387.08333333333326 L 384.12500000000006,387.08333333333326 L 347.5416666666667,387.08333333333326 L 310.95833333333337,387.08333333333326 L 310.95833333333337,271.25 L 274.37500000000006,271.25 L 237.79166666666666,271.25 L 237.79166666666666,155.41666666666669 L 201.20833333333334,155.41666666666669 L 201.20833333333334,39.583333333333314 L 164.625,39.583333333333314 L 128.04166666666666,39.583333333333314 L 91.45833333333334,39.583333333333314 L 91.45833333333334,155.41666666666669 L 128.04166666666666,155.41666666666669 L 128.04166666666666,271.25 L 128.04166666666666,387.08333333333326 L 164.625,387.08333333333326 L 91.45833333333334,387.08333333333326 L 54.875,387.08333333333326 L 54.875,502.91666666666663 L 91.45833333333334,502.91666666666663 L 128.04166666666666,502.91666666666663 L 164.625,502.91666666666663 L 201.20833333333334,502.91666666666663 L 237.79166666666666,502.91666666666663 L 237.79166666666666,387.08333333333326 L 201.20833333333334,387.08333333333326 L 201.20833333333334,271.25 L 164.625,155.41666666666669 L 274.37500000000006,387.08333333333326 L 310.95833333333337,502.91666666666663 L 347.5416666666667,502.91666666666663zz"/>
    <glyph glyph-name="s" unicode="s" horiz-adv-x="409" d="M 17.041666666666668,39.583333333333314 L 17.041666666666668,155.41666666666669 L 51.125,155.41666666666669 L 85.20833333333334,155.41666666666669 L 85.20833333333334,39.583333333333314 L 119.29166666666667,39.583333333333314 L 153.375,39.583333333333314 L 187.45833333333334,39.583333333333314 L 221.54166666666666,39.583333333333314 L 255.625,39.583333333333314 L 255.625,155.41666666666669 L 221.54166666666666,155.41666666666669 L 187.45833333333334,155.41666666666669 L 187.45833333333334,271.25 L 153.375,271.25 L 119.29166666666667,271.25 L 85.20833333333334,271.25 L 85.20833333333334,387.08333333333326 L 119.29166666666667,387.08333333333326 L 119.29166666666667,502.91666666666663 L 153.375,502.91666666666663 L 187.45833333333334,502.91666666666663 L 221.54166666666666,502.91666666666663 L 255.625,502.91666666666663 L 289.70833333333337,502.91666666666663 L 323.7916666666667,502.91666666666663 L 357.87500000000006,502.91666666666663 L 357.87500000000006,387.08333333333326 L 323.7916666666667,387.08333333333326 L 289.70833333333337,387.08333333333326 L 255.625,387.08333333333326 L 187.45833333333334,387.08333333333326 L 153.375,387.08333333333326 L 221.54166666666666,271.25 L 255.625,271.25 L 289.70833333333337,271.25 L 289.70833333333337,155.41666666666669 L 323.7916666666667,155.41666666666669 L 323.7916666666667,39.583333333333314 L 289.70833333333337,39.583333333333314 L 51.125,39.583333333333314 L 17.041666666666668,39.583333333333314zz"/>
    <glyph glyph-name="t" unicode="t" horiz-adv-x="343" d="M 328.7083333333333,502.91666666666663 L 300.125,502.91666666666663 L 271.5416666666667,502.91666666666663 L 242.95833333333331,502.91666666666663 L 214.37499999999997,502.91666666666663 L 214.37499999999997,387.08333333333326 L 214.37499999999997,271.25 L 185.79166666666666,271.25 L 185.79166666666666,155.41666666666669 L 157.20833333333331,155.41666666666669 L 157.20833333333331,39.583333333333314 L 185.79166666666666,39.583333333333314 L 214.37499999999997,39.583333333333314 L 242.95833333333331,39.583333333333314 L 242.95833333333331,155.41666666666669 L 271.5416666666667,155.41666666666669 L 271.5416666666667,39.583333333333314 L 128.625,39.583333333333314 L 100.04166666666667,39.583333333333314 L 71.45833333333333,39.583333333333314 L 100.04166666666667,155.41666666666669 L 100.04166666666667,271.25 L 128.625,271.25 L 128.625,387.08333333333326 L 157.20833333333331,387.08333333333326 L 157.20833333333331,502.91666666666663 L 128.625,502.91666666666663 L 100.04166666666667,502.91666666666663 L 71.45833333333333,502.91666666666663 L 185.79166666666666,502.91666666666663 L 214.37499999999997,618.7499999999999 L 242.95833333333331,618.7499999999999 L 271.5416666666667,618.7499999999999 L 328.7083333333333,502.91666666666663zz"/>
    <glyph glyph-name="u" unicode="u" horiz-adv-x="576" d="M 504.0,155.41666666666669 L 552.0,155.41666666666669 L 552.0,39.583333333333314 L 504.0,39.583333333333314 L 456.0,39.583333333333314 L 408.0,39.583333333333314 L 360.0,39.583333333333314 L 312.0,39.583333333333314 L 360.0,155.41666666666669 L 360.0,271.25 L 408.0,271.25 L 408.0,387.08333333333326 L 360.0,387.08333333333326 L 312.0,271.25 L 312.0,155.41666666666669 L 264.0,155.41666666666669 L 264.0,39.583333333333314 L 216.0,39.583333333333314 L 168.0,39.583333333333314 L 120.0,39.583333333333314 L 72.0,39.583333333333314 L 72.0,155.41666666666669 L 120.0,155.41666666666669 L 120.0,271.25 L 120.0,387.08333333333326 L 168.0,387.08333333333326 L 72.0,387.08333333333326 L 24.0,387.08333333333326 L 72.0,502.91666666666663 L 120.0,502.91666666666663 L 168.0,502.91666666666663 L 216.0,502.91666666666663 L 264.0,502.91666666666663 L 216.0,387.08333333333326 L 216.0,271.25 L 168.0,271.25 L 168.0,155.41666666666669 L 216.0,155.41666666666669 L 408.0,502.91666666666663 L 456.0,502.91666666666663 L 504.0,502.91666666666663 L 504.0,387.08333333333326 L 456.0,387.08333333333326 L 456.0,271.25 L 456.0,155.41666666666669 L 408.0,155.41666666666669 L 504.0,155.41666666666669zz"/>
    <glyph glyph-name="v" unicode="v" horiz-adv-x="495" d="M 391.875,502.91666666666663 L 433.125,502.91666666666663 L 474.375,502.91666666666663 L 474.375,387.08333333333326 L 474.375,271.25 L 433.125,271.25 L 391.875,155.41666666666669 L 350.625,155.41666666666669 L 309.375,155.41666666666669 L 309.375,39.583333333333314 L 268.125,39.583333333333314 L 226.875,39.583333333333314 L 185.625,39.583333333333314 L 144.375,39.583333333333314 L 185.625,155.41666666666669 L 185.625,271.25 L 185.625,387.08333333333326 L 144.375,387.08333333333326 L 103.125,387.08333333333326 L 61.875,387.08333333333326 L 20.625,387.08333333333326 L 20.625,502.91666666666663 L 61.875,502.91666666666663 L 103.125,502.91666666666663 L 144.375,502.91666666666663 L 185.625,502.91666666666663 L 226.875,502.91666666666663 L 226.875,387.08333333333326 L 268.125,387.08333333333326 L 268.125,271.25 L 268.125,155.41666666666669 L 226.875,155.41666666666669 L 350.625,271.25 L 391.875,271.25 L 391.875,387.08333333333326 L 433.125,387.08333333333326 L 350.625,387.08333333333326 L 350.625,502.91666666666663 L 391.875,502.91666666666663zz"/>
    <glyph glyph-name="x" unicode="x" horiz-adv-x="601" d="M 475.7916666666667,387.08333333333326 L 425.70833333333337,387.08333333333326 L 375.62500000000006,387.08333333333326 L 375.62500000000006,271.25 L 325.5416666666667,271.25 L 325.5416666666667,155.41666666666669 L 375.62500000000006,155.41666666666669 L 375.62500000000006,39.583333333333314 L 425.70833333333337,39.583333333333314 L 475.7916666666667,39.583333333333314 L 525.875,39.583333333333314 L 525.875,155.41666666666669 L 325.5416666666667,39.583333333333314 L 275.45833333333337,155.41666666666669 L 225.375,155.41666666666669 L 225.375,39.583333333333314 L 175.29166666666666,39.583333333333314 L 125.20833333333334,39.583333333333314 L 75.125,39.583333333333314 L 25.041666666666668,39.583333333333314 L 25.041666666666668,155.41666666666669 L 125.20833333333334,155.41666666666669 L 175.29166666666666,155.41666666666669 L 225.375,271.25 L 275.45833333333337,271.25 L 225.375,387.08333333333326 L 175.29166666666666,387.08333333333326 L 125.20833333333334,387.08333333333326 L 75.125,387.08333333333326 L 75.125,502.91666666666663 L 125.20833333333334,502.91666666666663 L 175.29166666666666,502.91666666666663 L 225.375,502.91666666666663 L 275.45833333333337,502.91666666666663 L 275.45833333333337,387.08333333333326 L 325.5416666666667,387.08333333333326 L 425.70833333333337,502.91666666666663 L 475.7916666666667,502.91666666666663 L 525.875,502.91666666666663 L 575.9583333333334,502.91666666666663 L 575.9583333333334,387.08333333333326 L 525.875,387.08333333333326 L 475.7916666666667,387.08333333333326zz"/>
    <glyph glyph-name="y" unicode="y" horiz-adv-x="483" d="M 20.125,-192.08333333333334 L 60.375,-192.08333333333334 L 100.625,-192.08333333333334 L 100.625,-76.25 L 140.875,-76.25 L 181.125,-76.25 L 221.375,-76.25 L 221.375,39.583333333333314 L 261.625,39.583333333333314 L 301.875,39.583333333333314 L 342.125,39.583333333333314 L 342.125,155.41666666666669 L 382.375,155.41666666666669 L 422.625,155.41666666666669 L 422.625,271.25 L 462.875,271.25 L 462.875,387.08333333333326 L 462.875,502.91666666666663 L 422.625,502.91666666666663 L 382.375,502.91666666666663 L 342.125,502.91666666666663 L 342.125,387.08333333333326 L 382.375,387.08333333333326 L 422.625,387.08333333333326 L 382.375,271.25 L 342.125,271.25 L 301.875,155.41666666666669 L 261.625,155.41666666666669 L 221.375,155.41666666666669 L 261.625,271.25 L 261.625,387.08333333333326 L 221.375,387.08333333333326 L 221.375,502.91666666666663 L 181.125,502.91666666666663 L 140.875,502.91666666666663 L 100.625,502.91666666666663 L 60.375,502.91666666666663 L 60.375,387.08333333333326 L 20.125,387.08333333333326 L 100.625,387.08333333333326 L 140.875,387.08333333333326 L 181.125,387.08333333333326 L 181.125,271.25 L 181.125,155.41666666666669 L 181.125,39.583333333333314 L 140.875,39.583333333333314 L 60.375,-76.25 L 20.125,-76.25 L 20.125,-192.08333333333334zz"/>
    <glyph glyph-name="Z" unicode="Z" horiz-adv-x="612" d="M 433.5,39.583333333333314 L 484.5,39.583333333333314 L 484.5,155.41666666666669 L 535.5,155.41666666666669 L 535.5,39.583333333333314 L 382.5,39.583333333333314 L 331.5,39.583333333333314 L 280.5,39.583333333333314 L 229.5,39.583333333333314 L 178.5,39.583333333333314 L 127.5,39.583333333333314 L 76.5,39.583333333333314 L 25.5,39.583333333333314 L 25.5,155.41666666666669 L 76.5,155.41666666666669 L 127.5,155.41666666666669 L 127.5,271.25 L 178.5,271.25 L 229.5,271.25 L 229.5,387.08333333333326 L 280.5,387.08333333333326 L 331.5,387.08333333333326 L 331.5,502.91666666666663 L 382.5,502.91666666666663 L 433.5,502.91666666666663 L 433.5,618.7499999999999 L 484.5,618.7499999999999 L 382.5,618.7499999999999 L 331.5,618.7499999999999 L 280.5,618.7499999999999 L 229.5,618.7499999999999 L 178.5,618.7499999999999 L 127.5,618.7499999999999 L 127.5,502.91666666666663 L 76.5,502.91666666666663 L 76.5,618.7499999999999 L 535.5,618.7499999999999 L 586.5,618.7499999999999 L 535.5,502.91666666666663 L 484.5,502.91666666666663 L 433.5,387.08333333333326 L 382.5,387.08333333333326 L 331.5,271.25 L 280.5,271.25 L 229.5,155.41666666666669 L 178.5,155.41666666666669 L 433.5,39.583333333333314zz"/>
    <glyph glyph-name="Aacute" unicode="&#193;" horiz-adv-x="726" d="M 574.75,850.4166666666667 L 514.25,850.4166666666667 L 514.25,734.5833333333333 L 453.75,734.5833333333333 L 393.25,734.5833333333333 L 332.75,734.5833333333333 L 393.25,850.4166666666667 L 453.75,850.4166666666667 L 574.75,850.4166666666667zM 574.75,39.583333333333314 L 635.25,39.583333333333314 L 695.75,39.583333333333314 L 514.25,39.583333333333314 L 453.75,39.583333333333314 L 393.25,39.583333333333314 L 514.25,155.41666666666669 L 453.75,155.41666666666669 L 453.75,271.25 L 393.25,271.25 L 332.75,271.25 L 272.25,271.25 L 211.75,271.25 L 211.75,155.41666666666669 L 151.25,155.41666666666669 L 90.75,39.583333333333314 L 151.25,39.583333333333314 L 211.75,39.583333333333314 L 30.25,39.583333333333314 L 90.75,155.41666666666669 L 151.25,271.25 L 211.75,387.08333333333326 L 272.25,387.08333333333326 L 272.25,502.91666666666663 L 332.75,502.91666666666663 L 332.75,618.7499999999999 L 393.25,618.7499999999999 L 393.25,734.5833333333333 L 453.75,734.5833333333333 L 453.75,618.7499999999999 L 514.25,618.7499999999999 L 514.25,502.91666666666663 L 514.25,387.08333333333326 L 514.25,271.25 L 574.75,271.25 L 574.75,155.41666666666669 L 574.75,39.583333333333314zM 211.75,271.25 L 272.25,271.25 L 332.75,271.25 L 393.25,271.25 L 453.75,271.25 L 453.75,387.08333333333326 L 393.25,502.91666666666663 L 393.25,618.7499999999999 L 332.75,502.91666666666663 L 332.75,387.08333333333326 L 272.25,387.08333333333326 L 211.75,271.25zz"/>
    <glyph glyph-name="Abreve" unicode="&#258;" horiz-adv-x="726" d="M 453.75,734.5833333333333 L 393.25,734.5833333333333 L 332.75,734.5833333333333 L 332.75,850.4166666666667 L 393.25,850.4166666666667 L 453.75,850.4166666666667 L 514.25,850.4166666666667 L 574.75,850.4166666666667 L 514.25,734.5833333333333 L 453.75,734.5833333333333zM 574.75,39.583333333333314 L 635.25,39.583333333333314 L 695.75,39.583333333333314 L 514.25,39.583333333333314 L 453.75,39.583333333333314 L 393.25,39.583333333333314 L 514.25,155.41666666666669 L 453.75,155.41666666666669 L 453.75,271.25 L 393.25,271.25 L 332.75,271.25 L 272.25,271.25 L 211.75,271.25 L 211.75,155.41666666666669 L 151.25,155.41666666666669 L 90.75,39.583333333333314 L 151.25,39.583333333333314 L 211.75,39.583333333333314 L 30.25,39.583333333333314 L 90.75,155.41666666666669 L 151.25,271.25 L 211.75,387.08333333333326 L 272.25,387.08333333333326 L 272.25,502.91666666666663 L 332.75,502.91666666666663 L 332.75,618.7499999999999 L 393.25,618.7499999999999 L 393.25,734.5833333333333 L 453.75,734.5833333333333 L 453.75,618.7499999999999 L 514.25,618.7499999999999 L 514.25,502.91666666666663 L 514.25,387.08333333333326 L 514.25,271.25 L 574.75,271.25 L 574.75,155.41666666666669 L 574.75,39.583333333333314zM 211.75,271.25 L 272.25,271.25 L 332.75,271.25 L 393.25,271.25 L 453.75,271.25 L 453.75,387.08333333333326 L 393.25,502.91666666666663 L 393.25,618.7499999999999 L 332.75,502.91666666666663 L 332.75,387.08333333333326 L 272.25,387.08333333333326 L 211.75,271.25zz"/>
    <glyph glyph-name="Acircumflex" unicode="&#194;" horiz-adv-x="726" d="M 453.75,850.4166666666667 L 393.25,850.4166666666667 L 393.25,734.5833333333333 L 332.75,734.5833333333333 L 272.25,734.5833333333333 L 332.75,850.4166666666667 L 514.25,850.4166666666667 L 514.25,734.5833333333333 L 574.75,734.5833333333333 L 453.75,734.5833333333333 L 453.75,850.4166666666667zM 574.75,39.583333333333314 L 635.25,39.583333333333314 L 695.75,39.583333333333314 L 514.25,39.583333333333314 L 453.75,39.583333333333314 L 393.25,39.583333333333314 L 514.25,155.41666666666669 L 453.75,155.41666666666669 L 453.75,271.25 L 393.25,271.25 L 332.75,271.25 L 272.25,271.25 L 211.75,271.25 L 211.75,155.41666666666669 L 151.25,155.41666666666669 L 90.75,39.583333333333314 L 151.25,39.583333333333314 L 211.75,39.583333333333314 L 30.25,39.583333333333314 L 90.75,155.41666666666669 L 151.25,271.25 L 211.75,387.08333333333326 L 272.25,387.08333333333326 L 272.25,502.91666666666663 L 332.75,502.91666666666663 L 332.75,618.7499999999999 L 393.25,618.7499999999999 L 393.25,734.5833333333333 L 453.75,734.5833333333333 L 453.75,618.7499999999999 L 514.25,618.7499999999999 L 514.25,502.91666666666663 L 514.25,387.08333333333326 L 514.25,271.25 L 574.75,271.25 L 574.75,155.41666666666669 L 574.75,39.583333333333314zM 211.75,271.25 L 272.25,271.25 L 332.75,271.25 L 393.25,271.25 L 453.75,271.25 L 453.75,387.08333333333326 L 393.25,502.91666666666663 L 393.25,618.7499999999999 L 332.75,502.91666666666663 L 332.75,387.08333333333326 L 272.25,387.08333333333326 L 211.75,271.25zz"/>
    <glyph glyph-name="Adieresis" unicode="&#196;" horiz-adv-x="726" d="M 514.25,734.5833333333333 L 453.75,734.5833333333333 L 453.75,850.4166666666667 L 514.25,850.4166666666667 L 574.75,850.4166666666667 L 574.75,734.5833333333333 L 514.25,734.5833333333333zM 332.75,734.5833333333333 L 272.25,734.5833333333333 L 272.25,850.4166666666667 L 332.75,850.4166666666667 L 393.25,850.4166666666667 L 393.25,734.5833333333333 L 332.75,734.5833333333333zM 574.75,39.583333333333314 L 635.25,39.583333333333314 L 695.75,39.583333333333314 L 514.25,39.583333333333314 L 453.75,39.583333333333314 L 393.25,39.583333333333314 L 514.25,155.41666666666669 L 453.75,155.41666666666669 L 453.75,271.25 L 393.25,271.25 L 332.75,271.25 L 272.25,271.25 L 211.75,271.25 L 211.75,155.41666666666669 L 151.25,155.41666666666669 L 90.75,39.583333333333314 L 151.25,39.583333333333314 L 211.75,39.583333333333314 L 30.25,39.583333333333314 L 90.75,155.41666666666669 L 151.25,271.25 L 211.75,387.08333333333326 L 272.25,387.08333333333326 L 272.25,502.91666666666663 L 332.75,502.91666666666663 L 332.75,618.7499999999999 L 393.25,618.7499999999999 L 393.25,734.5833333333333 L 453.75,734.5833333333333 L 453.75,618.7499999999999 L 514.25,618.7499999999999 L 514.25,502.91666666666663 L 514.25,387.08333333333326 L 514.25,271.25 L 574.75,271.25 L 574.75,155.41666666666669 L 574.75,39.583333333333314zM 211.75,271.25 L 272.25,271.25 L 332.75,271.25 L 393.25,271.25 L 453.75,271.25 L 453.75,387.08333333333326 L 393.25,502.91666666666663 L 393.25,618.7499999999999 L 332.75,502.91666666666663 L 332.75,387.08333333333326 L 272.25,387.08333333333326 L 211.75,271.25zz"/>
    <glyph glyph-name="Agrave" unicode="&#192;" horiz-adv-x="726" d="M 514.25,734.5833333333333 L 453.75,734.5833333333333 L 393.25,734.5833333333333 L 393.25,850.4166666666667 L 332.75,850.4166666666667 L 272.25,850.4166666666667 L 453.75,850.4166666666667 L 514.25,734.5833333333333zM 574.75,39.583333333333314 L 635.25,39.583333333333314 L 695.75,39.583333333333314 L 514.25,39.583333333333314 L 453.75,39.583333333333314 L 393.25,39.583333333333314 L 514.25,155.41666666666669 L 453.75,155.41666666666669 L 453.75,271.25 L 393.25,271.25 L 332.75,271.25 L 272.25,271.25 L 211.75,271.25 L 211.75,155.41666666666669 L 151.25,155.41666666666669 L 90.75,39.583333333333314 L 151.25,39.583333333333314 L 211.75,39.583333333333314 L 30.25,39.583333333333314 L 90.75,155.41666666666669 L 151.25,271.25 L 211.75,387.08333333333326 L 272.25,387.08333333333326 L 272.25,502.91666666666663 L 332.75,502.91666666666663 L 332.75,618.7499999999999 L 393.25,618.7499999999999 L 393.25,734.5833333333333 L 453.75,734.5833333333333 L 453.75,618.7499999999999 L 514.25,618.7499999999999 L 514.25,502.91666666666663 L 514.25,387.08333333333326 L 514.25,271.25 L 574.75,271.25 L 574.75,155.41666666666669 L 574.75,39.583333333333314zM 211.75,271.25 L 272.25,271.25 L 332.75,271.25 L 393.25,271.25 L 453.75,271.25 L 453.75,387.08333333333326 L 393.25,502.91666666666663 L 393.25,618.7499999999999 L 332.75,502.91666666666663 L 332.75,387.08333333333326 L 272.25,387.08333333333326 L 211.75,271.25zz"/>
    <glyph glyph-name="Amacron" unicode="&#256;" horiz-adv-x="726" d="M 635.25,850.4166666666667 L 635.25,734.5833333333333 L 574.75,734.5833333333333 L 514.25,734.5833333333333 L 453.75,734.5833333333333 L 393.25,734.5833333333333 L 332.75,734.5833333333333 L 272.25,734.5833333333333 L 272.25,850.4166666666667 L 332.75,850.4166666666667 L 393.25,850.4166666666667 L 453.75,850.4166666666667 L 514.25,850.4166666666667 L 574.75,850.4166666666667 L 635.25,850.4166666666667zM 574.75,39.583333333333314 L 635.25,39.583333333333314 L 695.75,39.583333333333314 L 514.25,39.583333333333314 L 453.75,39.583333333333314 L 393.25,39.583333333333314 L 514.25,155.41666666666669 L 453.75,155.41666666666669 L 453.75,271.25 L 393.25,271.25 L 332.75,271.25 L 272.25,271.25 L 211.75,271.25 L 211.75,155.41666666666669 L 151.25,155.41666666666669 L 90.75,39.583333333333314 L 151.25,39.583333333333314 L 211.75,39.583333333333314 L 30.25,39.583333333333314 L 90.75,155.41666666666669 L 151.25,271.25 L 211.75,387.08333333333326 L 272.25,387.08333333333326 L 272.25,502.91666666666663 L 332.75,502.91666666666663 L 332.75,618.7499999999999 L 393.25,618.7499999999999 L 393.25,734.5833333333333 L 453.75,734.5833333333333 L 453.75,618.7499999999999 L 514.25,618.7499999999999 L 514.25,502.91666666666663 L 514.25,387.08333333333326 L 514.25,271.25 L 574.75,271.25 L 574.75,155.41666666666669 L 574.75,39.583333333333314zM 211.75,271.25 L 272.25,271.25 L 332.75,271.25 L 393.25,271.25 L 453.75,271.25 L 453.75,387.08333333333326 L 393.25,502.91666666666663 L 393.25,618.7499999999999 L 332.75,502.91666666666663 L 332.75,387.08333333333326 L 272.25,387.08333333333326 L 211.75,271.25zz"/>
    <glyph glyph-name="Aogonek" unicode="&#260;" horiz-adv-x="726" d="M 574.75,39.583333333333314 L 514.25,39.583333333333314 L 514.25,-76.25 L 514.25,-192.08333333333334 L 574.75,-192.08333333333334 L 574.75,-76.25 L 453.75,-192.08333333333334 L 393.25,-192.08333333333334 L 393.25,-76.25 L 453.75,-76.25 L 453.75,39.583333333333314 L 393.25,39.583333333333314 L 514.25,155.41666666666669 L 453.75,155.41666666666669 L 453.75,271.25 L 393.25,271.25 L 332.75,271.25 L 272.25,271.25 L 211.75,271.25 L 211.75,155.41666666666669 L 151.25,155.41666666666669 L 90.75,39.583333333333314 L 151.25,39.583333333333314 L 211.75,39.583333333333314 L 30.25,39.583333333333314 L 90.75,155.41666666666669 L 151.25,271.25 L 211.75,387.08333333333326 L 272.25,387.08333333333326 L 272.25,502.91666666666663 L 332.75,502.91666666666663 L 332.75,618.7499999999999 L 393.25,618.7499999999999 L 393.25,734.5833333333333 L 453.75,734.5833333333333 L 453.75,618.7499999999999 L 514.25,618.7499999999999 L 514.25,502.91666666666663 L 514.25,387.08333333333326 L 514.25,271.25 L 574.75,271.25 L 574.75,155.41666666666669 L 635.25,39.583333333333314 L 695.75,39.583333333333314 L 574.75,39.583333333333314zM 211.75,271.25 L 272.25,271.25 L 332.75,271.25 L 393.25,271.25 L 453.75,271.25 L 453.75,387.08333333333326 L 393.25,502.91666666666663 L 393.25,618.7499999999999 L 332.75,502.91666666666663 L 332.75,387.08333333333326 L 272.25,387.08333333333326 L 211.75,271.25zz"/>
    <glyph glyph-name="Aring" unicode="&#197;" horiz-adv-x="726" d="M 453.75,734.5833333333333 L 393.25,734.5833333333333 L 332.75,734.5833333333333 L 332.75,850.4166666666667 L 393.25,850.4166666666667 L 393.25,966.25 L 453.75,966.25 L 453.75,850.4166666666667 L 514.25,850.4166666666667 L 514.25,734.5833333333333 L 453.75,734.5833333333333zM 453.75,850.4166666666667 L 393.25,850.4166666666667 L 393.25,734.5833333333333 L 453.75,734.5833333333333 L 514.25,734.5833333333333 L 514.25,850.4166666666667 L 453.75,850.4166666666667zM 574.75,39.583333333333314 L 635.25,39.583333333333314 L 695.75,39.583333333333314 L 514.25,39.583333333333314 L 453.75,39.583333333333314 L 393.25,39.583333333333314 L 514.25,155.41666666666669 L 453.75,155.41666666666669 L 453.75,271.25 L 393.25,271.25 L 332.75,271.25 L 272.25,271.25 L 211.75,271.25 L 211.75,155.41666666666669 L 151.25,155.41666666666669 L 90.75,39.583333333333314 L 151.25,39.583333333333314 L 211.75,39.583333333333314 L 30.25,39.583333333333314 L 90.75,155.41666666666669 L 151.25,271.25 L 211.75,387.08333333333326 L 272.25,387.08333333333326 L 272.25,502.91666666666663 L 332.75,502.91666666666663 L 332.75,618.7499999999999 L 393.25,618.7499999999999 L 393.25,734.5833333333333 L 453.75,734.5833333333333 L 453.75,618.7499999999999 L 514.25,618.7499999999999 L 514.25,502.91666666666663 L 514.25,387.08333333333326 L 514.25,271.25 L 574.75,271.25 L 574.75,155.41666666666669 L 574.75,39.583333333333314zM 211.75,271.25 L 272.25,271.25 L 332.75,271.25 L 393.25,271.25 L 453.75,271.25 L 453.75,387.08333333333326 L 393.25,502.91666666666663 L 393.25,618.7499999999999 L 332.75,502.91666666666663 L 332.75,387.08333333333326 L 272.25,387.08333333333326 L 211.75,271.25zz"/>
    <glyph glyph-name="Atilde" unicode="&#195;" horiz-adv-x="726" d="M 332.75,850.4166666666667 L 332.75,734.5833333333333 L 272.25,734.5833333333333 L 272.25,850.4166666666667 L 393.25,850.4166666666667 L 453.75,850.4166666666667 L 514.25,850.4166666666667 L 574.75,850.4166666666667 L 635.25,850.4166666666667 L 574.75,734.5833333333333 L 514.25,734.5833333333333 L 453.75,734.5833333333333 L 393.25,734.5833333333333 L 332.75,850.4166666666667zM 574.75,39.583333333333314 L 635.25,39.583333333333314 L 695.75,39.583333333333314 L 514.25,39.583333333333314 L 453.75,39.583333333333314 L 393.25,39.583333333333314 L 514.25,155.41666666666669 L 453.75,155.41666666666669 L 453.75,271.25 L 393.25,271.25 L 332.75,271.25 L 272.25,271.25 L 211.75,271.25 L 211.75,155.41666666666669 L 151.25,155.41666666666669 L 90.75,39.583333333333314 L 151.25,39.583333333333314 L 211.75,39.583333333333314 L 30.25,39.583333333333314 L 90.75,155.41666666666669 L 151.25,271.25 L 211.75,387.08333333333326 L 272.25,387.08333333333326 L 272.25,502.91666666666663 L 332.75,502.91666666666663 L 332.75,618.7499999999999 L 393.25,618.7499999999999 L 393.25,734.5833333333333 L 453.75,734.5833333333333 L 453.75,618.7499999999999 L 514.25,618.7499999999999 L 514.25,502.91666666666663 L 514.25,387.08333333333326 L 514.25,271.25 L 574.75,271.25 L 574.75,155.41666666666669 L 574.75,39.583333333333314zM 211.75,271.25 L 272.25,271.25 L 332.75,271.25 L 393.25,271.25 L 453.75,271.25 L 453.75,387.08333333333326 L 393.25,502.91666666666663 L 393.25,618.7499999999999 L 332.75,502.91666666666663 L 332.75,387.08333333333326 L 272.25,387.08333333333326 L 211.75,271.25zz"/>
    <glyph glyph-name="AE" unicode="&#198;" horiz-adv-x="937" d="M 819.8749999999999,618.7499999999999 L 741.7916666666666,618.7499999999999 L 663.7083333333333,618.7499999999999 L 585.6249999999999,618.7499999999999 L 897.9583333333333,618.7499999999999 L 897.9583333333333,502.91666666666663 L 819.8749999999999,502.91666666666663 L 819.8749999999999,618.7499999999999zM 741.7916666666666,39.583333333333314 L 819.8749999999999,39.583333333333314 L 819.8749999999999,155.41666666666669 L 897.9583333333333,155.41666666666669 L 663.7083333333333,39.583333333333314 L 585.6249999999999,39.583333333333314 L 507.5416666666667,39.583333333333314 L 429.4583333333333,39.583333333333314 L 351.375,39.583333333333314 L 273.2916666666667,39.583333333333314 L 429.4583333333333,155.41666666666669 L 429.4583333333333,271.25 L 351.375,271.25 L 273.2916666666667,271.25 L 195.20833333333331,271.25 L 195.20833333333331,155.41666666666669 L 117.125,155.41666666666669 L 117.125,39.583333333333314 L 195.20833333333331,39.583333333333314 L 39.041666666666664,39.583333333333314 L 39.041666666666664,155.41666666666669 L 273.2916666666667,387.08333333333326 L 351.375,387.08333333333326 L 351.375,502.91666666666663 L 429.4583333333333,502.91666666666663 L 429.4583333333333,618.7499999999999 L 507.5416666666667,618.7499999999999 L 585.6249999999999,618.7499999999999 L 585.6249999999999,502.91666666666663 L 507.5416666666667,502.91666666666663 L 507.5416666666667,387.08333333333326 L 585.6249999999999,387.08333333333326 L 663.7083333333333,387.08333333333326 L 741.7916666666666,387.08333333333326 L 741.7916666666666,502.91666666666663 L 741.7916666666666,271.25 L 663.7083333333333,271.25 L 585.6249999999999,271.25 L 507.5416666666667,271.25 L 507.5416666666667,155.41666666666669 L 741.7916666666666,39.583333333333314zM 273.2916666666667,271.25 L 351.375,271.25 L 429.4583333333333,271.25 L 429.4583333333333,387.08333333333326 L 429.4583333333333,502.91666666666663 L 507.5416666666667,502.91666666666663 L 507.5416666666667,618.7499999999999 L 429.4583333333333,618.7499999999999 L 351.375,502.91666666666663 L 351.375,387.08333333333326 L 273.2916666666667,387.08333333333326 L 273.2916666666667,271.25zz"/>
    <glyph glyph-name="Cacute" unicode="&#262;" horiz-adv-x="666" d="M 305.25,734.5833333333333 L 360.75,734.5833333333333 L 360.75,850.4166666666667 L 416.25,850.4166666666667 L 471.75,850.4166666666667 L 527.25,850.4166666666667 L 582.75,850.4166666666667 L 471.75,734.5833333333333 L 416.25,734.5833333333333 L 305.25,734.5833333333333zM 416.25,618.7499999999999 L 471.75,618.7499999999999 L 527.25,618.7499999999999 L 582.75,618.7499999999999 L 582.75,502.91666666666663 L 582.75,387.08333333333326 L 527.25,387.08333333333326 L 527.25,502.91666666666663 L 360.75,618.7499999999999 L 305.25,618.7499999999999 L 249.75,618.7499999999999 L 249.75,502.91666666666663 L 194.25,502.91666666666663 L 194.25,387.08333333333326 L 138.75,387.08333333333326 L 138.75,271.25 L 138.75,155.41666666666669 L 194.25,155.41666666666669 L 194.25,39.583333333333314 L 249.75,39.583333333333314 L 305.25,39.583333333333314 L 360.75,39.583333333333314 L 416.25,39.583333333333314 L 471.75,39.583333333333314 L 471.75,155.41666666666669 L 527.25,155.41666666666669 L 582.75,155.41666666666669 L 527.25,39.583333333333314 L 138.75,39.583333333333314 L 83.25,39.583333333333314 L 83.25,155.41666666666669 L 27.75,155.41666666666669 L 27.75,271.25 L 27.75,387.08333333333326 L 83.25,387.08333333333326 L 83.25,502.91666666666663 L 138.75,502.91666666666663 L 194.25,618.7499999999999 L 416.25,618.7499999999999zz"/>
    <glyph glyph-name="Ccaron" unicode="&#268;" horiz-adv-x="666" d="M 582.75,850.4166666666667 L 527.25,850.4166666666667 L 471.75,850.4166666666667 L 471.75,734.5833333333333 L 416.25,734.5833333333333 L 360.75,734.5833333333333 L 360.75,850.4166666666667 L 305.25,850.4166666666667 L 416.25,850.4166666666667 L 582.75,850.4166666666667zM 416.25,618.7499999999999 L 471.75,618.7499999999999 L 527.25,618.7499999999999 L 582.75,618.7499999999999 L 582.75,502.91666666666663 L 582.75,387.08333333333326 L 527.25,387.08333333333326 L 527.25,502.91666666666663 L 360.75,618.7499999999999 L 305.25,618.7499999999999 L 249.75,618.7499999999999 L 249.75,502.91666666666663 L 194.25,502.91666666666663 L 194.25,387.08333333333326 L 138.75,387.08333333333326 L 138.75,271.25 L 138.75,155.41666666666669 L 194.25,155.41666666666669 L 194.25,39.583333333333314 L 249.75,39.583333333333314 L 305.25,39.583333333333314 L 360.75,39.583333333333314 L 416.25,39.583333333333314 L 471.75,39.583333333333314 L 471.75,155.41666666666669 L 527.25,155.41666666666669 L 582.75,155.41666666666669 L 527.25,39.583333333333314 L 138.75,39.583333333333314 L 83.25,39.583333333333314 L 83.25,155.41666666666669 L 27.75,155.41666666666669 L 27.75,271.25 L 27.75,387.08333333333326 L 83.25,387.08333333333326 L 83.25,502.91666666666663 L 138.75,502.91666666666663 L 194.25,618.7499999999999 L 416.25,618.7499999999999zz"/>
    <glyph glyph-name="Ccedilla" unicode="&#199;" horiz-adv-x="666" d="M 582.75,387.08333333333326 L 527.25,387.08333333333326 L 527.25,502.91666666666663 L 527.25,618.7499999999999 L 471.75,618.7499999999999 L 416.25,618.7499999999999 L 360.75,618.7499999999999 L 305.25,618.7499999999999 L 249.75,618.7499999999999 L 249.75,502.91666666666663 L 194.25,502.91666666666663 L 194.25,387.08333333333326 L 138.75,387.08333333333326 L 138.75,271.25 L 138.75,155.41666666666669 L 194.25,155.41666666666669 L 194.25,39.583333333333314 L 249.75,39.583333333333314 L 305.25,39.583333333333314 L 360.75,39.583333333333314 L 416.25,39.583333333333314 L 471.75,39.583333333333314 L 471.75,155.41666666666669 L 527.25,155.41666666666669 L 582.75,155.41666666666669 L 527.25,39.583333333333314 L 305.25,-76.25 L 360.75,-76.25 L 360.75,-192.08333333333334 L 305.25,-192.08333333333334 L 249.75,-192.08333333333334 L 249.75,-76.25 L 138.75,39.583333333333314 L 83.25,39.583333333333314 L 83.25,155.41666666666669 L 27.75,155.41666666666669 L 27.75,271.25 L 27.75,387.08333333333326 L 83.25,387.08333333333326 L 83.25,502.91666666666663 L 138.75,502.91666666666663 L 194.25,618.7499999999999 L 582.75,618.7499999999999 L 582.75,502.91666666666663 L 582.75,387.08333333333326zz"/>
    <glyph glyph-name="Cdotaccent" unicode="&#266;" horiz-adv-x="666" d="M 416.25,850.4166666666667 L 471.75,850.4166666666667 L 471.75,734.5833333333333 L 416.25,734.5833333333333 L 360.75,734.5833333333333 L 360.75,850.4166666666667 L 416.25,850.4166666666667zM 416.25,618.7499999999999 L 471.75,618.7499999999999 L 527.25,618.7499999999999 L 582.75,618.7499999999999 L 582.75,502.91666666666663 L 582.75,387.08333333333326 L 527.25,387.08333333333326 L 527.25,502.91666666666663 L 360.75,618.7499999999999 L 305.25,618.7499999999999 L 249.75,618.7499999999999 L 249.75,502.91666666666663 L 194.25,502.91666666666663 L 194.25,387.08333333333326 L 138.75,387.08333333333326 L 138.75,271.25 L 138.75,155.41666666666669 L 194.25,155.41666666666669 L 194.25,39.583333333333314 L 249.75,39.583333333333314 L 305.25,39.583333333333314 L 360.75,39.583333333333314 L 416.25,39.583333333333314 L 471.75,39.583333333333314 L 471.75,155.41666666666669 L 527.25,155.41666666666669 L 582.75,155.41666666666669 L 527.25,39.583333333333314 L 138.75,39.583333333333314 L 83.25,39.583333333333314 L 83.25,155.41666666666669 L 27.75,155.41666666666669 L 27.75,271.25 L 27.75,387.08333333333326 L 83.25,387.08333333333326 L 83.25,502.91666666666663 L 138.75,502.91666666666663 L 194.25,618.7499999999999 L 416.25,618.7499999999999zz"/>
    <glyph glyph-name="Eth" unicode="&#208;" horiz-adv-x="691" d="M 316.70833333333337,618.7499999999999 L 374.2916666666667,618.7499999999999 L 431.87500000000006,618.7499999999999 L 489.45833333333337,618.7499999999999 L 547.0416666666666,618.7499999999999 L 604.625,502.91666666666663 L 662.2083333333334,387.08333333333326 L 662.2083333333334,271.25 L 604.625,271.25 L 604.625,155.41666666666669 L 547.0416666666666,155.41666666666669 L 489.45833333333337,155.41666666666669 L 489.45833333333337,39.583333333333314 L 431.87500000000006,39.583333333333314 L 374.2916666666667,39.583333333333314 L 316.70833333333337,39.583333333333314 L 259.125,39.583333333333314 L 201.54166666666666,39.583333333333314 L 143.95833333333334,39.583333333333314 L 86.375,39.583333333333314 L 28.791666666666668,39.583333333333314 L 86.375,155.41666666666669 L 86.375,271.25 L 143.95833333333334,271.25 L 28.791666666666668,271.25 L 28.791666666666668,387.08333333333326 L 86.375,387.08333333333326 L 143.95833333333334,387.08333333333326 L 143.95833333333334,502.91666666666663 L 143.95833333333334,618.7499999999999 L 201.54166666666666,618.7499999999999 L 86.375,618.7499999999999 L 259.125,618.7499999999999 L 316.70833333333337,618.7499999999999zM 316.70833333333337,39.583333333333314 L 374.2916666666667,39.583333333333314 L 431.87500000000006,39.583333333333314 L 431.87500000000006,155.41666666666669 L 489.45833333333337,155.41666666666669 L 489.45833333333337,271.25 L 547.0416666666666,271.25 L 547.0416666666666,387.08333333333326 L 547.0416666666666,502.91666666666663 L 489.45833333333337,502.91666666666663 L 489.45833333333337,618.7499999999999 L 431.87500000000006,618.7499999999999 L 374.2916666666667,618.7499999999999 L 316.70833333333337,618.7499999999999 L 259.125,618.7499999999999 L 259.125,502.91666666666663 L 259.125,387.08333333333326 L 201.54166666666666,387.08333333333326 L 316.70833333333337,387.08333333333326 L 374.2916666666667,387.08333333333326 L 374.2916666666667,271.25 L 316.70833333333337,271.25 L 259.125,271.25 L 201.54166666666666,271.25 L 201.54166666666666,155.41666666666669 L 143.95833333333334,155.41666666666669 L 143.95833333333334,39.583333333333314 L 201.54166666666666,39.583333333333314 L 259.125,39.583333333333314 L 316.70833333333337,39.583333333333314zz"/>
    <glyph glyph-name="Dcaron" unicode="&#270;" horiz-adv-x="691" d="M 374.2916666666667,734.5833333333333 L 316.70833333333337,734.5833333333333 L 316.70833333333337,850.4166666666667 L 259.125,850.4166666666667 L 374.2916666666667,850.4166666666667 L 431.87500000000006,850.4166666666667 L 489.45833333333337,850.4166666666667 L 547.0416666666666,850.4166666666667 L 431.87500000000006,734.5833333333333 L 374.2916666666667,734.5833333333333zM 316.70833333333337,618.7499999999999 L 374.2916666666667,618.7499999999999 L 431.87500000000006,618.7499999999999 L 489.45833333333337,618.7499999999999 L 547.0416666666666,618.7499999999999 L 604.625,502.91666666666663 L 662.2083333333334,387.08333333333326 L 662.2083333333334,271.25 L 604.625,271.25 L 604.625,155.41666666666669 L 547.0416666666666,155.41666666666669 L 489.45833333333337,155.41666666666669 L 489.45833333333337,39.583333333333314 L 431.87500000000006,39.583333333333314 L 374.2916666666667,39.583333333333314 L 316.70833333333337,39.583333333333314 L 259.125,39.583333333333314 L 201.54166666666666,39.583333333333314 L 143.95833333333334,39.583333333333314 L 86.375,39.583333333333314 L 28.791666666666668,39.583333333333314 L 86.375,155.41666666666669 L 86.375,271.25 L 143.95833333333334,271.25 L 143.95833333333334,387.08333333333326 L 143.95833333333334,502.91666666666663 L 143.95833333333334,618.7499999999999 L 201.54166666666666,618.7499999999999 L 86.375,618.7499999999999 L 259.125,618.7499999999999 L 316.70833333333337,618.7499999999999zM 316.70833333333337,39.583333333333314 L 374.2916666666667,39.583333333333314 L 431.87500000000006,39.583333333333314 L 431.87500000000006,155.41666666666669 L 489.45833333333337,155.41666666666669 L 489.45833333333337,271.25 L 547.0416666666666,271.25 L 547.0416666666666,387.08333333333326 L 547.0416666666666,502.91666666666663 L 489.45833333333337,502.91666666666663 L 489.45833333333337,618.7499999999999 L 431.87500000000006,618.7499999999999 L 374.2916666666667,618.7499999999999 L 316.70833333333337,618.7499999999999 L 259.125,618.7499999999999 L 259.125,502.91666666666663 L 259.125,387.08333333333326 L 201.54166666666666,387.08333333333326 L 201.54166666666666,271.25 L 201.54166666666666,155.41666666666669 L 143.95833333333334,155.41666666666669 L 143.95833333333334,39.583333333333314 L 201.54166666666666,39.583333333333314 L 259.125,39.583333333333314 L 316.70833333333337,39.583333333333314zz"/>
    <glyph glyph-name="Dcroat" unicode="&#272;" horiz-adv-x="691" d="M 316.70833333333337,618.7499999999999 L 374.2916666666667,618.7499999999999 L 431.87500000000006,618.7499999999999 L 489.45833333333337,618.7499999999999 L 547.0416666666666,618.7499999999999 L 604.625,502.91666666666663 L 662.2083333333334,387.08333333333326 L 662.2083333333334,271.25 L 604.625,271.25 L 604.625,155.41666666666669 L 547.0416666666666,155.41666666666669 L 489.45833333333337,155.41666666666669 L 489.45833333333337,39.583333333333314 L 431.87500000000006,39.583333333333314 L 374.2916666666667,39.583333333333314 L 316.70833333333337,39.583333333333314 L 259.125,39.583333333333314 L 201.54166666666666,39.583333333333314 L 143.95833333333334,39.583333333333314 L 86.375,39.583333333333314 L 28.791666666666668,39.583333333333314 L 86.375,155.41666666666669 L 86.375,271.25 L 143.95833333333334,271.25 L 28.791666666666668,271.25 L 28.791666666666668,387.08333333333326 L 86.375,387.08333333333326 L 143.95833333333334,387.08333333333326 L 143.95833333333334,502.91666666666663 L 143.95833333333334,618.7499999999999 L 201.54166666666666,618.7499999999999 L 86.375,618.7499999999999 L 259.125,618.7499999999999 L 316.70833333333337,618.7499999999999zM 316.70833333333337,39.583333333333314 L 374.2916666666667,39.583333333333314 L 431.87500000000006,39.583333333333314 L 431.87500000000006,155.41666666666669 L 489.45833333333337,155.41666666666669 L 489.45833333333337,271.25 L 547.0416666666666,271.25 L 547.0416666666666,387.08333333333326 L 547.0416666666666,502.91666666666663 L 489.45833333333337,502.91666666666663 L 489.45833333333337,618.7499999999999 L 431.87500000000006,618.7499999999999 L 374.2916666666667,618.7499999999999 L 316.70833333333337,618.7499999999999 L 259.125,618.7499999999999 L 259.125,502.91666666666663 L 259.125,387.08333333333326 L 201.54166666666666,387.08333333333326 L 316.70833333333337,387.08333333333326 L 374.2916666666667,387.08333333333326 L 374.2916666666667,271.25 L 316.70833333333337,271.25 L 259.125,271.25 L 201.54166666666666,271.25 L 201.54166666666666,155.41666666666669 L 143.95833333333334,155.41666666666669 L 143.95833333333334,39.583333333333314 L 201.54166666666666,39.583333333333314 L 259.125,39.583333333333314 L 316.70833333333337,39.583333333333314zz"/>
    <glyph glyph-name="Eacute" unicode="&#201;" horiz-adv-x="625" d="M 546.875,850.4166666666667 L 494.7916666666667,850.4166666666667 L 442.70833333333337,850.4166666666667 L 442.70833333333337,734.5833333333333 L 390.62500000000006,734.5833333333333 L 338.5416666666667,734.5833333333333 L 286.45833333333337,734.5833333333333 L 338.5416666666667,850.4166666666667 L 390.62500000000006,850.4166666666667 L 546.875,850.4166666666667zM 494.7916666666667,618.7499999999999 L 442.70833333333337,618.7499999999999 L 390.62500000000006,618.7499999999999 L 338.5416666666667,618.7499999999999 L 286.45833333333337,618.7499999999999 L 546.875,618.7499999999999 L 598.9583333333334,618.7499999999999 L 546.875,502.91666666666663 L 494.7916666666667,502.91666666666663 L 494.7916666666667,618.7499999999999zM 442.70833333333337,39.583333333333314 L 494.7916666666667,39.583333333333314 L 494.7916666666667,155.41666666666669 L 546.875,155.41666666666669 L 546.875,39.583333333333314 L 390.62500000000006,39.583333333333314 L 338.5416666666667,39.583333333333314 L 286.45833333333337,39.583333333333314 L 234.375,39.583333333333314 L 182.29166666666666,39.583333333333314 L 130.20833333333334,39.583333333333314 L 78.125,39.583333333333314 L 26.041666666666668,39.583333333333314 L 78.125,155.41666666666669 L 130.20833333333334,155.41666666666669 L 130.20833333333334,271.25 L 130.20833333333334,387.08333333333326 L 130.20833333333334,502.91666666666663 L 182.29166666666666,502.91666666666663 L 182.29166666666666,618.7499999999999 L 130.20833333333334,618.7499999999999 L 78.125,618.7499999999999 L 234.375,618.7499999999999 L 286.45833333333337,618.7499999999999 L 234.375,502.91666666666663 L 234.375,387.08333333333326 L 286.45833333333337,387.08333333333326 L 338.5416666666667,387.08333333333326 L 390.62500000000006,387.08333333333326 L 442.70833333333337,387.08333333333326 L 442.70833333333337,502.91666666666663 L 442.70833333333337,271.25 L 390.62500000000006,271.25 L 338.5416666666667,271.25 L 286.45833333333337,271.25 L 234.375,271.25 L 182.29166666666666,271.25 L 182.29166666666666,155.41666666666669 L 442.70833333333337,39.583333333333314zz"/>
    <glyph glyph-name="Ecaron" unicode="&#282;" horiz-adv-x="625" d="M 390.62500000000006,734.5833333333333 L 338.5416666666667,734.5833333333333 L 338.5416666666667,850.4166666666667 L 286.45833333333337,850.4166666666667 L 390.62500000000006,850.4166666666667 L 442.70833333333337,850.4166666666667 L 494.7916666666667,850.4166666666667 L 546.875,850.4166666666667 L 442.70833333333337,734.5833333333333 L 390.62500000000006,734.5833333333333zM 494.7916666666667,618.7499999999999 L 442.70833333333337,618.7499999999999 L 390.62500000000006,618.7499999999999 L 338.5416666666667,618.7499999999999 L 286.45833333333337,618.7499999999999 L 546.875,618.7499999999999 L 598.9583333333334,618.7499999999999 L 546.875,502.91666666666663 L 494.7916666666667,502.91666666666663 L 494.7916666666667,618.7499999999999zM 442.70833333333337,39.583333333333314 L 494.7916666666667,39.583333333333314 L 494.7916666666667,155.41666666666669 L 546.875,155.41666666666669 L 546.875,39.583333333333314 L 390.62500000000006,39.583333333333314 L 338.5416666666667,39.583333333333314 L 286.45833333333337,39.583333333333314 L 234.375,39.583333333333314 L 182.29166666666666,39.583333333333314 L 130.20833333333334,39.583333333333314 L 78.125,39.583333333333314 L 26.041666666666668,39.583333333333314 L 78.125,155.41666666666669 L 130.20833333333334,155.41666666666669 L 130.20833333333334,271.25 L 130.20833333333334,387.08333333333326 L 130.20833333333334,502.91666666666663 L 182.29166666666666,502.91666666666663 L 182.29166666666666,618.7499999999999 L 130.20833333333334,618.7499999999999 L 78.125,618.7499999999999 L 234.375,618.7499999999999 L 286.45833333333337,618.7499999999999 L 234.375,502.91666666666663 L 234.375,387.08333333333326 L 286.45833333333337,387.08333333333326 L 338.5416666666667,387.08333333333326 L 390.62500000000006,387.08333333333326 L 442.70833333333337,387.08333333333326 L 442.70833333333337,502.91666666666663 L 442.70833333333337,271.25 L 390.62500000000006,271.25 L 338.5416666666667,271.25 L 286.45833333333337,271.25 L 234.375,271.25 L 182.29166666666666,271.25 L 182.29166666666666,155.41666666666669 L 442.70833333333337,39.583333333333314zz"/>
    <glyph glyph-name="Ecircumflex" unicode="&#202;" horiz-adv-x="625" d="M 390.62500000000006,850.4166666666667 L 338.5416666666667,850.4166666666667 L 338.5416666666667,734.5833333333333 L 286.45833333333337,734.5833333333333 L 234.375,734.5833333333333 L 286.45833333333337,850.4166666666667 L 442.70833333333337,850.4166666666667 L 494.7916666666667,850.4166666666667 L 494.7916666666667,734.5833333333333 L 546.875,734.5833333333333 L 442.70833333333337,734.5833333333333 L 390.62500000000006,850.4166666666667zM 494.7916666666667,618.7499999999999 L 442.70833333333337,618.7499999999999 L 390.62500000000006,618.7499999999999 L 338.5416666666667,618.7499999999999 L 286.45833333333337,618.7499999999999 L 546.875,618.7499999999999 L 598.9583333333334,618.7499999999999 L 546.875,502.91666666666663 L 494.7916666666667,502.91666666666663 L 494.7916666666667,618.7499999999999zM 442.70833333333337,39.583333333333314 L 494.7916666666667,39.583333333333314 L 494.7916666666667,155.41666666666669 L 546.875,155.41666666666669 L 546.875,39.583333333333314 L 390.62500000000006,39.583333333333314 L 338.5416666666667,39.583333333333314 L 286.45833333333337,39.583333333333314 L 234.375,39.583333333333314 L 182.29166666666666,39.583333333333314 L 130.20833333333334,39.583333333333314 L 78.125,39.583333333333314 L 26.041666666666668,39.583333333333314 L 78.125,155.41666666666669 L 130.20833333333334,155.41666666666669 L 130.20833333333334,271.25 L 130.20833333333334,387.08333333333326 L 130.20833333333334,502.91666666666663 L 182.29166666666666,502.91666666666663 L 182.29166666666666,618.7499999999999 L 130.20833333333334,618.7499999999999 L 78.125,618.7499999999999 L 234.375,618.7499999999999 L 286.45833333333337,618.7499999999999 L 234.375,502.91666666666663 L 234.375,387.08333333333326 L 286.45833333333337,387.08333333333326 L 338.5416666666667,387.08333333333326 L 390.62500000000006,387.08333333333326 L 442.70833333333337,387.08333333333326 L 442.70833333333337,502.91666666666663 L 442.70833333333337,271.25 L 390.62500000000006,271.25 L 338.5416666666667,271.25 L 286.45833333333337,271.25 L 234.375,271.25 L 182.29166666666666,271.25 L 182.29166666666666,155.41666666666669 L 442.70833333333337,39.583333333333314zz"/>
    <glyph glyph-name="Edieresis" unicode="&#203;" horiz-adv-x="625" d="M 494.7916666666667,734.5833333333333 L 442.70833333333337,734.5833333333333 L 442.70833333333337,850.4166666666667 L 494.7916666666667,850.4166666666667 L 546.875,850.4166666666667 L 546.875,734.5833333333333 L 494.7916666666667,734.5833333333333zM 286.45833333333337,734.5833333333333 L 234.375,734.5833333333333 L 234.375,850.4166666666667 L 286.45833333333337,850.4166666666667 L 338.5416666666667,850.4166666666667 L 338.5416666666667,734.5833333333333 L 286.45833333333337,734.5833333333333zM 494.7916666666667,618.7499999999999 L 442.70833333333337,618.7499999999999 L 390.62500000000006,618.7499999999999 L 338.5416666666667,618.7499999999999 L 286.45833333333337,618.7499999999999 L 546.875,618.7499999999999 L 598.9583333333334,618.7499999999999 L 546.875,502.91666666666663 L 494.7916666666667,502.91666666666663 L 494.7916666666667,618.7499999999999zM 442.70833333333337,39.583333333333314 L 494.7916666666667,39.583333333333314 L 494.7916666666667,155.41666666666669 L 546.875,155.41666666666669 L 546.875,39.583333333333314 L 390.62500000000006,39.583333333333314 L 338.5416666666667,39.583333333333314 L 286.45833333333337,39.583333333333314 L 234.375,39.583333333333314 L 182.29166666666666,39.583333333333314 L 130.20833333333334,39.583333333333314 L 78.125,39.583333333333314 L 26.041666666666668,39.583333333333314 L 78.125,155.41666666666669 L 130.20833333333334,155.41666666666669 L 130.20833333333334,271.25 L 130.20833333333334,387.08333333333326 L 130.20833333333334,502.91666666666663 L 182.29166666666666,502.91666666666663 L 182.29166666666666,618.7499999999999 L 130.20833333333334,618.7499999999999 L 78.125,618.7499999999999 L 234.375,618.7499999999999 L 286.45833333333337,618.7499999999999 L 234.375,502.91666666666663 L 234.375,387.08333333333326 L 286.45833333333337,387.08333333333326 L 338.5416666666667,387.08333333333326 L 390.62500000000006,387.08333333333326 L 442.70833333333337,387.08333333333326 L 442.70833333333337,502.91666666666663 L 442.70833333333337,271.25 L 390.62500000000006,271.25 L 338.5416666666667,271.25 L 286.45833333333337,271.25 L 234.375,271.25 L 182.29166666666666,271.25 L 182.29166666666666,155.41666666666669 L 442.70833333333337,39.583333333333314zz"/>
    <glyph glyph-name="Edotaccent" unicode="&#278;" horiz-adv-x="625" d="M 390.62500000000006,734.5833333333333 L 338.5416666666667,734.5833333333333 L 338.5416666666667,850.4166666666667 L 390.62500000000006,850.4166666666667 L 442.70833333333337,850.4166666666667 L 442.70833333333337,734.5833333333333 L 390.62500000000006,734.5833333333333zM 494.7916666666667,618.7499999999999 L 442.70833333333337,618.7499999999999 L 390.62500000000006,618.7499999999999 L 338.5416666666667,618.7499999999999 L 286.45833333333337,618.7499999999999 L 546.875,618.7499999999999 L 598.9583333333334,618.7499999999999 L 546.875,502.91666666666663 L 494.7916666666667,502.91666666666663 L 494.7916666666667,618.7499999999999zM 442.70833333333337,39.583333333333314 L 494.7916666666667,39.583333333333314 L 494.7916666666667,155.41666666666669 L 546.875,155.41666666666669 L 546.875,39.583333333333314 L 390.62500000000006,39.583333333333314 L 338.5416666666667,39.583333333333314 L 286.45833333333337,39.583333333333314 L 234.375,39.583333333333314 L 182.29166666666666,39.583333333333314 L 130.20833333333334,39.583333333333314 L 78.125,39.583333333333314 L 26.041666666666668,39.583333333333314 L 78.125,155.41666666666669 L 130.20833333333334,155.41666666666669 L 130.20833333333334,271.25 L 130.20833333333334,387.08333333333326 L 130.20833333333334,502.91666666666663 L 182.29166666666666,502.91666666666663 L 182.29166666666666,618.7499999999999 L 130.20833333333334,618.7499999999999 L 78.125,618.7499999999999 L 234.375,618.7499999999999 L 286.45833333333337,618.7499999999999 L 234.375,502.91666666666663 L 234.375,387.08333333333326 L 286.45833333333337,387.08333333333326 L 338.5416666666667,387.08333333333326 L 390.62500000000006,387.08333333333326 L 442.70833333333337,387.08333333333326 L 442.70833333333337,502.91666666666663 L 442.70833333333337,271.25 L 390.62500000000006,271.25 L 338.5416666666667,271.25 L 286.45833333333337,271.25 L 234.375,271.25 L 182.29166666666666,271.25 L 182.29166666666666,155.41666666666669 L 442.70833333333337,39.583333333333314zz"/>
    <glyph glyph-name="Egrave" unicode="&#200;" horiz-adv-x="625" d="M 494.7916666666667,734.5833333333333 L 442.70833333333337,734.5833333333333 L 390.62500000000006,734.5833333333333 L 338.5416666666667,734.5833333333333 L 338.5416666666667,850.4166666666667 L 286.45833333333337,850.4166666666667 L 234.375,850.4166666666667 L 390.62500000000006,850.4166666666667 L 442.70833333333337,850.4166666666667 L 494.7916666666667,734.5833333333333zM 494.7916666666667,618.7499999999999 L 442.70833333333337,618.7499999999999 L 390.62500000000006,618.7499999999999 L 338.5416666666667,618.7499999999999 L 286.45833333333337,618.7499999999999 L 546.875,618.7499999999999 L 598.9583333333334,618.7499999999999 L 546.875,502.91666666666663 L 494.7916666666667,502.91666666666663 L 494.7916666666667,618.7499999999999zM 442.70833333333337,39.583333333333314 L 494.7916666666667,39.583333333333314 L 494.7916666666667,155.41666666666669 L 546.875,155.41666666666669 L 546.875,39.583333333333314 L 390.62500000000006,39.583333333333314 L 338.5416666666667,39.583333333333314 L 286.45833333333337,39.583333333333314 L 234.375,39.583333333333314 L 182.29166666666666,39.583333333333314 L 130.20833333333334,39.583333333333314 L 78.125,39.583333333333314 L 26.041666666666668,39.583333333333314 L 78.125,155.41666666666669 L 130.20833333333334,155.41666666666669 L 130.20833333333334,271.25 L 130.20833333333334,387.08333333333326 L 130.20833333333334,502.91666666666663 L 182.29166666666666,502.91666666666663 L 182.29166666666666,618.7499999999999 L 130.20833333333334,618.7499999999999 L 78.125,618.7499999999999 L 234.375,618.7499999999999 L 286.45833333333337,618.7499999999999 L 234.375,502.91666666666663 L 234.375,387.08333333333326 L 286.45833333333337,387.08333333333326 L 338.5416666666667,387.08333333333326 L 390.62500000000006,387.08333333333326 L 442.70833333333337,387.08333333333326 L 442.70833333333337,502.91666666666663 L 442.70833333333337,271.25 L 390.62500000000006,271.25 L 338.5416666666667,271.25 L 286.45833333333337,271.25 L 234.375,271.25 L 182.29166666666666,271.25 L 182.29166666666666,155.41666666666669 L 442.70833333333337,39.583333333333314zz"/>
    <glyph glyph-name="Emacron" unicode="&#274;" horiz-adv-x="625" d="M 546.875,850.4166666666667 L 546.875,734.5833333333333 L 494.7916666666667,734.5833333333333 L 442.70833333333337,734.5833333333333 L 390.62500000000006,734.5833333333333 L 338.5416666666667,734.5833333333333 L 286.45833333333337,734.5833333333333 L 234.375,734.5833333333333 L 234.375,850.4166666666667 L 286.45833333333337,850.4166666666667 L 338.5416666666667,850.4166666666667 L 390.62500000000006,850.4166666666667 L 442.70833333333337,850.4166666666667 L 494.7916666666667,850.4166666666667 L 546.875,850.4166666666667zM 494.7916666666667,618.7499999999999 L 442.70833333333337,618.7499999999999 L 390.62500000000006,618.7499999999999 L 338.5416666666667,618.7499999999999 L 286.45833333333337,618.7499999999999 L 546.875,618.7499999999999 L 598.9583333333334,618.7499999999999 L 546.875,502.91666666666663 L 494.7916666666667,502.91666666666663 L 494.7916666666667,618.7499999999999zM 442.70833333333337,39.583333333333314 L 494.7916666666667,39.583333333333314 L 494.7916666666667,155.41666666666669 L 546.875,155.41666666666669 L 546.875,39.583333333333314 L 390.62500000000006,39.583333333333314 L 338.5416666666667,39.583333333333314 L 286.45833333333337,39.583333333333314 L 234.375,39.583333333333314 L 182.29166666666666,39.583333333333314 L 130.20833333333334,39.583333333333314 L 78.125,39.583333333333314 L 26.041666666666668,39.583333333333314 L 78.125,155.41666666666669 L 130.20833333333334,155.41666666666669 L 130.20833333333334,271.25 L 130.20833333333334,387.08333333333326 L 130.20833333333334,502.91666666666663 L 182.29166666666666,502.91666666666663 L 182.29166666666666,618.7499999999999 L 130.20833333333334,618.7499999999999 L 78.125,618.7499999999999 L 234.375,618.7499999999999 L 286.45833333333337,618.7499999999999 L 234.375,502.91666666666663 L 234.375,387.08333333333326 L 286.45833333333337,387.08333333333326 L 338.5416666666667,387.08333333333326 L 390.62500000000006,387.08333333333326 L 442.70833333333337,387.08333333333326 L 442.70833333333337,502.91666666666663 L 442.70833333333337,271.25 L 390.62500000000006,271.25 L 338.5416666666667,271.25 L 286.45833333333337,271.25 L 234.375,271.25 L 182.29166666666666,271.25 L 182.29166666666666,155.41666666666669 L 442.70833333333337,39.583333333333314zz"/>
    <glyph glyph-name="Eogonek" unicode="&#280;" horiz-adv-x="625" d="M 494.7916666666667,618.7499999999999 L 442.70833333333337,618.7499999999999 L 390.62500000000006,618.7499999999999 L 338.5416666666667,618.7499999999999 L 286.45833333333337,618.7499999999999 L 546.875,618.7499999999999 L 598.9583333333334,618.7499999999999 L 546.875,502.91666666666663 L 494.7916666666667,502.91666666666663 L 494.7916666666667,618.7499999999999zM 494.7916666666667,39.583333333333314 L 494.7916666666667,-76.25 L 442.70833333333337,-76.25 L 390.62500000000006,-76.25 L 390.62500000000006,-192.08333333333334 L 442.70833333333337,-192.08333333333334 L 494.7916666666667,-192.08333333333334 L 546.875,-192.08333333333334 L 338.5416666666667,-192.08333333333334 L 338.5416666666667,-76.25 L 442.70833333333337,39.583333333333314 L 390.62500000000006,39.583333333333314 L 338.5416666666667,39.583333333333314 L 286.45833333333337,39.583333333333314 L 234.375,39.583333333333314 L 182.29166666666666,39.583333333333314 L 130.20833333333334,39.583333333333314 L 78.125,39.583333333333314 L 26.041666666666668,39.583333333333314 L 78.125,155.41666666666669 L 130.20833333333334,155.41666666666669 L 130.20833333333334,271.25 L 130.20833333333334,387.08333333333326 L 130.20833333333334,502.91666666666663 L 182.29166666666666,502.91666666666663 L 182.29166666666666,618.7499999999999 L 130.20833333333334,618.7499999999999 L 78.125,618.7499999999999 L 234.375,618.7499999999999 L 286.45833333333337,618.7499999999999 L 234.375,502.91666666666663 L 234.375,387.08333333333326 L 286.45833333333337,387.08333333333326 L 338.5416666666667,387.08333333333326 L 390.62500000000006,387.08333333333326 L 442.70833333333337,387.08333333333326 L 442.70833333333337,502.91666666666663 L 442.70833333333337,271.25 L 390.62500000000006,271.25 L 338.5416666666667,271.25 L 286.45833333333337,271.25 L 234.375,271.25 L 182.29166666666666,271.25 L 182.29166666666666,155.41666666666669 L 494.7916666666667,155.41666666666669 L 546.875,155.41666666666669 L 546.875,39.583333333333314 L 494.7916666666667,39.583333333333314zz"/>
    <glyph glyph-name="Gbreve" unicode="&#286;" horiz-adv-x="642" d="M 401.25,734.5833333333333 L 347.75,734.5833333333333 L 294.25,734.5833333333333 L 294.25,850.4166666666667 L 347.75,850.4166666666667 L 401.25,850.4166666666667 L 454.75,850.4166666666667 L 508.25,850.4166666666667 L 561.75,850.4166666666667 L 508.25,734.5833333333333 L 454.75,734.5833333333333 L 401.25,734.5833333333333zM 615.25,271.25 L 561.75,271.25 L 561.75,155.41666666666669 L 561.75,39.583333333333314 L 508.25,39.583333333333314 L 454.75,39.583333333333314 L 401.25,39.583333333333314 L 347.75,39.583333333333314 L 294.25,39.583333333333314 L 240.75,39.583333333333314 L 187.25,39.583333333333314 L 133.75,39.583333333333314 L 80.25,39.583333333333314 L 80.25,155.41666666666669 L 26.75,155.41666666666669 L 26.75,271.25 L 26.75,387.08333333333326 L 80.25,387.08333333333326 L 80.25,502.91666666666663 L 133.75,502.91666666666663 L 187.25,502.91666666666663 L 187.25,618.7499999999999 L 240.75,618.7499999999999 L 294.25,618.7499999999999 L 347.75,618.7499999999999 L 401.25,618.7499999999999 L 454.75,618.7499999999999 L 508.25,618.7499999999999 L 561.75,618.7499999999999 L 615.25,618.7499999999999 L 615.25,502.91666666666663 L 561.75,502.91666666666663 L 561.75,387.08333333333326 L 508.25,502.91666666666663 L 240.75,502.91666666666663 L 187.25,387.08333333333326 L 133.75,387.08333333333326 L 133.75,271.25 L 133.75,155.41666666666669 L 187.25,155.41666666666669 L 454.75,155.41666666666669 L 454.75,271.25 L 401.25,271.25 L 347.75,271.25 L 508.25,271.25 L 615.25,271.25zz"/>
    <glyph glyph-name="uni0122" unicode="&#290;" horiz-adv-x="642" d="M 615.25,271.25 L 561.75,271.25 L 561.75,155.41666666666669 L 561.75,39.583333333333314 L 508.25,39.583333333333314 L 454.75,39.583333333333314 L 401.25,39.583333333333314 L 347.75,39.583333333333314 L 294.25,39.583333333333314 L 240.75,39.583333333333314 L 187.25,39.583333333333314 L 133.75,39.583333333333314 L 80.25,39.583333333333314 L 80.25,155.41666666666669 L 26.75,155.41666666666669 L 26.75,271.25 L 26.75,387.08333333333326 L 80.25,387.08333333333326 L 80.25,502.91666666666663 L 133.75,502.91666666666663 L 187.25,502.91666666666663 L 187.25,618.7499999999999 L 240.75,618.7499999999999 L 294.25,618.7499999999999 L 347.75,618.7499999999999 L 401.25,618.7499999999999 L 454.75,618.7499999999999 L 508.25,618.7499999999999 L 561.75,618.7499999999999 L 615.25,618.7499999999999 L 615.25,502.91666666666663 L 561.75,502.91666666666663 L 561.75,387.08333333333326 L 508.25,502.91666666666663 L 240.75,502.91666666666663 L 187.25,387.08333333333326 L 133.75,387.08333333333326 L 133.75,271.25 L 133.75,155.41666666666669 L 187.25,155.41666666666669 L 454.75,155.41666666666669 L 454.75,271.25 L 401.25,271.25 L 347.75,271.25 L 508.25,271.25 L 615.25,271.25zM 240.75,-76.25 L 294.25,-76.25 L 294.25,-192.08333333333334 L 240.75,-192.08333333333334 L 187.25,-192.08333333333334 L 187.25,-76.25 L 240.75,-76.25zz"/>
    <glyph glyph-name="Gdotaccent" unicode="&#288;" horiz-adv-x="642" d="M 401.25,734.5833333333333 L 347.75,734.5833333333333 L 347.75,850.4166666666667 L 401.25,850.4166666666667 L 454.75,850.4166666666667 L 454.75,734.5833333333333 L 401.25,734.5833333333333zM 615.25,271.25 L 561.75,271.25 L 561.75,155.41666666666669 L 561.75,39.583333333333314 L 508.25,39.583333333333314 L 454.75,39.583333333333314 L 401.25,39.583333333333314 L 347.75,39.583333333333314 L 294.25,39.583333333333314 L 240.75,39.583333333333314 L 187.25,39.583333333333314 L 133.75,39.583333333333314 L 80.25,39.583333333333314 L 80.25,155.41666666666669 L 26.75,155.41666666666669 L 26.75,271.25 L 26.75,387.08333333333326 L 80.25,387.08333333333326 L 80.25,502.91666666666663 L 133.75,502.91666666666663 L 187.25,502.91666666666663 L 187.25,618.7499999999999 L 240.75,618.7499999999999 L 294.25,618.7499999999999 L 347.75,618.7499999999999 L 401.25,618.7499999999999 L 454.75,618.7499999999999 L 508.25,618.7499999999999 L 561.75,618.7499999999999 L 615.25,618.7499999999999 L 615.25,502.91666666666663 L 561.75,502.91666666666663 L 561.75,387.08333333333326 L 508.25,502.91666666666663 L 240.75,502.91666666666663 L 187.25,387.08333333333326 L 133.75,387.08333333333326 L 133.75,271.25 L 133.75,155.41666666666669 L 187.25,155.41666666666669 L 454.75,155.41666666666669 L 454.75,271.25 L 401.25,271.25 L 347.75,271.25 L 508.25,271.25 L 615.25,271.25zz"/>
    <glyph glyph-name="Hbar" unicode="&#294;" horiz-adv-x="745" d="M 713.9583333333334,618.7499999999999 L 651.875,618.7499999999999 L 651.875,502.91666666666663 L 713.9583333333334,502.91666666666663 L 651.875,387.08333333333326 L 589.7916666666666,387.08333333333326 L 589.7916666666666,271.25 L 589.7916666666666,155.41666666666669 L 589.7916666666666,39.583333333333314 L 651.875,39.583333333333314 L 527.7083333333334,39.583333333333314 L 465.62500000000006,39.583333333333314 L 403.5416666666667,39.583333333333314 L 465.62500000000006,155.41666666666669 L 527.7083333333334,155.41666666666669 L 527.7083333333334,271.25 L 465.62500000000006,271.25 L 403.5416666666667,271.25 L 341.45833333333337,271.25 L 279.375,271.25 L 217.29166666666666,271.25 L 217.29166666666666,155.41666666666669 L 155.20833333333334,155.41666666666669 L 155.20833333333334,39.583333333333314 L 217.29166666666666,39.583333333333314 L 279.375,39.583333333333314 L 93.125,39.583333333333314 L 31.041666666666668,39.583333333333314 L 93.125,155.41666666666669 L 93.125,271.25 L 155.20833333333334,271.25 L 155.20833333333334,387.08333333333326 L 155.20833333333334,502.91666666666663 L 93.125,502.91666666666663 L 31.041666666666668,502.91666666666663 L 155.20833333333334,618.7499999999999 L 93.125,618.7499999999999 L 217.29166666666666,618.7499999999999 L 279.375,618.7499999999999 L 341.45833333333337,618.7499999999999 L 279.375,502.91666666666663 L 217.29166666666666,502.91666666666663 L 341.45833333333337,502.91666666666663 L 403.5416666666667,502.91666666666663 L 465.62500000000006,502.91666666666663 L 527.7083333333334,502.91666666666663 L 589.7916666666666,502.91666666666663 L 589.7916666666666,618.7499999999999 L 527.7083333333334,618.7499999999999 L 465.62500000000006,618.7499999999999 L 713.9583333333334,618.7499999999999zM 527.7083333333334,387.08333333333326 L 527.7083333333334,502.91666666666663 L 465.62500000000006,502.91666666666663 L 403.5416666666667,502.91666666666663 L 341.45833333333337,502.91666666666663 L 279.375,502.91666666666663 L 217.29166666666666,502.91666666666663 L 217.29166666666666,387.08333333333326 L 279.375,387.08333333333326 L 341.45833333333337,387.08333333333326 L 403.5416666666667,387.08333333333326 L 465.62500000000006,387.08333333333326 L 527.7083333333334,387.08333333333326zz"/>
    <glyph glyph-name="Iacute" unicode="&#205;" horiz-adv-x="351" d="M 336.375,850.4166666666667 L 307.125,850.4166666666667 L 307.125,734.5833333333333 L 277.875,734.5833333333333 L 248.625,734.5833333333333 L 219.375,734.5833333333333 L 190.125,734.5833333333333 L 160.875,734.5833333333333 L 219.375,850.4166666666667 L 248.625,850.4166666666667 L 277.875,850.4166666666667 L 336.375,850.4166666666667zM 336.375,618.7499999999999 L 307.125,618.7499999999999 L 277.875,618.7499999999999 L 248.625,618.7499999999999 L 248.625,502.91666666666663 L 219.375,502.91666666666663 L 219.375,387.08333333333326 L 219.375,271.25 L 190.125,271.25 L 190.125,155.41666666666669 L 160.875,155.41666666666669 L 160.875,39.583333333333314 L 190.125,39.583333333333314 L 219.375,39.583333333333314 L 248.625,39.583333333333314 L 131.625,39.583333333333314 L 102.375,39.583333333333314 L 73.125,39.583333333333314 L 43.875,39.583333333333314 L 14.625,39.583333333333314 L 73.125,155.41666666666669 L 102.375,155.41666666666669 L 102.375,271.25 L 131.625,271.25 L 131.625,387.08333333333326 L 160.875,387.08333333333326 L 160.875,502.91666666666663 L 160.875,618.7499999999999 L 131.625,618.7499999999999 L 102.375,618.7499999999999 L 73.125,618.7499999999999 L 190.125,618.7499999999999 L 219.375,618.7499999999999 L 336.375,618.7499999999999zz"/>
    <glyph glyph-name="Icircumflex" unicode="&#206;" horiz-adv-x="351" d="M 277.875,850.4166666666667 L 307.125,850.4166666666667 L 336.375,850.4166666666667 L 336.375,734.5833333333333 L 307.125,734.5833333333333 L 277.875,734.5833333333333 L 248.625,850.4166666666667 L 219.375,850.4166666666667 L 219.375,734.5833333333333 L 190.125,734.5833333333333 L 160.875,734.5833333333333 L 131.625,734.5833333333333 L 102.375,734.5833333333333 L 160.875,850.4166666666667 L 190.125,850.4166666666667 L 277.875,850.4166666666667zM 336.375,618.7499999999999 L 307.125,618.7499999999999 L 277.875,618.7499999999999 L 248.625,618.7499999999999 L 248.625,502.91666666666663 L 219.375,502.91666666666663 L 219.375,387.08333333333326 L 219.375,271.25 L 190.125,271.25 L 190.125,155.41666666666669 L 160.875,155.41666666666669 L 160.875,39.583333333333314 L 190.125,39.583333333333314 L 219.375,39.583333333333314 L 248.625,39.583333333333314 L 131.625,39.583333333333314 L 102.375,39.583333333333314 L 73.125,39.583333333333314 L 43.875,39.583333333333314 L 14.625,39.583333333333314 L 73.125,155.41666666666669 L 102.375,155.41666666666669 L 102.375,271.25 L 131.625,271.25 L 131.625,387.08333333333326 L 160.875,387.08333333333326 L 160.875,502.91666666666663 L 160.875,618.7499999999999 L 131.625,618.7499999999999 L 102.375,618.7499999999999 L 73.125,618.7499999999999 L 190.125,618.7499999999999 L 219.375,618.7499999999999 L 336.375,618.7499999999999zz"/>
    <glyph glyph-name="Idieresis" unicode="&#207;" horiz-adv-x="351" d="M 336.375,850.4166666666667 L 336.375,734.5833333333333 L 307.125,734.5833333333333 L 307.125,850.4166666666667 L 277.875,850.4166666666667 L 336.375,850.4166666666667zM 131.625,734.5833333333333 L 102.375,734.5833333333333 L 102.375,850.4166666666667 L 73.125,850.4166666666667 L 131.625,850.4166666666667 L 160.875,850.4166666666667 L 190.125,850.4166666666667 L 219.375,850.4166666666667 L 219.375,734.5833333333333 L 190.125,734.5833333333333 L 160.875,734.5833333333333 L 131.625,734.5833333333333zM 336.375,618.7499999999999 L 307.125,618.7499999999999 L 277.875,618.7499999999999 L 248.625,618.7499999999999 L 248.625,502.91666666666663 L 219.375,502.91666666666663 L 219.375,387.08333333333326 L 219.375,271.25 L 190.125,271.25 L 190.125,155.41666666666669 L 160.875,155.41666666666669 L 160.875,39.583333333333314 L 190.125,39.583333333333314 L 219.375,39.583333333333314 L 248.625,39.583333333333314 L 131.625,39.583333333333314 L 102.375,39.583333333333314 L 73.125,39.583333333333314 L 43.875,39.583333333333314 L 14.625,39.583333333333314 L 73.125,155.41666666666669 L 102.375,155.41666666666669 L 102.375,271.25 L 131.625,271.25 L 131.625,387.08333333333326 L 160.875,387.08333333333326 L 160.875,502.91666666666663 L 160.875,618.7499999999999 L 131.625,618.7499999999999 L 102.375,618.7499999999999 L 73.125,618.7499999999999 L 190.125,618.7499999999999 L 219.375,618.7499999999999 L 336.375,618.7499999999999zz"/>
    <glyph glyph-name="Idotaccent" unicode="&#304;" horiz-adv-x="351" d="M 248.625,734.5833333333333 L 219.375,734.5833333333333 L 190.125,734.5833333333333 L 190.125,850.4166666666667 L 219.375,850.4166666666667 L 248.625,850.4166666666667 L 277.875,850.4166666666667 L 307.125,850.4166666666667 L 307.125,734.5833333333333 L 336.375,734.5833333333333 L 277.875,734.5833333333333 L 248.625,734.5833333333333zM 336.375,618.7499999999999 L 307.125,618.7499999999999 L 277.875,618.7499999999999 L 248.625,618.7499999999999 L 248.625,502.91666666666663 L 219.375,502.91666666666663 L 219.375,387.08333333333326 L 219.375,271.25 L 190.125,271.25 L 190.125,155.41666666666669 L 160.875,155.41666666666669 L 160.875,39.583333333333314 L 190.125,39.583333333333314 L 219.375,39.583333333333314 L 248.625,39.583333333333314 L 131.625,39.583333333333314 L 102.375,39.583333333333314 L 73.125,39.583333333333314 L 43.875,39.583333333333314 L 14.625,39.583333333333314 L 73.125,155.41666666666669 L 102.375,155.41666666666669 L 102.375,271.25 L 131.625,271.25 L 131.625,387.08333333333326 L 160.875,387.08333333333326 L 160.875,502.91666666666663 L 160.875,618.7499999999999 L 131.625,618.7499999999999 L 102.375,618.7499999999999 L 73.125,618.7499999999999 L 190.125,618.7499999999999 L 219.375,618.7499999999999 L 336.375,618.7499999999999zz"/>
    <glyph glyph-name="Igrave" unicode="&#204;" horiz-adv-x="351" d="M 336.375,734.5833333333333 L 307.125,734.5833333333333 L 277.875,734.5833333333333 L 248.625,734.5833333333333 L 219.375,734.5833333333333 L 190.125,734.5833333333333 L 190.125,850.4166666666667 L 160.875,850.4166666666667 L 131.625,850.4166666666667 L 102.375,850.4166666666667 L 219.375,850.4166666666667 L 248.625,850.4166666666667 L 277.875,850.4166666666667 L 307.125,850.4166666666667 L 336.375,734.5833333333333zM 336.375,618.7499999999999 L 307.125,618.7499999999999 L 277.875,618.7499999999999 L 248.625,618.7499999999999 L 248.625,502.91666666666663 L 219.375,502.91666666666663 L 219.375,387.08333333333326 L 219.375,271.25 L 190.125,271.25 L 190.125,155.41666666666669 L 160.875,155.41666666666669 L 160.875,39.583333333333314 L 190.125,39.583333333333314 L 219.375,39.583333333333314 L 248.625,39.583333333333314 L 131.625,39.583333333333314 L 102.375,39.583333333333314 L 73.125,39.583333333333314 L 43.875,39.583333333333314 L 14.625,39.583333333333314 L 73.125,155.41666666666669 L 102.375,155.41666666666669 L 102.375,271.25 L 131.625,271.25 L 131.625,387.08333333333326 L 160.875,387.08333333333326 L 160.875,502.91666666666663 L 160.875,618.7499999999999 L 131.625,618.7499999999999 L 102.375,618.7499999999999 L 73.125,618.7499999999999 L 190.125,618.7499999999999 L 219.375,618.7499999999999 L 336.375,618.7499999999999zz"/>
    <glyph glyph-name="Imacron" unicode="&#298;" horiz-adv-x="351" d="M 73.125,850.4166666666667 L 102.375,850.4166666666667 L 131.625,850.4166666666667 L 160.875,850.4166666666667 L 190.125,850.4166666666667 L 219.375,850.4166666666667 L 248.625,850.4166666666667 L 277.875,850.4166666666667 L 307.125,850.4166666666667 L 336.375,850.4166666666667 L 336.375,734.5833333333333 L 307.125,734.5833333333333 L 277.875,734.5833333333333 L 248.625,734.5833333333333 L 219.375,734.5833333333333 L 190.125,734.5833333333333 L 160.875,734.5833333333333 L 131.625,734.5833333333333 L 102.375,734.5833333333333 L 73.125,734.5833333333333 L 73.125,850.4166666666667zM 336.375,618.7499999999999 L 307.125,618.7499999999999 L 277.875,618.7499999999999 L 248.625,618.7499999999999 L 248.625,502.91666666666663 L 219.375,502.91666666666663 L 219.375,387.08333333333326 L 219.375,271.25 L 190.125,271.25 L 190.125,155.41666666666669 L 160.875,155.41666666666669 L 160.875,39.583333333333314 L 190.125,39.583333333333314 L 219.375,39.583333333333314 L 248.625,39.583333333333314 L 131.625,39.583333333333314 L 102.375,39.583333333333314 L 73.125,39.583333333333314 L 43.875,39.583333333333314 L 14.625,39.583333333333314 L 73.125,155.41666666666669 L 102.375,155.41666666666669 L 102.375,271.25 L 131.625,271.25 L 131.625,387.08333333333326 L 160.875,387.08333333333326 L 160.875,502.91666666666663 L 160.875,618.7499999999999 L 131.625,618.7499999999999 L 102.375,618.7499999999999 L 73.125,618.7499999999999 L 190.125,618.7499999999999 L 219.375,618.7499999999999 L 336.375,618.7499999999999zz"/>
    <glyph glyph-name="Iogonek" unicode="&#302;" horiz-adv-x="351" d="M 336.375,618.7499999999999 L 307.125,618.7499999999999 L 277.875,618.7499999999999 L 248.625,618.7499999999999 L 248.625,502.91666666666663 L 219.375,502.91666666666663 L 219.375,387.08333333333326 L 219.375,271.25 L 190.125,271.25 L 190.125,155.41666666666669 L 160.875,155.41666666666669 L 160.875,39.583333333333314 L 190.125,39.583333333333314 L 219.375,39.583333333333314 L 248.625,39.583333333333314 L 131.625,39.583333333333314 L 131.625,-76.25 L 102.375,-76.25 L 73.125,-76.25 L 73.125,-192.08333333333334 L 102.375,-192.08333333333334 L 131.625,-192.08333333333334 L 160.875,-192.08333333333334 L 190.125,-192.08333333333334 L 43.875,-192.08333333333334 L 14.625,-192.08333333333334 L 14.625,-76.25 L 43.875,-76.25 L 102.375,39.583333333333314 L 73.125,39.583333333333314 L 43.875,39.583333333333314 L 14.625,39.583333333333314 L 73.125,155.41666666666669 L 102.375,155.41666666666669 L 102.375,271.25 L 131.625,271.25 L 131.625,387.08333333333326 L 160.875,387.08333333333326 L 160.875,502.91666666666663 L 160.875,618.7499999999999 L 131.625,618.7499999999999 L 102.375,618.7499999999999 L 73.125,618.7499999999999 L 190.125,618.7499999999999 L 219.375,618.7499999999999 L 336.375,618.7499999999999zz"/>
    <glyph glyph-name="uni0136" unicode="&#310;" horiz-adv-x="663" d="M 635.375,618.7499999999999 L 580.125,618.7499999999999 L 580.125,502.91666666666663 L 524.875,502.91666666666663 L 469.625,502.91666666666663 L 414.375,502.91666666666663 L 414.375,387.08333333333326 L 359.125,387.08333333333326 L 303.875,387.08333333333326 L 303.875,271.25 L 359.125,271.25 L 414.375,271.25 L 414.375,155.41666666666669 L 469.625,155.41666666666669 L 469.625,39.583333333333314 L 524.875,39.583333333333314 L 580.125,39.583333333333314 L 635.375,39.583333333333314 L 414.375,39.583333333333314 L 359.125,39.583333333333314 L 359.125,155.41666666666669 L 303.875,155.41666666666669 L 248.625,271.25 L 193.375,271.25 L 193.375,155.41666666666669 L 193.375,39.583333333333314 L 138.125,39.583333333333314 L 248.625,39.583333333333314 L 82.875,39.583333333333314 L 27.625,39.583333333333314 L 82.875,155.41666666666669 L 82.875,271.25 L 138.125,271.25 L 138.125,387.08333333333326 L 138.125,502.91666666666663 L 193.375,502.91666666666663 L 193.375,618.7499999999999 L 138.125,618.7499999999999 L 82.875,618.7499999999999 L 248.625,618.7499999999999 L 303.875,618.7499999999999 L 359.125,618.7499999999999 L 248.625,502.91666666666663 L 248.625,387.08333333333326 L 193.375,387.08333333333326 L 359.125,502.91666666666663 L 524.875,618.7499999999999 L 469.625,618.7499999999999 L 635.375,618.7499999999999zM 82.875,-76.25 L 138.125,-76.25 L 138.125,-192.08333333333334 L 82.875,-192.08333333333334 L 27.625,-192.08333333333334 L 27.625,-76.25 L 82.875,-76.25zz"/>
    <glyph glyph-name="Lacute" unicode="&#313;" horiz-adv-x="623" d="M 441.29166666666663,850.4166666666667 L 389.37499999999994,850.4166666666667 L 337.4583333333333,850.4166666666667 L 337.4583333333333,734.5833333333333 L 285.54166666666663,734.5833333333333 L 233.625,734.5833333333333 L 181.70833333333334,734.5833333333333 L 233.625,850.4166666666667 L 285.54166666666663,850.4166666666667 L 441.29166666666663,850.4166666666667zM 545.125,155.41666666666669 L 545.125,39.583333333333314 L 493.2083333333333,39.583333333333314 L 441.29166666666663,39.583333333333314 L 389.37499999999994,39.583333333333314 L 337.4583333333333,39.583333333333314 L 285.54166666666663,39.583333333333314 L 233.625,39.583333333333314 L 181.70833333333334,39.583333333333314 L 129.79166666666666,39.583333333333314 L 77.875,39.583333333333314 L 25.958333333333332,39.583333333333314 L 77.875,155.41666666666669 L 129.79166666666666,155.41666666666669 L 129.79166666666666,271.25 L 129.79166666666666,387.08333333333326 L 129.79166666666666,502.91666666666663 L 181.70833333333334,502.91666666666663 L 181.70833333333334,618.7499999999999 L 129.79166666666666,618.7499999999999 L 77.875,618.7499999999999 L 233.625,618.7499999999999 L 285.54166666666663,618.7499999999999 L 337.4583333333333,618.7499999999999 L 233.625,502.91666666666663 L 233.625,387.08333333333326 L 233.625,271.25 L 181.70833333333334,271.25 L 181.70833333333334,155.41666666666669 L 493.2083333333333,155.41666666666669 L 545.125,155.41666666666669zz"/>
    <glyph glyph-name="Lcaron" unicode="&#317;" horiz-adv-x="623" d="M 493.2083333333333,502.91666666666663 L 493.2083333333333,618.7499999999999 L 441.29166666666663,618.7499999999999 L 545.125,618.7499999999999 L 545.125,502.91666666666663 L 493.2083333333333,502.91666666666663zM 545.125,155.41666666666669 L 545.125,39.583333333333314 L 493.2083333333333,39.583333333333314 L 441.29166666666663,39.583333333333314 L 389.37499999999994,39.583333333333314 L 337.4583333333333,39.583333333333314 L 285.54166666666663,39.583333333333314 L 233.625,39.583333333333314 L 181.70833333333334,39.583333333333314 L 129.79166666666666,39.583333333333314 L 77.875,39.583333333333314 L 25.958333333333332,39.583333333333314 L 77.875,155.41666666666669 L 129.79166666666666,155.41666666666669 L 129.79166666666666,271.25 L 129.79166666666666,387.08333333333326 L 129.79166666666666,502.91666666666663 L 181.70833333333334,502.91666666666663 L 181.70833333333334,618.7499999999999 L 129.79166666666666,618.7499999999999 L 77.875,618.7499999999999 L 233.625,618.7499999999999 L 285.54166666666663,618.7499999999999 L 337.4583333333333,618.7499999999999 L 233.625,502.91666666666663 L 233.625,387.08333333333326 L 233.625,271.25 L 181.70833333333334,271.25 L 181.70833333333334,155.41666666666669 L 493.2083333333333,155.41666666666669 L 545.125,155.41666666666669zz"/>
    <glyph glyph-name="uni013B" unicode="&#315;" horiz-adv-x="623" d="M 545.125,155.41666666666669 L 545.125,39.583333333333314 L 493.2083333333333,39.583333333333314 L 441.29166666666663,39.583333333333314 L 389.37499999999994,39.583333333333314 L 337.4583333333333,39.583333333333314 L 285.54166666666663,39.583333333333314 L 233.625,39.583333333333314 L 181.70833333333334,39.583333333333314 L 129.79166666666666,39.583333333333314 L 77.875,39.583333333333314 L 25.958333333333332,39.583333333333314 L 77.875,155.41666666666669 L 129.79166666666666,155.41666666666669 L 129.79166666666666,271.25 L 129.79166666666666,387.08333333333326 L 129.79166666666666,502.91666666666663 L 181.70833333333334,502.91666666666663 L 181.70833333333334,618.7499999999999 L 129.79166666666666,618.7499999999999 L 77.875,618.7499999999999 L 233.625,618.7499999999999 L 285.54166666666663,618.7499999999999 L 337.4583333333333,618.7499999999999 L 233.625,502.91666666666663 L 233.625,387.08333333333326 L 233.625,271.25 L 181.70833333333334,271.25 L 181.70833333333334,155.41666666666669 L 493.2083333333333,155.41666666666669 L 545.125,155.41666666666669zM 285.54166666666663,-76.25 L 337.4583333333333,-76.25 L 337.4583333333333,-192.08333333333334 L 285.54166666666663,-192.08333333333334 L 233.625,-192.08333333333334 L 233.625,-76.25 L 181.70833333333334,-76.25 L 285.54166666666663,-76.25zz"/>
    <glyph glyph-name="Lslash" unicode="&#321;" horiz-adv-x="623" d="M 545.125,155.41666666666669 L 545.125,39.583333333333314 L 493.2083333333333,39.583333333333314 L 441.29166666666663,39.583333333333314 L 389.37499999999994,39.583333333333314 L 337.4583333333333,39.583333333333314 L 285.54166666666663,39.583333333333314 L 233.625,39.583333333333314 L 181.70833333333334,39.583333333333314 L 129.79166666666666,39.583333333333314 L 77.875,39.583333333333314 L 25.958333333333332,39.583333333333314 L 77.875,155.41666666666669 L 129.79166666666666,155.41666666666669 L 129.79166666666666,271.25 L 77.875,271.25 L 25.958333333333332,271.25 L 77.875,387.08333333333326 L 129.79166666666666,387.08333333333326 L 129.79166666666666,502.91666666666663 L 181.70833333333334,502.91666666666663 L 181.70833333333334,618.7499999999999 L 129.79166666666666,618.7499999999999 L 77.875,618.7499999999999 L 233.625,618.7499999999999 L 285.54166666666663,618.7499999999999 L 337.4583333333333,618.7499999999999 L 233.625,502.91666666666663 L 233.625,387.08333333333326 L 285.54166666666663,387.08333333333326 L 285.54166666666663,502.91666666666663 L 337.4583333333333,502.91666666666663 L 337.4583333333333,387.08333333333326 L 233.625,271.25 L 181.70833333333334,271.25 L 181.70833333333334,155.41666666666669 L 493.2083333333333,155.41666666666669 L 545.125,155.41666666666669zz"/>
    <glyph glyph-name="Nacute" unicode="&#323;" horiz-adv-x="761" d="M 602.4583333333334,850.4166666666667 L 539.0416666666666,850.4166666666667 L 539.0416666666666,734.5833333333333 L 475.62499999999994,734.5833333333333 L 412.2083333333333,734.5833333333333 L 348.79166666666663,734.5833333333333 L 412.2083333333333,850.4166666666667 L 475.62499999999994,850.4166666666667 L 602.4583333333334,850.4166666666667zM 729.2916666666666,618.7499999999999 L 665.875,618.7499999999999 L 665.875,502.91666666666663 L 665.875,387.08333333333326 L 665.875,271.25 L 602.4583333333334,271.25 L 602.4583333333334,155.41666666666669 L 602.4583333333334,39.583333333333314 L 665.875,39.583333333333314 L 539.0416666666666,39.583333333333314 L 475.62499999999994,39.583333333333314 L 475.62499999999994,155.41666666666669 L 412.2083333333333,155.41666666666669 L 412.2083333333333,271.25 L 348.79166666666663,271.25 L 348.79166666666663,387.08333333333326 L 285.375,387.08333333333326 L 285.375,502.91666666666663 L 221.95833333333334,502.91666666666663 L 221.95833333333334,387.08333333333326 L 158.54166666666666,387.08333333333326 L 158.54166666666666,271.25 L 158.54166666666666,155.41666666666669 L 158.54166666666666,39.583333333333314 L 221.95833333333334,39.583333333333314 L 285.375,39.583333333333314 L 95.125,39.583333333333314 L 31.708333333333332,39.583333333333314 L 95.125,155.41666666666669 L 95.125,271.25 L 158.54166666666666,502.91666666666663 L 158.54166666666666,618.7499999999999 L 95.125,618.7499999999999 L 221.95833333333334,618.7499999999999 L 285.375,618.7499999999999 L 348.79166666666663,502.91666666666663 L 412.2083333333333,387.08333333333326 L 475.62499999999994,387.08333333333326 L 475.62499999999994,271.25 L 539.0416666666666,271.25 L 539.0416666666666,155.41666666666669 L 602.4583333333334,387.08333333333326 L 602.4583333333334,502.91666666666663 L 602.4583333333334,618.7499999999999 L 539.0416666666666,618.7499999999999 L 729.2916666666666,618.7499999999999zz"/>
    <glyph glyph-name="Ncaron" unicode="&#327;" horiz-adv-x="761" d="M 475.62499999999994,734.5833333333333 L 412.2083333333333,734.5833333333333 L 412.2083333333333,850.4166666666667 L 348.79166666666663,850.4166666666667 L 475.62499999999994,850.4166666666667 L 539.0416666666666,850.4166666666667 L 602.4583333333334,850.4166666666667 L 539.0416666666666,734.5833333333333 L 475.62499999999994,734.5833333333333zM 729.2916666666666,618.7499999999999 L 665.875,618.7499999999999 L 665.875,502.91666666666663 L 665.875,387.08333333333326 L 665.875,271.25 L 602.4583333333334,271.25 L 602.4583333333334,155.41666666666669 L 602.4583333333334,39.583333333333314 L 665.875,39.583333333333314 L 539.0416666666666,39.583333333333314 L 475.62499999999994,39.583333333333314 L 475.62499999999994,155.41666666666669 L 412.2083333333333,155.41666666666669 L 412.2083333333333,271.25 L 348.79166666666663,271.25 L 348.79166666666663,387.08333333333326 L 285.375,387.08333333333326 L 285.375,502.91666666666663 L 221.95833333333334,502.91666666666663 L 221.95833333333334,387.08333333333326 L 158.54166666666666,387.08333333333326 L 158.54166666666666,271.25 L 158.54166666666666,155.41666666666669 L 158.54166666666666,39.583333333333314 L 221.95833333333334,39.583333333333314 L 285.375,39.583333333333314 L 95.125,39.583333333333314 L 31.708333333333332,39.583333333333314 L 95.125,155.41666666666669 L 95.125,271.25 L 158.54166666666666,502.91666666666663 L 158.54166666666666,618.7499999999999 L 95.125,618.7499999999999 L 221.95833333333334,618.7499999999999 L 285.375,618.7499999999999 L 348.79166666666663,502.91666666666663 L 412.2083333333333,387.08333333333326 L 475.62499999999994,387.08333333333326 L 475.62499999999994,271.25 L 539.0416666666666,271.25 L 539.0416666666666,155.41666666666669 L 602.4583333333334,387.08333333333326 L 602.4583333333334,502.91666666666663 L 602.4583333333334,618.7499999999999 L 539.0416666666666,618.7499999999999 L 729.2916666666666,618.7499999999999zz"/>
    <glyph glyph-name="uni0145" unicode="&#325;" horiz-adv-x="761" d="M 729.2916666666666,618.7499999999999 L 665.875,618.7499999999999 L 665.875,502.91666666666663 L 665.875,387.08333333333326 L 665.875,271.25 L 602.4583333333334,271.25 L 602.4583333333334,155.41666666666669 L 602.4583333333334,39.583333333333314 L 665.875,39.583333333333314 L 539.0416666666666,39.583333333333314 L 475.62499999999994,39.583333333333314 L 475.62499999999994,155.41666666666669 L 412.2083333333333,155.41666666666669 L 412.2083333333333,271.25 L 348.79166666666663,271.25 L 348.79166666666663,387.08333333333326 L 285.375,387.08333333333326 L 285.375,502.91666666666663 L 221.95833333333334,502.91666666666663 L 221.95833333333334,387.08333333333326 L 158.54166666666666,387.08333333333326 L 158.54166666666666,271.25 L 158.54166666666666,155.41666666666669 L 158.54166666666666,39.583333333333314 L 221.95833333333334,39.583333333333314 L 285.375,39.583333333333314 L 95.125,39.583333333333314 L 31.708333333333332,39.583333333333314 L 95.125,155.41666666666669 L 95.125,271.25 L 158.54166666666666,502.91666666666663 L 158.54166666666666,618.7499999999999 L 95.125,618.7499999999999 L 221.95833333333334,618.7499999999999 L 285.375,618.7499999999999 L 348.79166666666663,502.91666666666663 L 412.2083333333333,387.08333333333326 L 475.62499999999994,387.08333333333326 L 475.62499999999994,271.25 L 539.0416666666666,271.25 L 539.0416666666666,155.41666666666669 L 602.4583333333334,387.08333333333326 L 602.4583333333334,502.91666666666663 L 602.4583333333334,618.7499999999999 L 539.0416666666666,618.7499999999999 L 729.2916666666666,618.7499999999999zM 285.375,-76.25 L 348.79166666666663,-76.25 L 348.79166666666663,-192.08333333333334 L 285.375,-192.08333333333334 L 221.95833333333334,-192.08333333333334 L 221.95833333333334,-76.25 L 285.375,-76.25zz"/>
    <glyph glyph-name="Eng" unicode="&#330;" horiz-adv-x="981"/>
    <glyph glyph-name="Ntilde" unicode="&#209;" horiz-adv-x="761" d="M 348.79166666666663,850.4166666666667 L 348.79166666666663,734.5833333333333 L 285.375,734.5833333333333 L 285.375,850.4166666666667 L 412.2083333333333,850.4166666666667 L 475.62499999999994,850.4166666666667 L 539.0416666666666,850.4166666666667 L 602.4583333333334,850.4166666666667 L 602.4583333333334,734.5833333333333 L 539.0416666666666,734.5833333333333 L 475.62499999999994,734.5833333333333 L 412.2083333333333,734.5833333333333 L 348.79166666666663,850.4166666666667zM 729.2916666666666,618.7499999999999 L 665.875,618.7499999999999 L 665.875,502.91666666666663 L 665.875,387.08333333333326 L 665.875,271.25 L 602.4583333333334,271.25 L 602.4583333333334,155.41666666666669 L 602.4583333333334,39.583333333333314 L 665.875,39.583333333333314 L 539.0416666666666,39.583333333333314 L 475.62499999999994,39.583333333333314 L 475.62499999999994,155.41666666666669 L 412.2083333333333,155.41666666666669 L 412.2083333333333,271.25 L 348.79166666666663,271.25 L 348.79166666666663,387.08333333333326 L 285.375,387.08333333333326 L 285.375,502.91666666666663 L 221.95833333333334,502.91666666666663 L 221.95833333333334,387.08333333333326 L 158.54166666666666,387.08333333333326 L 158.54166666666666,271.25 L 158.54166666666666,155.41666666666669 L 158.54166666666666,39.583333333333314 L 221.95833333333334,39.583333333333314 L 285.375,39.583333333333314 L 95.125,39.583333333333314 L 31.708333333333332,39.583333333333314 L 95.125,155.41666666666669 L 95.125,271.25 L 158.54166666666666,502.91666666666663 L 158.54166666666666,618.7499999999999 L 95.125,618.7499999999999 L 221.95833333333334,618.7499999999999 L 285.375,618.7499999999999 L 348.79166666666663,502.91666666666663 L 412.2083333333333,387.08333333333326 L 475.62499999999994,387.08333333333326 L 475.62499999999994,271.25 L 539.0416666666666,271.25 L 539.0416666666666,155.41666666666669 L 602.4583333333334,387.08333333333326 L 602.4583333333334,502.91666666666663 L 602.4583333333334,618.7499999999999 L 539.0416666666666,618.7499999999999 L 729.2916666666666,618.7499999999999zz"/>
    <glyph glyph-name="Oacute" unicode="&#211;" horiz-adv-x="718" d="M 388.9166666666667,734.5833333333333 L 329.08333333333337,734.5833333333333 L 388.9166666666667,850.4166666666667 L 448.75000000000006,850.4166666666667 L 508.58333333333337,850.4166666666667 L 568.4166666666666,850.4166666666667 L 508.58333333333337,734.5833333333333 L 448.75000000000006,734.5833333333333 L 388.9166666666667,734.5833333333333zM 269.25,39.583333333333314 L 209.41666666666666,39.583333333333314 L 149.58333333333334,39.583333333333314 L 89.75,39.583333333333314 L 89.75,155.41666666666669 L 29.916666666666668,155.41666666666669 L 29.916666666666668,271.25 L 29.916666666666668,387.08333333333326 L 89.75,387.08333333333326 L 89.75,502.91666666666663 L 149.58333333333334,502.91666666666663 L 149.58333333333334,618.7499999999999 L 209.41666666666666,618.7499999999999 L 269.25,618.7499999999999 L 329.08333333333337,618.7499999999999 L 388.9166666666667,618.7499999999999 L 448.75000000000006,618.7499999999999 L 508.58333333333337,618.7499999999999 L 568.4166666666666,618.7499999999999 L 628.25,618.7499999999999 L 628.25,502.91666666666663 L 688.0833333333334,502.91666666666663 L 688.0833333333334,387.08333333333326 L 688.0833333333334,271.25 L 628.25,271.25 L 628.25,155.41666666666669 L 568.4166666666666,155.41666666666669 L 568.4166666666666,39.583333333333314 L 508.58333333333337,39.583333333333314 L 448.75000000000006,39.583333333333314 L 388.9166666666667,39.583333333333314 L 329.08333333333337,39.583333333333314 L 269.25,39.583333333333314zM 388.9166666666667,39.583333333333314 L 448.75000000000006,39.583333333333314 L 448.75000000000006,155.41666666666669 L 508.58333333333337,155.41666666666669 L 508.58333333333337,271.25 L 568.4166666666666,271.25 L 568.4166666666666,387.08333333333326 L 568.4166666666666,502.91666666666663 L 508.58333333333337,502.91666666666663 L 508.58333333333337,618.7499999999999 L 448.75000000000006,618.7499999999999 L 388.9166666666667,618.7499999999999 L 329.08333333333337,618.7499999999999 L 269.25,618.7499999999999 L 269.25,502.91666666666663 L 209.41666666666666,502.91666666666663 L 149.58333333333334,387.08333333333326 L 149.58333333333334,271.25 L 149.58333333333334,155.41666666666669 L 149.58333333333334,39.583333333333314 L 209.41666666666666,39.583333333333314 L 269.25,39.583333333333314 L 329.08333333333337,39.583333333333314 L 388.9166666666667,39.583333333333314zz"/>
    <glyph glyph-name="Ocircumflex" unicode="&#212;" horiz-adv-x="718" d="M 329.08333333333337,734.5833333333333 L 269.25,734.5833333333333 L 329.08333333333337,850.4166666666667 L 388.9166666666667,850.4166666666667 L 448.75000000000006,850.4166666666667 L 508.58333333333337,850.4166666666667 L 508.58333333333337,734.5833333333333 L 568.4166666666666,734.5833333333333 L 448.75000000000006,734.5833333333333 L 388.9166666666667,734.5833333333333 L 329.08333333333337,734.5833333333333zM 269.25,39.583333333333314 L 209.41666666666666,39.583333333333314 L 149.58333333333334,39.583333333333314 L 89.75,39.583333333333314 L 89.75,155.41666666666669 L 29.916666666666668,155.41666666666669 L 29.916666666666668,271.25 L 29.916666666666668,387.08333333333326 L 89.75,387.08333333333326 L 89.75,502.91666666666663 L 149.58333333333334,502.91666666666663 L 149.58333333333334,618.7499999999999 L 209.41666666666666,618.7499999999999 L 269.25,618.7499999999999 L 329.08333333333337,618.7499999999999 L 388.9166666666667,618.7499999999999 L 448.75000000000006,618.7499999999999 L 508.58333333333337,618.7499999999999 L 568.4166666666666,618.7499999999999 L 628.25,618.7499999999999 L 628.25,502.91666666666663 L 688.0833333333334,502.91666666666663 L 688.0833333333334,387.08333333333326 L 688.0833333333334,271.25 L 628.25,271.25 L 628.25,155.41666666666669 L 568.4166666666666,155.41666666666669 L 568.4166666666666,39.583333333333314 L 508.58333333333337,39.583333333333314 L 448.75000000000006,39.583333333333314 L 388.9166666666667,39.583333333333314 L 329.08333333333337,39.583333333333314 L 269.25,39.583333333333314zM 388.9166666666667,39.583333333333314 L 448.75000000000006,39.583333333333314 L 448.75000000000006,155.41666666666669 L 508.58333333333337,155.41666666666669 L 508.58333333333337,271.25 L 568.4166666666666,271.25 L 568.4166666666666,387.08333333333326 L 568.4166666666666,502.91666666666663 L 508.58333333333337,502.91666666666663 L 508.58333333333337,618.7499999999999 L 448.75000000000006,618.7499999999999 L 388.9166666666667,618.7499999999999 L 329.08333333333337,618.7499999999999 L 269.25,618.7499999999999 L 269.25,502.91666666666663 L 209.41666666666666,502.91666666666663 L 149.58333333333334,387.08333333333326 L 149.58333333333334,271.25 L 149.58333333333334,155.41666666666669 L 149.58333333333334,39.583333333333314 L 209.41666666666666,39.583333333333314 L 269.25,39.583333333333314 L 329.08333333333337,39.583333333333314 L 388.9166666666667,39.583333333333314zz"/>
    <glyph glyph-name="Odieresis" unicode="&#214;" horiz-adv-x="718" d="M 568.4166666666666,850.4166666666667 L 628.25,850.4166666666667 L 628.25,734.5833333333333 L 568.4166666666666,734.5833333333333 L 508.58333333333337,734.5833333333333 L 508.58333333333337,850.4166666666667 L 448.75000000000006,850.4166666666667 L 568.4166666666666,850.4166666666667zM 329.08333333333337,850.4166666666667 L 388.9166666666667,850.4166666666667 L 388.9166666666667,734.5833333333333 L 329.08333333333337,734.5833333333333 L 269.25,734.5833333333333 L 269.25,850.4166666666667 L 329.08333333333337,850.4166666666667zM 269.25,39.583333333333314 L 209.41666666666666,39.583333333333314 L 149.58333333333334,39.583333333333314 L 89.75,39.583333333333314 L 89.75,155.41666666666669 L 29.916666666666668,155.41666666666669 L 29.916666666666668,271.25 L 29.916666666666668,387.08333333333326 L 89.75,387.08333333333326 L 89.75,502.91666666666663 L 149.58333333333334,502.91666666666663 L 149.58333333333334,618.7499999999999 L 209.41666666666666,618.7499999999999 L 269.25,618.7499999999999 L 329.08333333333337,618.7499999999999 L 388.9166666666667,618.7499999999999 L 448.75000000000006,618.7499999999999 L 508.58333333333337,618.7499999999999 L 568.4166666666666,618.7499999999999 L 628.25,618.7499999999999 L 628.25,502.91666666666663 L 688.0833333333334,502.91666666666663 L 688.0833333333334,387.08333333333326 L 688.0833333333334,271.25 L 628.25,271.25 L 628.25,155.41666666666669 L 568.4166666666666,155.41666666666669 L 568.4166666666666,39.583333333333314 L 508.58333333333337,39.583333333333314 L 448.75000000000006,39.583333333333314 L 388.9166666666667,39.583333333333314 L 329.08333333333337,39.583333333333314 L 269.25,39.583333333333314zM 388.9166666666667,39.583333333333314 L 448.75000000000006,39.583333333333314 L 448.75000000000006,155.41666666666669 L 508.58333333333337,155.41666666666669 L 508.58333333333337,271.25 L 568.4166666666666,271.25 L 568.4166666666666,387.08333333333326 L 568.4166666666666,502.91666666666663 L 508.58333333333337,502.91666666666663 L 508.58333333333337,618.7499999999999 L 448.75000000000006,618.7499999999999 L 388.9166666666667,618.7499999999999 L 329.08333333333337,618.7499999999999 L 269.25,618.7499999999999 L 269.25,502.91666666666663 L 209.41666666666666,502.91666666666663 L 149.58333333333334,387.08333333333326 L 149.58333333333334,271.25 L 149.58333333333334,155.41666666666669 L 149.58333333333334,39.583333333333314 L 209.41666666666666,39.583333333333314 L 269.25,39.583333333333314 L 329.08333333333337,39.583333333333314 L 388.9166666666667,39.583333333333314zz"/>
    <glyph glyph-name="Ograve" unicode="&#210;" horiz-adv-x="718" d="M 329.08333333333337,850.4166666666667 L 388.9166666666667,850.4166666666667 L 448.75000000000006,850.4166666666667 L 448.75000000000006,734.5833333333333 L 508.58333333333337,734.5833333333333 L 388.9166666666667,734.5833333333333 L 269.25,850.4166666666667 L 329.08333333333337,850.4166666666667zM 269.25,39.583333333333314 L 209.41666666666666,39.583333333333314 L 149.58333333333334,39.583333333333314 L 89.75,39.583333333333314 L 89.75,155.41666666666669 L 29.916666666666668,155.41666666666669 L 29.916666666666668,271.25 L 29.916666666666668,387.08333333333326 L 89.75,387.08333333333326 L 89.75,502.91666666666663 L 149.58333333333334,502.91666666666663 L 149.58333333333334,618.7499999999999 L 209.41666666666666,618.7499999999999 L 269.25,618.7499999999999 L 329.08333333333337,618.7499999999999 L 388.9166666666667,618.7499999999999 L 448.75000000000006,618.7499999999999 L 508.58333333333337,618.7499999999999 L 568.4166666666666,618.7499999999999 L 628.25,618.7499999999999 L 628.25,502.91666666666663 L 688.0833333333334,502.91666666666663 L 688.0833333333334,387.08333333333326 L 688.0833333333334,271.25 L 628.25,271.25 L 628.25,155.41666666666669 L 568.4166666666666,155.41666666666669 L 568.4166666666666,39.583333333333314 L 508.58333333333337,39.583333333333314 L 448.75000000000006,39.583333333333314 L 388.9166666666667,39.583333333333314 L 329.08333333333337,39.583333333333314 L 269.25,39.583333333333314zM 388.9166666666667,39.583333333333314 L 448.75000000000006,39.583333333333314 L 448.75000000000006,155.41666666666669 L 508.58333333333337,155.41666666666669 L 508.58333333333337,271.25 L 568.4166666666666,271.25 L 568.4166666666666,387.08333333333326 L 568.4166666666666,502.91666666666663 L 508.58333333333337,502.91666666666663 L 508.58333333333337,618.7499999999999 L 448.75000000000006,618.7499999999999 L 388.9166666666667,618.7499999999999 L 329.08333333333337,618.7499999999999 L 269.25,618.7499999999999 L 269.25,502.91666666666663 L 209.41666666666666,502.91666666666663 L 149.58333333333334,387.08333333333326 L 149.58333333333334,271.25 L 149.58333333333334,155.41666666666669 L 149.58333333333334,39.583333333333314 L 209.41666666666666,39.583333333333314 L 269.25,39.583333333333314 L 329.08333333333337,39.583333333333314 L 388.9166666666667,39.583333333333314zz"/>
    <glyph glyph-name="Ohungarumlaut" unicode="&#336;" horiz-adv-x="718" d="M 269.25,734.5833333333333 L 329.08333333333337,734.5833333333333 L 329.08333333333337,850.4166666666667 L 388.9166666666667,850.4166666666667 L 448.75000000000006,850.4166666666667 L 508.58333333333337,850.4166666666667 L 448.75000000000006,734.5833333333333 L 388.9166666666667,734.5833333333333 L 269.25,734.5833333333333zM 508.58333333333337,734.5833333333333 L 568.4166666666666,734.5833333333333 L 568.4166666666666,850.4166666666667 L 628.25,850.4166666666667 L 688.0833333333334,850.4166666666667 L 628.25,734.5833333333333 L 508.58333333333337,734.5833333333333zM 269.25,39.583333333333314 L 209.41666666666666,39.583333333333314 L 149.58333333333334,39.583333333333314 L 89.75,39.583333333333314 L 89.75,155.41666666666669 L 29.916666666666668,155.41666666666669 L 29.916666666666668,271.25 L 29.916666666666668,387.08333333333326 L 89.75,387.08333333333326 L 89.75,502.91666666666663 L 149.58333333333334,502.91666666666663 L 149.58333333333334,618.7499999999999 L 209.41666666666666,618.7499999999999 L 269.25,618.7499999999999 L 329.08333333333337,618.7499999999999 L 388.9166666666667,618.7499999999999 L 448.75000000000006,618.7499999999999 L 508.58333333333337,618.7499999999999 L 568.4166666666666,618.7499999999999 L 628.25,618.7499999999999 L 628.25,502.91666666666663 L 688.0833333333334,502.91666666666663 L 688.0833333333334,387.08333333333326 L 688.0833333333334,271.25 L 628.25,271.25 L 628.25,155.41666666666669 L 568.4166666666666,155.41666666666669 L 568.4166666666666,39.583333333333314 L 508.58333333333337,39.583333333333314 L 448.75000000000006,39.583333333333314 L 388.9166666666667,39.583333333333314 L 329.08333333333337,39.583333333333314 L 269.25,39.583333333333314zM 388.9166666666667,39.583333333333314 L 448.75000000000006,39.583333333333314 L 448.75000000000006,155.41666666666669 L 508.58333333333337,155.41666666666669 L 508.58333333333337,271.25 L 568.4166666666666,271.25 L 568.4166666666666,387.08333333333326 L 568.4166666666666,502.91666666666663 L 508.58333333333337,502.91666666666663 L 508.58333333333337,618.7499999999999 L 448.75000000000006,618.7499999999999 L 388.9166666666667,618.7499999999999 L 329.08333333333337,618.7499999999999 L 269.25,618.7499999999999 L 269.25,502.91666666666663 L 209.41666666666666,502.91666666666663 L 149.58333333333334,387.08333333333326 L 149.58333333333334,271.25 L 149.58333333333334,155.41666666666669 L 149.58333333333334,39.583333333333314 L 209.41666666666666,39.583333333333314 L 269.25,39.583333333333314 L 329.08333333333337,39.583333333333314 L 388.9166666666667,39.583333333333314zz"/>
    <glyph glyph-name="Omacron" unicode="&#332;" horiz-adv-x="718" d="M 628.25,850.4166666666667 L 628.25,734.5833333333333 L 568.4166666666666,734.5833333333333 L 508.58333333333337,734.5833333333333 L 448.75000000000006,734.5833333333333 L 388.9166666666667,734.5833333333333 L 329.08333333333337,734.5833333333333 L 269.25,734.5833333333333 L 269.25,850.4166666666667 L 329.08333333333337,850.4166666666667 L 388.9166666666667,850.4166666666667 L 448.75000000000006,850.4166666666667 L 508.58333333333337,850.4166666666667 L 568.4166666666666,850.4166666666667 L 628.25,850.4166666666667zM 269.25,39.583333333333314 L 209.41666666666666,39.583333333333314 L 149.58333333333334,39.583333333333314 L 89.75,39.583333333333314 L 89.75,155.41666666666669 L 29.916666666666668,155.41666666666669 L 29.916666666666668,271.25 L 29.916666666666668,387.08333333333326 L 89.75,387.08333333333326 L 89.75,502.91666666666663 L 149.58333333333334,502.91666666666663 L 149.58333333333334,618.7499999999999 L 209.41666666666666,618.7499999999999 L 269.25,618.7499999999999 L 329.08333333333337,618.7499999999999 L 388.9166666666667,618.7499999999999 L 448.75000000000006,618.7499999999999 L 508.58333333333337,618.7499999999999 L 568.4166666666666,618.7499999999999 L 628.25,618.7499999999999 L 628.25,502.91666666666663 L 688.0833333333334,502.91666666666663 L 688.0833333333334,387.08333333333326 L 688.0833333333334,271.25 L 628.25,271.25 L 628.25,155.41666666666669 L 568.4166666666666,155.41666666666669 L 568.4166666666666,39.583333333333314 L 508.58333333333337,39.583333333333314 L 448.75000000000006,39.583333333333314 L 388.9166666666667,39.583333333333314 L 329.08333333333337,39.583333333333314 L 269.25,39.583333333333314zM 388.9166666666667,39.583333333333314 L 448.75000000000006,39.583333333333314 L 448.75000000000006,155.41666666666669 L 508.58333333333337,155.41666666666669 L 508.58333333333337,271.25 L 568.4166666666666,271.25 L 568.4166666666666,387.08333333333326 L 568.4166666666666,502.91666666666663 L 508.58333333333337,502.91666666666663 L 508.58333333333337,618.7499999999999 L 448.75000000000006,618.7499999999999 L 388.9166666666667,618.7499999999999 L 329.08333333333337,618.7499999999999 L 269.25,618.7499999999999 L 269.25,502.91666666666663 L 209.41666666666666,502.91666666666663 L 149.58333333333334,387.08333333333326 L 149.58333333333334,271.25 L 149.58333333333334,155.41666666666669 L 149.58333333333334,39.583333333333314 L 209.41666666666666,39.583333333333314 L 269.25,39.583333333333314 L 329.08333333333337,39.583333333333314 L 388.9166666666667,39.583333333333314zz"/>
    <glyph glyph-name="Oslash" unicode="&#216;" horiz-adv-x="718" d="M 568.4166666666666,618.7499999999999 L 628.25,618.7499999999999 L 628.25,502.91666666666663 L 688.0833333333334,502.91666666666663 L 688.0833333333334,387.08333333333326 L 688.0833333333334,271.25 L 628.25,271.25 L 628.25,155.41666666666669 L 568.4166666666666,155.41666666666669 L 568.4166666666666,39.583333333333314 L 508.58333333333337,39.583333333333314 L 448.75000000000006,39.583333333333314 L 388.9166666666667,39.583333333333314 L 329.08333333333337,39.583333333333314 L 269.25,39.583333333333314 L 209.41666666666666,39.583333333333314 L 149.58333333333334,39.583333333333314 L 149.58333333333334,-76.25 L 89.75,-76.25 L 89.75,39.583333333333314 L 89.75,155.41666666666669 L 29.916666666666668,155.41666666666669 L 29.916666666666668,271.25 L 29.916666666666668,387.08333333333326 L 89.75,387.08333333333326 L 89.75,502.91666666666663 L 149.58333333333334,502.91666666666663 L 149.58333333333334,618.7499999999999 L 209.41666666666666,618.7499999999999 L 269.25,618.7499999999999 L 329.08333333333337,618.7499999999999 L 388.9166666666667,618.7499999999999 L 448.75000000000006,618.7499999999999 L 508.58333333333337,618.7499999999999 L 508.58333333333337,734.5833333333333 L 568.4166666666666,734.5833333333333 L 628.25,734.5833333333333 L 568.4166666666666,618.7499999999999zM 149.58333333333334,271.25 L 149.58333333333334,155.41666666666669 L 209.41666666666666,155.41666666666669 L 209.41666666666666,271.25 L 269.25,271.25 L 329.08333333333337,387.08333333333326 L 388.9166666666667,387.08333333333326 L 388.9166666666667,502.91666666666663 L 448.75000000000006,502.91666666666663 L 448.75000000000006,618.7499999999999 L 388.9166666666667,618.7499999999999 L 329.08333333333337,618.7499999999999 L 269.25,618.7499999999999 L 269.25,502.91666666666663 L 209.41666666666666,502.91666666666663 L 149.58333333333334,387.08333333333326 L 149.58333333333334,271.25zM 388.9166666666667,39.583333333333314 L 448.75000000000006,39.583333333333314 L 448.75000000000006,155.41666666666669 L 508.58333333333337,155.41666666666669 L 508.58333333333337,271.25 L 568.4166666666666,271.25 L 568.4166666666666,387.08333333333326 L 568.4166666666666,502.91666666666663 L 508.58333333333337,502.91666666666663 L 508.58333333333337,618.7499999999999 L 448.75000000000006,502.91666666666663 L 448.75000000000006,387.08333333333326 L 388.9166666666667,387.08333333333326 L 329.08333333333337,271.25 L 269.25,271.25 L 269.25,155.41666666666669 L 209.41666666666666,155.41666666666669 L 209.41666666666666,39.583333333333314 L 269.25,39.583333333333314 L 329.08333333333337,39.583333333333314 L 388.9166666666667,39.583333333333314zz"/>
    <glyph glyph-name="Otilde" unicode="&#213;" horiz-adv-x="718" d="M 568.4166666666666,850.4166666666667 L 628.25,850.4166666666667 L 568.4166666666666,734.5833333333333 L 508.58333333333337,734.5833333333333 L 448.75000000000006,734.5833333333333 L 388.9166666666667,734.5833333333333 L 388.9166666666667,850.4166666666667 L 329.08333333333337,850.4166666666667 L 329.08333333333337,734.5833333333333 L 269.25,734.5833333333333 L 269.25,850.4166666666667 L 448.75000000000006,850.4166666666667 L 508.58333333333337,850.4166666666667 L 568.4166666666666,850.4166666666667zM 269.25,39.583333333333314 L 209.41666666666666,39.583333333333314 L 149.58333333333334,39.583333333333314 L 89.75,39.583333333333314 L 89.75,155.41666666666669 L 29.916666666666668,155.41666666666669 L 29.916666666666668,271.25 L 29.916666666666668,387.08333333333326 L 89.75,387.08333333333326 L 89.75,502.91666666666663 L 149.58333333333334,502.91666666666663 L 149.58333333333334,618.7499999999999 L 209.41666666666666,618.7499999999999 L 269.25,618.7499999999999 L 329.08333333333337,618.7499999999999 L 388.9166666666667,618.7499999999999 L 448.75000000000006,618.7499999999999 L 508.58333333333337,618.7499999999999 L 568.4166666666666,618.7499999999999 L 628.25,618.7499999999999 L 628.25,502.91666666666663 L 688.0833333333334,502.91666666666663 L 688.0833333333334,387.08333333333326 L 688.0833333333334,271.25 L 628.25,271.25 L 628.25,155.41666666666669 L 568.4166666666666,155.41666666666669 L 568.4166666666666,39.583333333333314 L 508.58333333333337,39.583333333333314 L 448.75000000000006,39.583333333333314 L 388.9166666666667,39.583333333333314 L 329.08333333333337,39.583333333333314 L 269.25,39.583333333333314zM 388.9166666666667,39.583333333333314 L 448.75000000000006,39.583333333333314 L 448.75000000000006,155.41666666666669 L 508.58333333333337,155.41666666666669 L 508.58333333333337,271.25 L 568.4166666666666,271.25 L 568.4166666666666,387.08333333333326 L 568.4166666666666,502.91666666666663 L 508.58333333333337,502.91666666666663 L 508.58333333333337,618.7499999999999 L 448.75000000000006,618.7499999999999 L 388.9166666666667,618.7499999999999 L 329.08333333333337,618.7499999999999 L 269.25,618.7499999999999 L 269.25,502.91666666666663 L 209.41666666666666,502.91666666666663 L 149.58333333333334,387.08333333333326 L 149.58333333333334,271.25 L 149.58333333333334,155.41666666666669 L 149.58333333333334,39.583333333333314 L 209.41666666666666,39.583333333333314 L 269.25,39.583333333333314 L 329.08333333333337,39.583333333333314 L 388.9166666666667,39.583333333333314zz"/>
    <glyph glyph-name="OE" unicode="&#338;" horiz-adv-x="1008" d="M 798.0,39.583333333333314 L 882.0,39.583333333333314 L 882.0,155.41666666666669 L 966.0,155.41666666666669 L 714.0,39.583333333333314 L 630.0,39.583333333333314 L 546.0,39.583333333333314 L 462.0,39.583333333333314 L 378.0,39.583333333333314 L 294.0,39.583333333333314 L 210.0,39.583333333333314 L 126.0,39.583333333333314 L 42.0,39.583333333333314 L 42.0,155.41666666666669 L 42.0,271.25 L 42.0,387.08333333333326 L 126.0,387.08333333333326 L 126.0,502.91666666666663 L 210.0,502.91666666666663 L 210.0,618.7499999999999 L 294.0,618.7499999999999 L 378.0,618.7499999999999 L 462.0,618.7499999999999 L 546.0,618.7499999999999 L 630.0,618.7499999999999 L 714.0,618.7499999999999 L 798.0,618.7499999999999 L 882.0,618.7499999999999 L 966.0,618.7499999999999 L 966.0,502.91666666666663 L 882.0,502.91666666666663 L 630.0,502.91666666666663 L 630.0,387.08333333333326 L 714.0,387.08333333333326 L 798.0,387.08333333333326 L 798.0,502.91666666666663 L 798.0,271.25 L 714.0,271.25 L 630.0,271.25 L 630.0,155.41666666666669 L 546.0,155.41666666666669 L 798.0,39.583333333333314zM 126.0,271.25 L 126.0,155.41666666666669 L 210.0,155.41666666666669 L 210.0,39.583333333333314 L 294.0,39.583333333333314 L 378.0,39.583333333333314 L 462.0,39.583333333333314 L 462.0,155.41666666666669 L 546.0,155.41666666666669 L 546.0,271.25 L 546.0,387.08333333333326 L 546.0,502.91666666666663 L 546.0,618.7499999999999 L 462.0,618.7499999999999 L 378.0,618.7499999999999 L 294.0,618.7499999999999 L 294.0,502.91666666666663 L 210.0,502.91666666666663 L 210.0,387.08333333333326 L 126.0,387.08333333333326 L 126.0,271.25zz"/>
    <glyph glyph-name="Thorn" unicode="&#222;" horiz-adv-x="627" d="M 339.625,502.91666666666663 L 391.875,502.91666666666663 L 444.125,502.91666666666663 L 496.375,502.91666666666663 L 548.625,502.91666666666663 L 548.625,387.08333333333326 L 600.875,387.08333333333326 L 548.625,271.25 L 496.375,271.25 L 496.375,155.41666666666669 L 444.125,155.41666666666669 L 391.875,155.41666666666669 L 339.625,155.41666666666669 L 287.375,155.41666666666669 L 235.125,155.41666666666669 L 182.875,155.41666666666669 L 182.875,39.583333333333314 L 235.125,39.583333333333314 L 130.625,39.583333333333314 L 78.375,39.583333333333314 L 26.125,39.583333333333314 L 78.375,155.41666666666669 L 130.625,155.41666666666669 L 130.625,271.25 L 130.625,387.08333333333326 L 130.625,502.91666666666663 L 182.875,502.91666666666663 L 182.875,618.7499999999999 L 130.625,618.7499999999999 L 78.375,618.7499999999999 L 235.125,618.7499999999999 L 287.375,618.7499999999999 L 339.625,618.7499999999999 L 235.125,502.91666666666663 L 287.375,502.91666666666663 L 339.625,502.91666666666663zM 287.375,155.41666666666669 L 339.625,155.41666666666669 L 391.875,155.41666666666669 L 391.875,271.25 L 444.125,271.25 L 496.375,271.25 L 496.375,387.08333333333326 L 444.125,387.08333333333326 L 444.125,502.91666666666663 L 391.875,502.91666666666663 L 339.625,502.91666666666663 L 287.375,502.91666666666663 L 235.125,502.91666666666663 L 235.125,387.08333333333326 L 235.125,271.25 L 182.875,271.25 L 182.875,155.41666666666669 L 235.125,155.41666666666669 L 287.375,155.41666666666669zz"/>
    <glyph glyph-name="Racute" unicode="&#340;" horiz-adv-x="687" d="M 543.875,850.4166666666667 L 486.625,850.4166666666667 L 486.625,734.5833333333333 L 429.375,734.5833333333333 L 372.125,734.5833333333333 L 314.875,734.5833333333333 L 372.125,850.4166666666667 L 429.375,850.4166666666667 L 543.875,850.4166666666667zM 429.375,271.25 L 429.375,155.41666666666669 L 486.625,155.41666666666669 L 486.625,39.583333333333314 L 543.875,39.583333333333314 L 601.125,39.583333333333314 L 658.375,39.583333333333314 L 429.375,39.583333333333314 L 372.125,155.41666666666669 L 372.125,271.25 L 314.875,271.25 L 257.625,271.25 L 200.375,271.25 L 200.375,155.41666666666669 L 143.125,155.41666666666669 L 143.125,39.583333333333314 L 200.375,39.583333333333314 L 257.625,39.583333333333314 L 85.875,39.583333333333314 L 28.625,39.583333333333314 L 85.875,155.41666666666669 L 85.875,271.25 L 143.125,271.25 L 143.125,387.08333333333326 L 143.125,502.91666666666663 L 143.125,618.7499999999999 L 200.375,618.7499999999999 L 85.875,618.7499999999999 L 257.625,618.7499999999999 L 314.875,618.7499999999999 L 372.125,618.7499999999999 L 429.375,618.7499999999999 L 486.625,618.7499999999999 L 543.875,618.7499999999999 L 543.875,502.91666666666663 L 601.125,502.91666666666663 L 543.875,387.08333333333326 L 486.625,387.08333333333326 L 429.375,387.08333333333326 L 429.375,271.25zM 200.375,271.25 L 257.625,271.25 L 314.875,271.25 L 372.125,387.08333333333326 L 429.375,387.08333333333326 L 486.625,387.08333333333326 L 486.625,502.91666666666663 L 486.625,618.7499999999999 L 429.375,618.7499999999999 L 372.125,618.7499999999999 L 314.875,618.7499999999999 L 257.625,618.7499999999999 L 257.625,502.91666666666663 L 257.625,387.08333333333326 L 200.375,387.08333333333326 L 200.375,271.25zz"/>
    <glyph glyph-name="Rcaron" unicode="&#344;" horiz-adv-x="687" d="M 429.375,734.5833333333333 L 372.125,734.5833333333333 L 314.875,850.4166666666667 L 257.625,850.4166666666667 L 372.125,850.4166666666667 L 429.375,850.4166666666667 L 486.625,850.4166666666667 L 543.875,850.4166666666667 L 486.625,734.5833333333333 L 429.375,734.5833333333333zM 429.375,271.25 L 429.375,155.41666666666669 L 486.625,155.41666666666669 L 486.625,39.583333333333314 L 543.875,39.583333333333314 L 601.125,39.583333333333314 L 658.375,39.583333333333314 L 429.375,39.583333333333314 L 372.125,155.41666666666669 L 372.125,271.25 L 314.875,271.25 L 257.625,271.25 L 200.375,271.25 L 200.375,155.41666666666669 L 143.125,155.41666666666669 L 143.125,39.583333333333314 L 200.375,39.583333333333314 L 257.625,39.583333333333314 L 85.875,39.583333333333314 L 28.625,39.583333333333314 L 85.875,155.41666666666669 L 85.875,271.25 L 143.125,271.25 L 143.125,387.08333333333326 L 143.125,502.91666666666663 L 143.125,618.7499999999999 L 200.375,618.7499999999999 L 85.875,618.7499999999999 L 257.625,618.7499999999999 L 314.875,618.7499999999999 L 372.125,618.7499999999999 L 429.375,618.7499999999999 L 486.625,618.7499999999999 L 543.875,618.7499999999999 L 543.875,502.91666666666663 L 601.125,502.91666666666663 L 543.875,387.08333333333326 L 486.625,387.08333333333326 L 429.375,387.08333333333326 L 429.375,271.25zM 200.375,271.25 L 257.625,271.25 L 314.875,271.25 L 372.125,387.08333333333326 L 429.375,387.08333333333326 L 486.625,387.08333333333326 L 486.625,502.91666666666663 L 486.625,618.7499999999999 L 429.375,618.7499999999999 L 372.125,618.7499999999999 L 314.875,618.7499999999999 L 257.625,618.7499999999999 L 257.625,502.91666666666663 L 257.625,387.08333333333326 L 200.375,387.08333333333326 L 200.375,271.25zz"/>
    <glyph glyph-name="uni0156" unicode="&#342;" horiz-adv-x="687" d="M 429.375,271.25 L 429.375,155.41666666666669 L 486.625,155.41666666666669 L 486.625,39.583333333333314 L 543.875,39.583333333333314 L 601.125,39.583333333333314 L 658.375,39.583333333333314 L 429.375,39.583333333333314 L 372.125,155.41666666666669 L 372.125,271.25 L 314.875,271.25 L 257.625,271.25 L 200.375,271.25 L 200.375,155.41666666666669 L 143.125,155.41666666666669 L 143.125,39.583333333333314 L 200.375,39.583333333333314 L 257.625,39.583333333333314 L 85.875,39.583333333333314 L 28.625,39.583333333333314 L 85.875,155.41666666666669 L 85.875,271.25 L 143.125,271.25 L 143.125,387.08333333333326 L 143.125,502.91666666666663 L 143.125,618.7499999999999 L 200.375,618.7499999999999 L 85.875,618.7499999999999 L 257.625,618.7499999999999 L 314.875,618.7499999999999 L 372.125,618.7499999999999 L 429.375,618.7499999999999 L 486.625,618.7499999999999 L 543.875,618.7499999999999 L 543.875,502.91666666666663 L 601.125,502.91666666666663 L 543.875,387.08333333333326 L 486.625,387.08333333333326 L 429.375,387.08333333333326 L 429.375,271.25zM 200.375,271.25 L 257.625,271.25 L 314.875,271.25 L 372.125,387.08333333333326 L 429.375,387.08333333333326 L 486.625,387.08333333333326 L 486.625,502.91666666666663 L 486.625,618.7499999999999 L 429.375,618.7499999999999 L 372.125,618.7499999999999 L 314.875,618.7499999999999 L 257.625,618.7499999999999 L 257.625,502.91666666666663 L 257.625,387.08333333333326 L 200.375,387.08333333333326 L 200.375,271.25zM 257.625,-76.25 L 314.875,-76.25 L 314.875,-192.08333333333334 L 257.625,-192.08333333333334 L 200.375,-192.08333333333334 L 200.375,-76.25 L 257.625,-76.25zz"/>
    <glyph glyph-name="Sacute" unicode="&#346;" horiz-adv-x="531" d="M 287.625,734.5833333333333 L 243.375,734.5833333333333 L 331.875,734.5833333333333 L 331.875,850.4166666666667 L 376.125,850.4166666666667 L 420.375,850.4166666666667 L 464.625,850.4166666666667 L 508.875,850.4166666666667 L 420.375,734.5833333333333 L 376.125,734.5833333333333 L 287.625,734.5833333333333zM 199.125,39.583333333333314 L 154.875,39.583333333333314 L 110.625,39.583333333333314 L 66.375,39.583333333333314 L 22.125,39.583333333333314 L 22.125,155.41666666666669 L 66.375,155.41666666666669 L 110.625,155.41666666666669 L 243.375,39.583333333333314 L 287.625,39.583333333333314 L 331.875,39.583333333333314 L 376.125,39.583333333333314 L 376.125,155.41666666666669 L 376.125,271.25 L 331.875,271.25 L 287.625,271.25 L 243.375,271.25 L 199.125,271.25 L 199.125,387.08333333333326 L 154.875,387.08333333333326 L 110.625,387.08333333333326 L 110.625,502.91666666666663 L 154.875,502.91666666666663 L 154.875,618.7499999999999 L 199.125,618.7499999999999 L 243.375,618.7499999999999 L 287.625,618.7499999999999 L 331.875,618.7499999999999 L 376.125,618.7499999999999 L 420.375,618.7499999999999 L 464.625,618.7499999999999 L 508.875,618.7499999999999 L 508.875,502.91666666666663 L 464.625,502.91666666666663 L 420.375,502.91666666666663 L 199.125,502.91666666666663 L 243.375,387.08333333333326 L 287.625,387.08333333333326 L 331.875,387.08333333333326 L 376.125,387.08333333333326 L 420.375,271.25 L 464.625,271.25 L 464.625,155.41666666666669 L 420.375,155.41666666666669 L 420.375,39.583333333333314 L 199.125,39.583333333333314zz"/>
    <glyph glyph-name="Scaron" unicode="&#352;" horiz-adv-x="531" d="M 508.875,850.4166666666667 L 464.625,850.4166666666667 L 420.375,850.4166666666667 L 420.375,734.5833333333333 L 376.125,734.5833333333333 L 331.875,734.5833333333333 L 287.625,734.5833333333333 L 287.625,850.4166666666667 L 243.375,850.4166666666667 L 199.125,850.4166666666667 L 331.875,850.4166666666667 L 376.125,850.4166666666667 L 508.875,850.4166666666667zM 199.125,39.583333333333314 L 154.875,39.583333333333314 L 110.625,39.583333333333314 L 66.375,39.583333333333314 L 22.125,39.583333333333314 L 22.125,155.41666666666669 L 66.375,155.41666666666669 L 110.625,155.41666666666669 L 243.375,39.583333333333314 L 287.625,39.583333333333314 L 331.875,39.583333333333314 L 376.125,39.583333333333314 L 376.125,155.41666666666669 L 376.125,271.25 L 331.875,271.25 L 287.625,271.25 L 243.375,271.25 L 199.125,271.25 L 199.125,387.08333333333326 L 154.875,387.08333333333326 L 110.625,387.08333333333326 L 110.625,502.91666666666663 L 154.875,502.91666666666663 L 154.875,618.7499999999999 L 199.125,618.7499999999999 L 243.375,618.7499999999999 L 287.625,618.7499999999999 L 331.875,618.7499999999999 L 376.125,618.7499999999999 L 420.375,618.7499999999999 L 464.625,618.7499999999999 L 508.875,618.7499999999999 L 508.875,502.91666666666663 L 464.625,502.91666666666663 L 420.375,502.91666666666663 L 199.125,502.91666666666663 L 243.375,387.08333333333326 L 287.625,387.08333333333326 L 331.875,387.08333333333326 L 376.125,387.08333333333326 L 420.375,271.25 L 464.625,271.25 L 464.625,155.41666666666669 L 420.375,155.41666666666669 L 420.375,39.583333333333314 L 199.125,39.583333333333314zz"/>
    <glyph glyph-name="Scedilla" unicode="&#350;" horiz-adv-x="531" d="M 464.625,502.91666666666663 L 420.375,502.91666666666663 L 420.375,618.7499999999999 L 376.125,618.7499999999999 L 331.875,618.7499999999999 L 287.625,618.7499999999999 L 243.375,618.7499999999999 L 199.125,618.7499999999999 L 199.125,502.91666666666663 L 199.125,387.08333333333326 L 243.375,387.08333333333326 L 287.625,387.08333333333326 L 331.875,387.08333333333326 L 376.125,387.08333333333326 L 376.125,271.25 L 420.375,271.25 L 464.625,271.25 L 464.625,155.41666666666669 L 420.375,155.41666666666669 L 420.375,39.583333333333314 L 376.125,39.583333333333314 L 331.875,39.583333333333314 L 287.625,39.583333333333314 L 243.375,39.583333333333314 L 199.125,39.583333333333314 L 199.125,-76.25 L 243.375,-76.25 L 287.625,-76.25 L 287.625,-192.08333333333334 L 243.375,-192.08333333333334 L 199.125,-192.08333333333334 L 154.875,-192.08333333333334 L 154.875,-76.25 L 154.875,39.583333333333314 L 110.625,39.583333333333314 L 66.375,39.583333333333314 L 22.125,39.583333333333314 L 22.125,155.41666666666669 L 66.375,155.41666666666669 L 110.625,155.41666666666669 L 376.125,155.41666666666669 L 331.875,271.25 L 287.625,271.25 L 243.375,271.25 L 199.125,271.25 L 154.875,387.08333333333326 L 110.625,387.08333333333326 L 110.625,502.91666666666663 L 154.875,502.91666666666663 L 154.875,618.7499999999999 L 464.625,618.7499999999999 L 508.875,618.7499999999999 L 508.875,502.91666666666663 L 464.625,502.91666666666663zz"/>
    <glyph glyph-name="uni0218" unicode="&#536;" horiz-adv-x="531" d="M 199.125,39.583333333333314 L 154.875,39.583333333333314 L 110.625,39.583333333333314 L 66.375,39.583333333333314 L 22.125,39.583333333333314 L 22.125,155.41666666666669 L 66.375,155.41666666666669 L 110.625,155.41666666666669 L 243.375,39.583333333333314 L 287.625,39.583333333333314 L 331.875,39.583333333333314 L 376.125,39.583333333333314 L 376.125,155.41666666666669 L 376.125,271.25 L 331.875,271.25 L 287.625,271.25 L 243.375,271.25 L 199.125,271.25 L 199.125,387.08333333333326 L 154.875,387.08333333333326 L 110.625,387.08333333333326 L 110.625,502.91666666666663 L 154.875,502.91666666666663 L 154.875,618.7499999999999 L 199.125,618.7499999999999 L 243.375,618.7499999999999 L 287.625,618.7499999999999 L 331.875,618.7499999999999 L 376.125,618.7499999999999 L 420.375,618.7499999999999 L 464.625,618.7499999999999 L 508.875,618.7499999999999 L 508.875,502.91666666666663 L 464.625,502.91666666666663 L 420.375,502.91666666666663 L 199.125,502.91666666666663 L 243.375,387.08333333333326 L 287.625,387.08333333333326 L 331.875,387.08333333333326 L 376.125,387.08333333333326 L 420.375,271.25 L 464.625,271.25 L 464.625,155.41666666666669 L 420.375,155.41666666666669 L 420.375,39.583333333333314 L 199.125,39.583333333333314zM 199.125,-76.25 L 243.375,-76.25 L 243.375,-192.08333333333334 L 199.125,-192.08333333333334 L 154.875,-192.08333333333334 L 154.875,-76.25 L 110.625,-76.25 L 199.125,-76.25zz"/>
    <glyph glyph-name="uni1E9E" unicode="&#7838;" horiz-adv-x="720" d="M 510.0,387.08333333333326 L 570.0,387.08333333333326 L 570.0,271.25 L 630.0,271.25 L 690.0,271.25 L 690.0,155.41666666666669 L 630.0,155.41666666666669 L 630.0,39.583333333333314 L 570.0,39.583333333333314 L 510.0,39.583333333333314 L 450.0,39.583333333333314 L 390.0,39.583333333333314 L 330.0,39.583333333333314 L 330.0,155.41666666666669 L 390.0,155.41666666666669 L 570.0,155.41666666666669 L 510.0,271.25 L 450.0,271.25 L 390.0,271.25 L 450.0,387.08333333333326 L 510.0,502.91666666666663 L 570.0,502.91666666666663 L 510.0,618.7499999999999 L 450.0,618.7499999999999 L 390.0,618.7499999999999 L 330.0,618.7499999999999 L 270.0,618.7499999999999 L 270.0,502.91666666666663 L 210.0,502.91666666666663 L 210.0,387.08333333333326 L 210.0,271.25 L 210.0,155.41666666666669 L 150.0,155.41666666666669 L 150.0,39.583333333333314 L 210.0,39.583333333333314 L 270.0,39.583333333333314 L 90.0,39.583333333333314 L 30.0,39.583333333333314 L 90.0,155.41666666666669 L 90.0,271.25 L 150.0,271.25 L 150.0,387.08333333333326 L 150.0,502.91666666666663 L 210.0,618.7499999999999 L 570.0,618.7499999999999 L 630.0,618.7499999999999 L 630.0,502.91666666666663 L 510.0,387.08333333333326zz"/>
    <glyph glyph-name="Tbar" unicode="&#358;" horiz-adv-x="619" d="M 335.2916666666667,618.7499999999999 L 386.87500000000006,618.7499999999999 L 438.45833333333337,618.7499999999999 L 490.0416666666667,618.7499999999999 L 541.625,618.7499999999999 L 593.2083333333334,618.7499999999999 L 593.2083333333334,502.91666666666663 L 541.625,502.91666666666663 L 386.87500000000006,502.91666666666663 L 335.2916666666667,387.08333333333326 L 386.87500000000006,387.08333333333326 L 438.45833333333337,387.08333333333326 L 490.0416666666667,387.08333333333326 L 490.0416666666667,271.25 L 438.45833333333337,271.25 L 386.87500000000006,271.25 L 335.2916666666667,271.25 L 335.2916666666667,155.41666666666669 L 283.70833333333337,155.41666666666669 L 283.70833333333337,39.583333333333314 L 335.2916666666667,39.583333333333314 L 386.87500000000006,39.583333333333314 L 232.125,39.583333333333314 L 180.54166666666666,39.583333333333314 L 128.95833333333334,39.583333333333314 L 232.125,155.41666666666669 L 232.125,271.25 L 180.54166666666666,271.25 L 128.95833333333334,271.25 L 128.95833333333334,387.08333333333326 L 180.54166666666666,387.08333333333326 L 232.125,387.08333333333326 L 283.70833333333337,387.08333333333326 L 283.70833333333337,502.91666666666663 L 283.70833333333337,618.7499999999999 L 232.125,618.7499999999999 L 180.54166666666666,618.7499999999999 L 128.95833333333334,618.7499999999999 L 128.95833333333334,502.91666666666663 L 77.375,502.91666666666663 L 25.791666666666668,502.91666666666663 L 77.375,618.7499999999999 L 335.2916666666667,618.7499999999999zz"/>
    <glyph glyph-name="Tcaron" unicode="&#356;" horiz-adv-x="619" d="M 386.87500000000006,734.5833333333333 L 335.2916666666667,734.5833333333333 L 335.2916666666667,850.4166666666667 L 283.70833333333337,850.4166666666667 L 232.125,850.4166666666667 L 386.87500000000006,850.4166666666667 L 438.45833333333337,850.4166666666667 L 490.0416666666667,850.4166666666667 L 541.625,850.4166666666667 L 438.45833333333337,734.5833333333333 L 386.87500000000006,734.5833333333333zM 335.2916666666667,618.7499999999999 L 386.87500000000006,618.7499999999999 L 438.45833333333337,618.7499999999999 L 490.0416666666667,618.7499999999999 L 541.625,618.7499999999999 L 593.2083333333334,618.7499999999999 L 593.2083333333334,502.91666666666663 L 541.625,502.91666666666663 L 386.87500000000006,502.91666666666663 L 335.2916666666667,387.08333333333326 L 335.2916666666667,271.25 L 335.2916666666667,155.41666666666669 L 283.70833333333337,155.41666666666669 L 283.70833333333337,39.583333333333314 L 335.2916666666667,39.583333333333314 L 386.87500000000006,39.583333333333314 L 232.125,39.583333333333314 L 180.54166666666666,39.583333333333314 L 128.95833333333334,39.583333333333314 L 232.125,155.41666666666669 L 232.125,271.25 L 232.125,387.08333333333326 L 283.70833333333337,387.08333333333326 L 283.70833333333337,502.91666666666663 L 283.70833333333337,618.7499999999999 L 232.125,618.7499999999999 L 180.54166666666666,618.7499999999999 L 128.95833333333334,618.7499999999999 L 128.95833333333334,502.91666666666663 L 77.375,502.91666666666663 L 25.791666666666668,502.91666666666663 L 77.375,618.7499999999999 L 335.2916666666667,618.7499999999999zz"/>
    <glyph glyph-name="uni0162" unicode="&#354;" horiz-adv-x="619" d="M 335.2916666666667,618.7499999999999 L 386.87500000000006,618.7499999999999 L 438.45833333333337,618.7499999999999 L 490.0416666666667,618.7499999999999 L 541.625,618.7499999999999 L 593.2083333333334,618.7499999999999 L 593.2083333333334,502.91666666666663 L 541.625,502.91666666666663 L 386.87500000000006,502.91666666666663 L 335.2916666666667,387.08333333333326 L 335.2916666666667,271.25 L 335.2916666666667,155.41666666666669 L 283.70833333333337,155.41666666666669 L 283.70833333333337,39.583333333333314 L 335.2916666666667,39.583333333333314 L 386.87500000000006,39.583333333333314 L 232.125,39.583333333333314 L 232.125,-76.25 L 283.70833333333337,-76.25 L 335.2916666666667,-76.25 L 335.2916666666667,-192.08333333333334 L 283.70833333333337,-192.08333333333334 L 232.125,-192.08333333333334 L 180.54166666666666,-192.08333333333334 L 180.54166666666666,-76.25 L 180.54166666666666,39.583333333333314 L 128.95833333333334,39.583333333333314 L 232.125,155.41666666666669 L 232.125,271.25 L 232.125,387.08333333333326 L 283.70833333333337,387.08333333333326 L 283.70833333333337,502.91666666666663 L 283.70833333333337,618.7499999999999 L 232.125,618.7499999999999 L 180.54166666666666,618.7499999999999 L 128.95833333333334,618.7499999999999 L 128.95833333333334,502.91666666666663 L 77.375,502.91666666666663 L 25.791666666666668,502.91666666666663 L 77.375,618.7499999999999 L 335.2916666666667,618.7499999999999zz"/>
    <glyph glyph-name="uni021A" unicode="&#538;" horiz-adv-x="619" d="M 335.2916666666667,618.7499999999999 L 386.87500000000006,618.7499999999999 L 438.45833333333337,618.7499999999999 L 490.0416666666667,618.7499999999999 L 541.625,618.7499999999999 L 593.2083333333334,618.7499999999999 L 593.2083333333334,502.91666666666663 L 541.625,502.91666666666663 L 386.87500000000006,502.91666666666663 L 335.2916666666667,387.08333333333326 L 335.2916666666667,271.25 L 335.2916666666667,155.41666666666669 L 283.70833333333337,155.41666666666669 L 283.70833333333337,39.583333333333314 L 335.2916666666667,39.583333333333314 L 386.87500000000006,39.583333333333314 L 232.125,39.583333333333314 L 180.54166666666666,39.583333333333314 L 128.95833333333334,39.583333333333314 L 232.125,155.41666666666669 L 232.125,271.25 L 232.125,387.08333333333326 L 283.70833333333337,387.08333333333326 L 283.70833333333337,502.91666666666663 L 283.70833333333337,618.7499999999999 L 232.125,618.7499999999999 L 180.54166666666666,618.7499999999999 L 128.95833333333334,618.7499999999999 L 128.95833333333334,502.91666666666663 L 77.375,502.91666666666663 L 25.791666666666668,502.91666666666663 L 77.375,618.7499999999999 L 335.2916666666667,618.7499999999999zM 232.125,-76.25 L 283.70833333333337,-76.25 L 283.70833333333337,-192.08333333333334 L 232.125,-192.08333333333334 L 180.54166666666666,-192.08333333333334 L 180.54166666666666,-76.25 L 232.125,-76.25zz"/>
    <glyph glyph-name="Uacute" unicode="&#218;" horiz-adv-x="806" d="M 638.0833333333334,850.4166666666667 L 570.9166666666667,850.4166666666667 L 503.75,850.4166666666667 L 503.75,734.5833333333333 L 436.5833333333333,734.5833333333333 L 369.4166666666667,734.5833333333333 L 436.5833333333333,850.4166666666667 L 638.0833333333334,850.4166666666667zM 570.9166666666667,618.7499999999999 L 638.0833333333334,618.7499999999999 L 705.2500000000001,618.7499999999999 L 772.4166666666667,618.7499999999999 L 705.2500000000001,502.91666666666663 L 638.0833333333334,502.91666666666663 L 638.0833333333334,387.08333333333326 L 638.0833333333334,271.25 L 638.0833333333334,155.41666666666669 L 570.9166666666667,155.41666666666669 L 570.9166666666667,39.583333333333314 L 503.75,39.583333333333314 L 436.5833333333333,39.583333333333314 L 369.4166666666667,39.583333333333314 L 302.25,39.583333333333314 L 235.08333333333334,39.583333333333314 L 167.91666666666669,39.583333333333314 L 100.75,39.583333333333314 L 100.75,155.41666666666669 L 100.75,271.25 L 100.75,387.08333333333326 L 167.91666666666669,387.08333333333326 L 167.91666666666669,502.91666666666663 L 167.91666666666669,618.7499999999999 L 100.75,618.7499999999999 L 235.08333333333334,618.7499999999999 L 302.25,618.7499999999999 L 369.4166666666667,618.7499999999999 L 235.08333333333334,502.91666666666663 L 235.08333333333334,387.08333333333326 L 235.08333333333334,271.25 L 167.91666666666669,271.25 L 167.91666666666669,155.41666666666669 L 235.08333333333334,155.41666666666669 L 503.75,155.41666666666669 L 570.9166666666667,271.25 L 570.9166666666667,387.08333333333326 L 570.9166666666667,618.7499999999999zz"/>
    </font>
</defs>
</svg>
